{
classes = (
{
code = "racute r rcommaaccent uni0213 uni0211 rcaron";
name = "@KERN_LEFT_r";
},
{
code = "ycircumflex y ydieresis yacute ygrave";
name = "@KERN_LEFT_y";
},
{
code = "wgrave wcircumflex wdieresis w wacute";
name = "@KERN_RIGHT_w";
},
{
code = "Oslash Omacron D Otilde O Dcaron Q uni020E uni020C Eth Oacute Odieresis Ohungarumlaut Ograve Ocircumflex Obreve";
name = "@KERN_LEFT_D";
},
{
code = "cdotaccent ograve ocircumflex edieresis uni020F obreve ccedilla edotaccent egrave eogonek otilde ccaron dcaron oslash cacute ecircumflex odieresis ohungarumlaut ebreve omacron uni020D emacron ccircumflex eacute ecaron c e d uni0207 uni0205 o q eth oe oacute";
name = "@KERN_RIGHT_c";
},
{
code = "Y Ydieresis Yacute";
name = "@KERN_RIGHT_Y";
},
{
code = "a aring ae uni0203 aacute uni0201 amacron agrave atilde acircumflex adieresis aogonek abreve";
name = "@KERN_RIGHT_a";
},
{
code = "Oslash Omacron G C Ccaron Otilde Q Gcircumflex O uni020E uni020C Gcommaaccent Oacute Gdotaccent Gbreve Cdotaccent uni01F4 Odieresis Ohungarumlaut Ograve OE Cacute Ccircumflex Obreve Ccedilla Ocircumflex";
name = "@KERN_RIGHT_C";
},
{
code = "";
name = "@KERN_RIGHT__empty_lu.0_st.1_cl.0";
},
{
code = "";
name = "@KERN_LEFT__empty_lu.0_st.1_cl.0";
},
{
code = "Y Ydieresis Yacute";
name = "@KERN_LEFT_Y";
},
{
code = "A Aring Adieresis uni0202 uni0200 Amacron Aacute Agrave Atilde Acircumflex Abreve Aogonek";
name = "@KERN_RIGHT_A";
},
{
code = "uni021A T Tcaron";
name = "@KERN_RIGHT_T";
},
{
code = "A Aring Adieresis Aacute uni0202 Amacron Agrave Atilde Acircumflex uni0200 Aogonek Abreve";
name = "@KERN_LEFT_A";
}
);
copyright = "2011-12 Vernon Adams";
customParameters = (
{
name = openTypeHeadLowestRecPPEM;
value = 8;
},
{
name = openTypeHheaCaretOffset;
value = 0;
},
{
name = openTypeHheaCaretSlopeRise;
value = 1;
},
{
name = openTypeHheaCaretSlopeRun;
value = 0;
},
{
name = openTypeOS2Panose;
value = (
    2,
    0,
    5,
    3,
    0,
    0,
    0,
    0,
    0,
    0
);
},
{

glyphs = (
{
glyphname = A;
lastChange = "2013-01-04 05:20:26 -0800";
layers = (
{
anchors = (
{
name = ogonek;
position = "{791, 10}";
},
{
name = top;
position = "{416, 1760}";
}
);
layerId = "7DA9E391-A28A-4B33-B824-B8724EAC872C";
name = "Regular Condensed";
paths = (
{
closed = 1;
nodes = (
"339 1760 LINE",
"56 0 LINE",
"197 0 LINE",
"418 1476 LINE",
"420 1476 LINE",
"660 0 LINE",
"804 0 LINE",
"491 1760 LINE"
);
},
{
closed = 1;
nodes = (
"228 480 LINE",
"228 357 LINE",
"629 357 LINE",
"629 480 LINE"
);
}
);
width = 860;
}
);
leftKerningGroup = A;
rightKerningGroup = A;
unicode = 0041;
},
{
glyphname = AE;
lastChange = "2013-01-01 02:52:26 -0800";
layers = (
{
anchors = (
{
name = top;
position = "{685, 0}";
}
);
layerId = "7DA9E391-A28A-4B33-B824-B8724EAC872C";
name = "Regular Condensed";
paths = (
{
closed = 1;
nodes = (
"465 1760 LINE",
"75 0 LINE",
"215 0 LINE",
"291 357 LINE",
"583 357 LINE",
"583 0 LINE",
"1054 0 LINE",
"1054 118 LINE",
"732 118 LINE",
"732 836 LINE",
"1038 836 LINE",
"1038 956 LINE",
"732 956 LINE",
"732 1644 LINE",
"1057 1644 LINE",
"1057 1760 LINE"
);
},
{
closed = 1;
nodes = (
"583 483 LINE",
"320 483 LINE",
"565 1645 LINE",
"583 1646 LINE"
);
}
);
width = 1168;
}
);
unicode = 00C6;
},
{
glyphname = B;
lastChange = "2013-01-04 05:20:56 -0800";
layers = (
{
layerId = "7DA9E391-A28A-4B33-B824-B8724EAC872C";
name = "Regular Condensed";
paths = (
{
closed = 1;
nodes = (
"160 1760 LINE",
"160 0 LINE",
"462 0 LINE SMOOTH",
"706 0 OFFCURVE",
"764 152 OFFCURVE",
"769 487 CURVE SMOOTH",
"769 518 LINE SMOOTH",
"769 712 OFFCURVE",
"745 892 OFFCURVE",
"632 947 CURVE",
"730 1011 OFFCURVE",
"745 1136 OFFCURVE",
"745 1343 CURVE SMOOTH",
"745 1366 LINE SMOOTH",
"742 1647 OFFCURVE",
"691 1760 OFFCURVE",
"417 1760 CURVE SMOOTH"
);
},
{
closed = 1;
nodes = (
"596 884 OFFCURVE",
"620 781 OFFCURVE",
"620 520 CURVE SMOOTH",
"620 536 LINE SMOOTH",
"620 214 OFFCURVE",
"593 128 OFFCURVE",
"467 128 CURVE SMOOTH",
"309 128 LINE",
"309 884 LINE",
"470 884 LINE SMOOTH"
);
},
{
closed = 1;
nodes = (
"548 1629 OFFCURVE",
"594 1597 OFFCURVE",
"596 1345 CURVE SMOOTH",
"596 1349 LINE SMOOTH",
"596 1025 OFFCURVE",
"572 1004 OFFCURVE",
"443 1004 CURVE SMOOTH",
"309 1004 LINE",
"309 1629 LINE",
"421 1629 LINE SMOOTH"
);
}
);
width = 885;
}
);
leftKerningGroup = B;
rightKerningGroup = B;
unicode = 0042;
},
{
glyphname = C;
lastChange = "2013-01-04 05:21:25 -0800";
layers = (
{
anchors = (
{
name = bottom;
position = "{443, 0}";
},
{
name = top;
position = "{441, 1760}";
}
);
layerId = "7DA9E391-A28A-4B33-B824-B8724EAC872C";
name = "Regular Condensed";
paths = (
{
closed = 1;
nodes = (
"172 1782 OFFCURVE",
"134 1550 OFFCURVE",
"134 1251 CURVE SMOOTH",
"134 550 LINE SMOOTH",
"134 180 OFFCURVE",
"188 -20 OFFCURVE",
"446 -20 CURVE SMOOTH",
"702 -20 OFFCURVE",
"748 183 OFFCURVE",
"748 552 CURVE SMOOTH",
"748 692 LINE",
"598 692 LINE",
"598 551 LINE SMOOTH",
"598 228 OFFCURVE",
"575 102 OFFCURVE",
"445 102 CURVE SMOOTH",
"309 102 OFFCURVE",
"283 227 OFFCURVE",
"283 552 CURVE SMOOTH",
"283 1258 LINE SMOOTH",
"283 1520 OFFCURVE",
"318 1660 OFFCURVE",
"451 1660 CURVE SMOOTH",
"580 1660 OFFCURVE",
"598 1518 OFFCURVE",
"598 1257 CURVE SMOOTH",
"598 1087 LINE",
"749 1087 LINE",
"749 1239 LINE SMOOTH",
"749 1545 OFFCURVE",
"737 1782 OFFCURVE",
"452 1782 CURVE SMOOTH"
);
}
);
width = 865;
}
);
leftKerningGroup = C;
rightKerningGroup = C;
unicode = 0043;
},
{
glyphname = D;
lastChange = "2013-01-04 05:18:36 -0800";
layers = (
{
anchors = (
{
name = center;
position = "{264, 901}";
},
{
name = top;
position = "{440, 1760}";
}
);
layerId = "7DA9E391-A28A-4B33-B824-B8724EAC872C";
name = "Regular Condensed";
paths = (
{
closed = 1;
nodes = (
"159 1760 LINE",
"159 0 LINE",
"424 0 LINE SMOOTH",
"679 0 OFFCURVE",
"771 138 OFFCURVE",
"771 504 CURVE SMOOTH",
"770 1258 LINE SMOOTH",
"770 1564 OFFCURVE",
"715 1760 OFFCURVE",
"430 1760 CURVE SMOOTH"
);
},
{
closed = 1;
nodes = (
"563 1636 OFFCURVE",
"621 1534 OFFCURVE",
"621 1274 CURVE SMOOTH",
"622 519 LINE SMOOTH",
"622 194 OFFCURVE",
"559 128 OFFCURVE",
"430 128 CURVE SMOOTH",
"307 128 LINE",
"307 1636 LINE",
"439 1636 LINE SMOOTH"
);
}
);
width = 903;
}
);
leftKerningGroup = D;
rightKerningGroup = D;
unicode = 0044;
},
{
glyphname = E;
lastChange = "2013-01-04 05:21:50 -0800";
layers = (
{
anchors = (
{
name = bottom;
position = "{441, -2}";
},
{
name = ogonek;
position = "{662, 10}";
},
{
name = top;
position = "{398, 1760}";
}
);
layerId = "7DA9E391-A28A-4B33-B824-B8724EAC872C";
name = "Regular Condensed";
paths = (
{
closed = 1;
nodes = (
"160 1760 LINE",
"160 0 LINE",
"622 0 LINE",
"622 118 LINE",
"309 118 LINE",
"309 835 LINE",
"606 835 LINE",
"606 956 LINE",
"309 956 LINE",
"309 1644 LINE",
"625 1644 LINE",
"625 1760 LINE"
);
}
);
width = 711;
}
);
leftKerningGroup = E;
rightKerningGroup = E;
unicode = 0045;
},
{
glyphname = F;
lastChange = "2013-01-04 05:22:39 -0800";
layers = (
{
anchors = (
{
name = top;
position = "{392, 1760}";
}
);
layerId = "7DA9E391-A28A-4B33-B824-B8724EAC872C";
name = "Regular Condensed";
paths = (
{
closed = 1;
nodes = (
"160 1760 LINE",
"160 0 LINE",
"308 0 LINE",
"308 886 LINE",
"605 886 LINE",
"605 1005 LINE",
"308 1005 LINE",
"308 1644 LINE",
"622 1644 LINE",
"622 1760 LINE"
);
}
);
width = 690;
}
);
leftKerningGroup = F;
rightKerningGroup = F;
unicode = 0046;
},
{
glyphname = G;
lastChange = "2013-01-04 05:18:42 -0800";
layers = (
{
anchors = (
{
name = bottom;
position = "{456, 0}";
},
{
name = top;
position = "{456, 1760}";
}
);
layerId = "7DA9E391-A28A-4B33-B824-B8724EAC872C";
name = "Regular Condensed";
paths = (
{
closed = 1;
nodes = (
"172 1782 OFFCURVE",
"134 1546 OFFCURVE",
"134 1245 CURVE SMOOTH",
"134 532 LINE SMOOTH",
"134 139 OFFCURVE",
"221 -20 OFFCURVE",
"417 -20 CURVE SMOOTH",
"526 -20 OFFCURVE",
"586 23 OFFCURVE",
"633 102 CURVE",
"649 0 LINE",
"747 0 LINE",
"747 890 LINE",
"448 890 LINE",
"448 763 LINE",
"599 763 LINE",
"599 541 LINE SMOOTH",
"599 226 OFFCURVE",
"570 102 OFFCURVE",
"443 102 CURVE SMOOTH",
"310 102 OFFCURVE",
"283 225 OFFCURVE",
"283 543 CURVE SMOOTH",
"283 1261 LINE SMOOTH",
"283 1551 OFFCURVE",
"323 1660 OFFCURVE",
"449 1660 CURVE SMOOTH",
"571 1660 OFFCURVE",
"595 1555 OFFCURVE",
"595 1372 CURVE SMOOTH",
"595 1100 LINE",
"747 1100 LINE",
"747 1247 LINE SMOOTH",
"747 1547 OFFCURVE",
"730 1782 OFFCURVE",
"454 1782 CURVE SMOOTH"
);
}
);
width = 889;
}
);
leftKerningGroup = G;
rightKerningGroup = G;
unicode = 0047;
},
{
glyphname = H;
lastChange = "2013-01-04 05:13:55 -0800";
layers = (
{
anchors = (
{
name = center;
position = "{470, 0}";
},
{
name = top;
position = "{470, 0}";
}
);
layerId = "7DA9E391-A28A-4B33-B824-B8724EAC872C";
name = "Regular Condensed";
paths = (
{
closed = 1;
nodes = (
"631 1760 LINE",
"631 998 LINE",
"309 998 LINE",
"309 1760 LINE",
"160 1760 LINE",
"160 0 LINE",
"309 0 LINE",
"309 886 LINE",
"631 886 LINE",
"631 0 LINE",
"780 0 LINE",
"780 1760 LINE"
);
}
);
width = 940;
}
);
leftKerningGroup = H;
rightKerningGroup = H;
unicode = 0048;
},
{
glyphname = Hbar;
lastChange = "2013-01-01 02:52:30 -0800";
layers = (
{
components = (
{
name = H;
transform = "{1, 0, 0, 1, 0, 0}";
}
);
layerId = "7DA9E391-A28A-4B33-B824-B8724EAC872C";
name = "Regular Condensed";
paths = (
{
closed = 1;
nodes = (
"55 1498 LINE",
"55 1416 LINE",
"900 1416 LINE",
"900 1498 LINE"
);
}
);
width = 932;
}
);
unicode = 0126;
},
{
glyphname = I;
lastChange = "2013-01-01 02:52:26 -0800";
layers = (
{
anchors = (
{
name = ogonek;
position = "{399, 10}";
},
{
name = top;
position = "{252, 1760}";
}
);
layerId = "7DA9E391-A28A-4B33-B824-B8724EAC872C";
name = "Regular Condensed";
paths = (
{
closed = 1;
nodes = (
"178 1760 LINE",
"178 0 LINE",
"327 0 LINE",
"327 1760 LINE"
);
}
);
width = 504;
}
);
leftKerningGroup = I;
rightKerningGroup = I;
unicode = 0049;
},
{
glyphname = J;
lastChange = "2013-01-01 02:52:26 -0800";
layers = (
{
anchors = (
{
name = top;
position = "{424, 1760}";
}
);
layerId = "7DA9E391-A28A-4B33-B824-B8724EAC872C";
name = "Regular Condensed";
paths = (
{
closed = 1;
nodes = (
"497 1760 LINE",
"497 418 LINE SMOOTH",
"497 234 OFFCURVE",
"503 103 OFFCURVE",
"371 103 CURVE SMOOTH",
"241 103 OFFCURVE",
"245 241 OFFCURVE",
"245 402 CURVE SMOOTH",
"245 540 LINE",
"94 540 LINE",
"94 389 LINE SMOOTH",
"94 112 OFFCURVE",
"160 -21 OFFCURVE",
"377 -21 CURVE SMOOTH",
"572 -21 OFFCURVE",
"646 118 OFFCURVE",
"646 420 CURVE SMOOTH",
"646 1760 LINE"
);
}
);
width = 798;
}
);
leftKerningGroup = J;
rightKerningGroup = J;
unicode = 004A;
},
{
glyphname = K;
lastChange = "2013-01-04 05:17:34 -0800";
layers = (
{
anchors = (
{
name = bottom;
position = "{424, 0}";
},
{
name = top;
position = "{420, -176}";
}
);
layerId = "7DA9E391-A28A-4B33-B824-B8724EAC872C";
name = "Regular Condensed";
paths = (
{
closed = 1;
nodes = (
"664 1760 LINE",
"309 893 LINE",
"309 1760 LINE",
"160 1760 LINE",
"160 0 LINE",
"311 0 LINE",
"311 860 LINE",
"677 0 LINE",
"831 0 LINE",
"446 891 LINE",
"808 1760 LINE"
);
}
);
width = 827;
}
);
leftKerningGroup = K;
rightKerningGroup = K;
unicode = 004B;
},
{
glyphname = L;
lastChange = "2013-01-04 05:17:40 -0800";
layers = (
{
anchors = (
{
name = bottom;
position = "{402, 0}";
},
{
name = top;
position = "{347, 1760}";
}
);
layerId = "7DA9E391-A28A-4B33-B824-B8724EAC872C";
name = "Regular Condensed";
paths = (
{
closed = 1;
nodes = (
"160 1760 LINE",
"160 0 LINE",
"621 0 LINE",
"621 118 LINE",
"309 118 LINE",
"309 1760 LINE"
);
}
);
width = 639;
}
);
leftKerningGroup = L;
rightKerningGroup = L;
unicode = 004C;
},
{
glyphname = Lcaron;
lastChange = "2013-01-01 02:52:30 -0800";
layers = (
{
components = (
{
name = L;
transform = "{1, 0, 0, 1, 0, 0}";
}
);
layerId = "7DA9E391-A28A-4B33-B824-B8724EAC872C";
name = "Regular Condensed";
paths = (
{
closed = 1;
nodes = (
"589 1764 LINE",
"589 1571 LINE",
"689 1571 LINE",
"647 1298 LINE",
"708 1298 LINE",
"787 1580 LINE",
"787 1764 LINE"
);
}
);
width = 708;
}
);
leftKerningGroup = L;
rightKerningGroup = L;
unicode = 013D;
},
{
glyphname = Lslash;
lastChange = "2013-01-01 02:52:30 -0800";
layers = (
{
components = (
{
name = L;
transform = "{1, 0, 0, 1, 0, 0}";
}
);
layerId = "7DA9E391-A28A-4B33-B824-B8724EAC872C";
name = "Regular Condensed";
paths = (
{
closed = 1;
nodes = (
"-1 916 LINE",
"-1 794 LINE",
"497 1011 LINE",
"497 1133 LINE"
);
}
);
width = 705;
}
);
unicode = 0141;
},
{
glyphname = M;
lastChange = "2013-01-05 06:36:30 -0800";
layers = (
{
anchors = (
{
name = top;
position = "{604, 1760}";
}
);
layerId = "7DA9E391-A28A-4B33-B824-B8724EAC872C";
name = "Regular Condensed";
paths = (
{
closed = 1;
nodes = (
"871 1760 LINE",
"604 282 LINE",
"327 1760 LINE",
"160 1760 LINE",
"160 0 LINE",
"296 0 LINE",
"296 754 LINE",
"273 1463 LINE",
"533 38 LINE",
"675 38 LINE",
"926 1463 LINE",
"903 754 LINE",
"903 0 LINE",
"1038 0 LINE",
"1038 1760 LINE"
);
}
);
width = 1198;
}
);
leftKerningGroup = M;
rightKerningGroup = M;
unicode = 004D;
},
{
glyphname = N;
lastChange = "2013-01-04 05:16:18 -0800";
layers = (
{
anchors = (
{
name = bottom;
position = "{485, 0}";
},
{
name = top;
position = "{485, 1760}";
}
);
layerId = "7DA9E391-A28A-4B33-B824-B8724EAC872C";
name = "Regular Condensed";
paths = (
{
closed = 1;
nodes = (
"681 1760 LINE",
"681 1005 LINE",
"696 399 LINE",
"264 1760 LINE",
"160 1760 LINE",
"160 0 LINE",
"300 0 LINE",
"300 850 LINE",
"290 1326 LINE",
"695 0 LINE",
"811 0 LINE",
"811 1760 LINE"
);
}
);
width = 971;
}
);
leftKerningGroup = N;
rightKerningGroup = N;
unicode = 004E;
},
{
glyphname = O;
lastChange = "2013-01-05 06:37:57 -0800";
layers = (
{
anchors = (
{
name = top;
position = "{444, 1759}";
}
);
layerId = "7DA9E391-A28A-4B33-B824-B8724EAC872C";
name = "Regular Condensed";
paths = (
{
closed = 1;
nodes = (
"170 1782 OFFCURVE",
"134 1571 OFFCURVE",
"134 1268 CURVE SMOOTH",
"134 519 LINE SMOOTH",
"134 151 OFFCURVE",
"190 -20 OFFCURVE",
"445 -20 CURVE SMOOTH",
"700 -20 OFFCURVE",
"753 151 OFFCURVE",
"753 519 CURVE SMOOTH",
"753 1268 LINE SMOOTH",
"753 1571 OFFCURVE",
"734 1782 OFFCURVE",
"452 1782 CURVE SMOOTH"
);
},
{
closed = 1;
nodes = (
"579 1660 OFFCURVE",
"604 1545 OFFCURVE",
"604 1280 CURVE SMOOTH",
"604 519 LINE SMOOTH",
"604 196 OFFCURVE",
"573 102 OFFCURVE",
"445 102 CURVE SMOOTH",
"312 102 OFFCURVE",
"283 196 OFFCURVE",
"283 519 CURVE SMOOTH",
"283 1281 LINE SMOOTH",
"283 1543 OFFCURVE",
"318 1660 OFFCURVE",
"452 1660 CURVE SMOOTH"
);
}
);
width = 887;
}
);
leftKerningGroup = O;
rightKerningGroup = O;
unicode = 004F;
},
{
glyphname = Oslash;
lastChange = "2013-01-01 02:52:30 -0800";
layers = (
{
anchors = (
{
name = top;
position = "{548, 0}";
}
);
components = (
{
name = O;
transform = "{1, 0, 0, 1, 0, 0}";
}
);
layerId = "7DA9E391-A28A-4B33-B824-B8724EAC872C";
name = "Regular Condensed";
paths = (
{
closed = 1;
nodes = (
"57 -166 LINE",
"156 -206 LINE",
"892 1870 LINE",
"785 1906 LINE"
);
}
);
width = 900;
}
);
unicode = 00D8;
},
{
glyphname = OE;
lastChange = "2013-01-01 02:52:26 -0800";
layers = (
{
anchors = (
{
name = top;
position = "{656, 0}";
}
);
layerId = "7DA9E391-A28A-4B33-B824-B8724EAC872C";
name = "Regular Condensed";
paths = (
{
closed = 1;
nodes = (
"449 1760 LINE SMOOTH",
"167 1760 OFFCURVE",
"130 1572 OFFCURVE",
"130 1269 CURVE SMOOTH",
"130 519 LINE SMOOTH",
"130 151 OFFCURVE",
"187 0 OFFCURVE",
"442 0 CURVE SMOOTH",
"1076 0 LINE",
"1076 118 LINE",
"751 118 LINE",
"751 836 LINE",
"1059 836 LINE",
"1059 956 LINE",
"751 956 LINE",
"751 1644 LINE",
"1078 1644 LINE",
"1078 1760 LINE"
);
},
{
closed = 1;
nodes = (
"602 126 LINE",
"442 126 LINE",
"308 127 OFFCURVE",
"279 195 OFFCURVE",
"279 518 CURVE SMOOTH",
"279 1282 LINE SMOOTH",
"279 1544 OFFCURVE",
"315 1634 OFFCURVE",
"449 1634 CURVE SMOOTH",
"602 1634 LINE"
);
}
);
width = 1189;
}
);
unicode = 0152;
},
{
glyphname = P;
lastChange = "2013-01-04 05:17:54 -0800";
layers = (
{
anchors = (
{
name = top;
position = "{448, 1760}";
}
);
layerId = "7DA9E391-A28A-4B33-B824-B8724EAC872C";
name = "Regular Condensed";
paths = (
{
closed = 1;
nodes = (
"160 1760 LINE",
"160 0 LINE",
"309 0 LINE",
"309 689 LINE",
"457 689 LINE SMOOTH",
"712 689 OFFCURVE",
"771 863 OFFCURVE",
"771 1231 CURVE SMOOTH",
"771 1229 OFFCURVE",
"771 1250 OFFCURVE",
"771 1249 CURVE SMOOTH",
"772 1548 OFFCURVE",
"749 1760 OFFCURVE",
"466 1760 CURVE SMOOTH"
);
},
{
closed = 1;
nodes = (
"598 1636 OFFCURVE",
"623 1520 OFFCURVE",
"622 1263 CURVE SMOOTH",
"622 1264 OFFCURVE",
"622 1228 OFFCURVE",
"622 1229 CURVE SMOOTH",
"622 915 OFFCURVE",
"591 815 OFFCURVE",
"467 815 CURVE SMOOTH",
"309 815 LINE",
"309 1636 LINE",
"474 1636 LINE SMOOTH"
);
}
);
width = 843;
}
);
leftKerningGroup = P;
rightKerningGroup = P;
unicode = 0050;
},
{
glyphname = Thorn;
lastChange = "2013-01-01 02:52:26 -0800";
layers = (
{
layerId = "7DA9E391-A28A-4B33-B824-B8724EAC872C";
name = "Regular Condensed";
paths = (
{
closed = 1;
nodes = (
"177 1760 LINE",
"177 0 LINE",
"326 0 LINE",
"326 434 LINE",
"474 434 LINE SMOOTH",
"729 434 OFFCURVE",
"788 606 OFFCURVE",
"788 973 CURVE SMOOTH",
"788 972 OFFCURVE",
"788 994 OFFCURVE",
"788 993 CURVE SMOOTH",
"789 1291 OFFCURVE",
"765 1501 OFFCURVE",
"483 1501 CURVE SMOOTH",
"326 1501 LINE",
"326 1760 LINE"
);
},
{
closed = 1;
nodes = (
"615 1377 OFFCURVE",
"640 1264 OFFCURVE",
"640 1008 CURVE SMOOTH",
"640 1008 OFFCURVE",
"640 971 OFFCURVE",
"640 972 CURVE SMOOTH",
"640 657 OFFCURVE",
"609 560 OFFCURVE",
"485 560 CURVE SMOOTH",
"326 560 LINE",
"326 1377 LINE",
"491 1377 LINE SMOOTH"
);
}
);
width = 876;
}
);
unicode = 00DE;
},
{
glyphname = Q;
lastChange = "2013-01-04 05:18:55 -0800";
layers = (
{
components = (
{
name = O;
transform = "{1, 0, 0, 1, 0, 0}";
}
);
layerId = "7DA9E391-A28A-4B33-B824-B8724EAC872C";
name = "Regular Condensed";
paths = (
{
closed = 1;
nodes = (
"409 -17 LINE",
"622 -247 LINE",
"694 -176 LINE",
"518 27 LINE"
);
}
);
width = 887;
}
);
unicode = 0051;
},
{
glyphname = R;
lastChange = "2013-01-04 05:18:00 -0800";
layers = (
{
anchors = (
{
name = bottom;
position = "{462, 0}";
},
{
name = top;
position = "{462, 1760}";
}
);
layerId = "7DA9E391-A28A-4B33-B824-B8724EAC872C";
name = "Regular Condensed";
paths = (
{
closed = 1;
nodes = (
"160 1760 LINE",
"160 0 LINE",
"309 0 LINE",
"309 868 LINE",
"308 868 OFFCURVE",
"468 858 OFFCURVE",
"467 858 CURVE SMOOTH",
"627 858 OFFCURVE",
"623 798 OFFCURVE",
"623 557 CURVE SMOOTH",
"623 82 OFFCURVE",
"624 41 OFFCURVE",
"645 0 CURVE",
"793 0 LINE",
"771 58 OFFCURVE",
"771 84 OFFCURVE",
"771 164 CURVE SMOOTH",
"771 764 OFFCURVE",
"746 903 OFFCURVE",
"610 925 CURVE",
"733 959 OFFCURVE",
"772 1100 OFFCURVE",
"772 1326 CURVE SMOOTH",
"772 1630 OFFCURVE",
"742 1760 OFFCURVE",
"459 1760 CURVE SMOOTH"
);
},
{
closed = 1;
nodes = (
"597 1636 OFFCURVE",
"623 1594 OFFCURVE",
"623 1335 CURVE SMOOTH",
"623 1335 OFFCURVE",
"623 1321 OFFCURVE",
"623 1322 CURVE SMOOTH",
"623 1006 OFFCURVE",
"592 968 OFFCURVE",
"464 968 CURVE SMOOTH",
"308 968 LINE",
"308 1636 LINE",
"475 1636 LINE SMOOTH"
);
}
);
width = 903;
}
);
leftKerningGroup = R;
rightKerningGroup = R;
unicode = 0052;
},
{
glyphname = S;
lastChange = "2013-01-01 10:42:48 -0800";
layers = (
{
anchors = (
{
name = bottom;
position = "{397, 0}";
},
{
name = top;
position = "{394, 1760}";
}
);
layerId = "7DA9E391-A28A-4B33-B824-B8724EAC872C";
name = "Regular Condensed";
paths = (
{
closed = 1;
nodes = (
"136 1782 OFFCURVE",
"91 1599 OFFCURVE",
"91 1346 CURVE SMOOTH",
"91 1144 OFFCURVE",
"222 1021 OFFCURVE",
"315 930 CURVE SMOOTH",
"417 833 LINE SMOOTH",
"513 740 OFFCURVE",
"572 633 OFFCURVE",
"572 452 CURVE SMOOTH",
"572 204 OFFCURVE",
"565 108 OFFCURVE",
"420 108 CURVE SMOOTH",
"281 108 OFFCURVE",
"257 224 OFFCURVE",
"257 526 CURVE SMOOTH",
"257 706 LINE",
"105 706 LINE",
"105 523 LINE SMOOTH",
"105 224 OFFCURVE",
"131 -20 OFFCURVE",
"411 -20 CURVE SMOOTH",
"676 -20 OFFCURVE",
"724 167 OFFCURVE",
"724 436 CURVE SMOOTH",
"724 668 OFFCURVE",
"625 829 OFFCURVE",
"511 946 CURVE SMOOTH",
"415 1043 LINE SMOOTH",
"301 1161 OFFCURVE",
"240 1202 OFFCURVE",
"240 1371 CURVE SMOOTH",
"240 1567 OFFCURVE",
"286 1654 OFFCURVE",
"403 1654 CURVE SMOOTH",
"532 1654 OFFCURVE",
"542 1517 OFFCURVE",
"542 1253 CURVE SMOOTH",
"542 1143 LINE",
"695 1143 LINE",
"695 1242 LINE SMOOTH",
"695 1545 OFFCURVE",
"691 1782 OFFCURVE",
"402 1782 CURVE SMOOTH"
);
}
);
width = 795;
}
);
leftKerningGroup = S;
rightKerningGroup = S;
unicode = 0053;
},
{
glyphname = T;
lastChange = "2013-01-05 06:36:18 -0800";
layers = (
{
anchors = (
{
name = bottom;
position = "{289, 0}";
},
{
name = center;
position = "{289, 862}";
},
{
name = top;
position = "{289, 1760}";
}
);
layerId = "7DA9E391-A28A-4B33-B824-B8724EAC872C";
name = "Regular Condensed";
paths = (
{
closed = 1;
nodes = (
"40 1760 LINE",
"40 1644 LINE",
"224 1644 LINE",
"224 0 LINE",
"372 0 LINE",
"372 1644 LINE",
"537 1644 LINE",
"537 1760 LINE"
);
}
);
width = 577;
}
);
leftKerningGroup = T;
rightKerningGroup = T;
unicode = 0054;
},
{
glyphname = U;
lastChange = "2013-01-04 05:19:38 -0800";
layers = (
{
anchors = (
{
name = ogonek;
position = "{619, 10}";
},
{
name = top;
position = "{455, 1761}";
}
);
layerId = "7DA9E391-A28A-4B33-B824-B8724EAC872C";
name = "Regular Condensed";
paths = (
{
closed = 1;
nodes = (
"616 1760 LINE",
"616 456 LINE SMOOTH",
"616 227 OFFCURVE",
"616 102 OFFCURVE",
"458 102 CURVE SMOOTH",
"301 102 OFFCURVE",
"295 228 OFFCURVE",
"295 457 CURVE SMOOTH",
"295 1760 LINE",
"146 1760 LINE",
"146 452 LINE SMOOTH",
"146 132 OFFCURVE",
"208 -21 OFFCURVE",
"457 -21 CURVE SMOOTH",
"706 -21 OFFCURVE",
"765 132 OFFCURVE",
"765 452 CURVE SMOOTH",
"765 1760 LINE"
);
}
);
width = 911;
}
);
leftKerningGroup = U;
rightKerningGroup = U;
unicode = 0055;
},
{
glyphname = V;
lastChange = "2013-01-01 02:52:26 -0800";
layers = (
{
layerId = "7DA9E391-A28A-4B33-B824-B8724EAC872C";
name = "Regular Condensed";
paths = (
{
closed = 1;
nodes = (
"672 1760 LINE",
"565 1062 LINE",
"453 318 LINE",
"452 318 LINE",
"326 1062 LINE",
"206 1760 LINE",
"63 1760 LINE",
"376 0 LINE",
"531 0 LINE",
"815 1760 LINE"
);
}
);
width = 878;
}
);
unicode = 0056;
},
{
glyphname = W;
lastChange = "2013-01-05 06:37:19 -0800";
layers = (
{
anchors = (
{
name = top;
position = "{679, 1760}";
}
);
layerId = "7DA9E391-A28A-4B33-B824-B8724EAC872C";
name = "Regular Condensed";
paths = (
{
closed = 1;
nodes = (
"1127 1760 LINE",
"979 322 LINE",
"744 1760 LINE",
"620 1760 LINE",
"400 322 LINE",
"216 1760 LINE",
"70 1760 LINE",
"319 0 LINE",
"456 0 LINE",
"690 1448 LINE",
"908 0 LINE",
"1055 0 LINE",
"1268 1760 LINE"
);
}
);
width = 1338;
}
);
leftKerningGroup = W;
rightKerningGroup = W;
unicode = 0057;
},
{
glyphname = X;
lastChange = "2013-01-01 02:52:26 -0800";
layers = (
{
layerId = "7DA9E391-A28A-4B33-B824-B8724EAC872C";
name = "Regular Condensed";
paths = (
{
closed = 1;
nodes = (
"557 1760 LINE",
"358 950 LINE",
"315 950 LINE",
"74 0 LINE",
"198 0 LINE",
"398 797 LINE",
"447 804 LINE",
"681 1760 LINE"
);
},
{
closed = 1;
nodes = (
"89 1760 LINE",
"545 0 LINE",
"678 0 LINE",
"226 1760 LINE"
);
}
);
width = 754;
}
);
unicode = 0058;
},
{
glyphname = Y;
lastChange = "2013-01-05 06:17:37 -0800";
layers = (
{
anchors = (
{
name = top;
position = "{409, 1760}";
}
);
layerId = "7DA9E391-A28A-4B33-B824-B8724EAC872C";
name = "Regular Condensed";
paths = (
{
closed = 1;
nodes = (
"624 1760 LINE",
"418 982 LINE",
"415 982 LINE",
"174 1760 LINE",
"24 1760 LINE",
"342 772 LINE",
"342 0 LINE",
"491 0 LINE",
"491 773 LINE",
"778 1760 LINE"
);
}
);
width = 802;
}
);
leftKerningGroup = Y;
rightKerningGroup = Y;
unicode = 0059;
},
{
glyphname = Z;
lastChange = "2013-01-05 06:17:07 -0800";
layers = (
{
anchors = (
{
name = top;
position = "{393, 1760}";
}
);
layerId = "7DA9E391-A28A-4B33-B824-B8724EAC872C";
name = "Regular Condensed";
paths = (
{
closed = 1;
nodes = (
"121 1760 LINE",
"121 1644 LINE",
"451 1644 LINE",
"112 125 LINE",
"112 0 LINE",
"597 0 LINE",
"597 118 LINE",
"262 118 LINE",
"603 1658 LINE",
"603 1760 LINE"
);
}
);
width = 691;
}
);
leftKerningGroup = Z;
rightKerningGroup = Z;
unicode = 005A;
},
{
glyphname = a;
lastChange = "2013-01-01 10:36:24 -0800";
layers = (
{
anchors = (
{
name = ogonek;
position = "{786, 10}";
},
{
name = top;
position = "{455, 1500}";
}
);
layerId = "7DA9E391-A28A-4B33-B824-B8724EAC872C";
name = "Regular Condensed";
paths = (
{
closed = 1;
nodes = (
"171 1518 OFFCURVE",
"162 1292 OFFCURVE",
"162 1051 CURVE SMOOTH",
"162 1011 LINE",
"312 1011 LINE",
"312 1048 LINE SMOOTH",
"312 1293 OFFCURVE",
"325 1387 OFFCURVE",
"450 1387 CURVE SMOOTH",
"578 1387 OFFCURVE",
"580 1288 OFFCURVE",
"580 1058 CURVE SMOOTH",
"580 211 LINE",
"557 170 OFFCURVE",
"488 113 OFFCURVE",
"410 113 CURVE SMOOTH",
"314 113 OFFCURVE",
"292 190 OFFCURVE",
"292 390 CURVE SMOOTH",
"292 509 LINE SMOOTH",
"292 708 OFFCURVE",
"334 727 OFFCURVE",
"604 848 CURVE",
"604 966 LINE",
"349 855 OFFCURVE",
"144 789 OFFCURVE",
"144 569 CURVE SMOOTH",
"144 377 LINE SMOOTH",
"144 127 OFFCURVE",
"224 -11 OFFCURVE",
"383 -11 CURVE SMOOTH",
"506 -11 OFFCURVE",
"568 75 OFFCURVE",
"580 112 CURVE",
"580 0 LINE",
"729 0 LINE",
"729 976 LINE SMOOTH",
"729 1327 OFFCURVE",
"733 1518 OFFCURVE",
"450 1518 CURVE SMOOTH"
);
}
);
width = 874;
}
);
leftKerningGroup = a;
rightKerningGroup = a;
unicode = 0061;
},
{
glyphname = ae;
lastChange = "2013-01-01 02:52:26 -0800";
layers = (
{
anchors = (
{
name = top;
position = "{782, 506}";
}
);
layerId = "7DA9E391-A28A-4B33-B824-B8724EAC872C";
name = "Regular Condensed";
paths = (
{
closed = 1;
nodes = (
"775 1518 OFFCURVE",
"705 1485 OFFCURVE",
"659 1427 CURVE",
"629 1487 OFFCURVE",
"570 1518 OFFCURVE",
"454 1518 CURVE SMOOTH",
"175 1518 OFFCURVE",
"166 1292 OFFCURVE",
"166 1051 CURVE SMOOTH",
"166 1053 OFFCURVE",
"166 1010 OFFCURVE",
"166 1011 CURVE",
"316 1011 LINE",
"316 1047 LINE SMOOTH",
"316 1291 OFFCURVE",
"328 1388 OFFCURVE",
"454 1388 CURVE SMOOTH",
"581 1388 OFFCURVE",
"584 1296 OFFCURVE",
"584 1065 CURVE SMOOTH",
"584 1069 OFFCURVE",
"584 956 OFFCURVE",
"584 956 CURVE",
"341 849 OFFCURVE",
"147 781 OFFCURVE",
"148 566 CURVE SMOOTH",
"148 567 OFFCURVE",
"148 374 OFFCURVE",
"148 375 CURVE SMOOTH",
"148 128 OFFCURVE",
"219 -11 OFFCURVE",
"376 -11 CURVE SMOOTH",
"469 -11 OFFCURVE",
"583 58 OFFCURVE",
"630 103 CURVE",
"674 24 OFFCURVE",
"745 -18 OFFCURVE",
"872 -18 CURVE SMOOTH",
"1149 -18 OFFCURVE",
"1149 201 OFFCURVE",
"1149 505 CURVE SMOOTH",
"1149 556 LINE",
"1004 556 LINE",
"1004 556 OFFCURVE",
"1004 433 OFFCURVE",
"1004 439 CURVE SMOOTH",
"1004 231 OFFCURVE",
"997 113 OFFCURVE",
"875 113 CURVE SMOOTH",
"742 113 OFFCURVE",
"733 220 OFFCURVE",
"733 443 CURVE SMOOTH",
"733 754 LINE",
"1154 754 LINE",
"1154 748 OFFCURVE",
"1153 1002 OFFCURVE",
"1153 1002 CURVE SMOOTH",
"1153 1292 OFFCURVE",
"1150 1518 OFFCURVE",
"881 1518 CURVE SMOOTH"
);
},
{
closed = 1;
nodes = (
"584 211 LINE",
"561 170 OFFCURVE",
"492 112 OFFCURVE",
"414 112 CURVE SMOOTH",
"318 112 OFFCURVE",
"296 189 OFFCURVE",
"296 390 CURVE SMOOTH",
"296 511 LINE SMOOTH",
"296 702 OFFCURVE",
"336 727 OFFCURVE",
"584 840 CURVE"
);
},
{
closed = 1;
nodes = (
"1007 1387 OFFCURVE",
"1004 1273 OFFCURVE",
"1004 1068 CURVE SMOOTH",
"1004 874 LINE",
"733 874 LINE",
"733 1063 LINE SMOOTH",
"733 1257 OFFCURVE",
"751 1387 OFFCURVE",
"881 1387 CURVE SMOOTH"
);
}
);
width = 1283;
}
);
unicode = 00E6;
},
{
glyphname = b;
lastChange = "2013-01-04 05:14:50 -0800";
layers = (
{
anchors = (
{
name = top;
position = "{483, 1760}";
}
);
layerId = "7DA9E391-A28A-4B33-B824-B8724EAC872C";
name = "Regular Condensed";
paths = (
{
closed = 1;
nodes = (
"160 1783 LINE",
"160 0 LINE",
"309 0 LINE",
"309 114 LINE",
"350 19 OFFCURVE",
"433 -11 OFFCURVE",
"510 -11 CURVE SMOOTH",
"717 -11 OFFCURVE",
"746 204 OFFCURVE",
"746 490 CURVE SMOOTH",
"746 1012 LINE SMOOTH",
"746 1297 OFFCURVE",
"708 1528 OFFCURVE",
"480 1518 CURVE SMOOTH",
"407 1515 OFFCURVE",
"324 1455 OFFCURVE",
"309 1372 CURVE",
"309 1783 LINE"
);
},
{
closed = 1;
nodes = (
"585 1386 OFFCURVE",
"597 1258 OFFCURVE",
"597 1061 CURVE SMOOTH",
"597 466 LINE SMOOTH",
"597 214 OFFCURVE",
"569 116 OFFCURVE",
"460 115 CURVE SMOOTH",
"335 115 OFFCURVE",
"309 221 OFFCURVE",
"309 460 CURVE SMOOTH",
"309 1059 LINE SMOOTH",
"309 1352 OFFCURVE",
"371 1386 OFFCURVE",
"467 1386 CURVE SMOOTH"
);
}
);
width = 874;
}
);
leftKerningGroup = b;
rightKerningGroup = b;
unicode = 0062;
},
{
glyphname = c;
lastChange = "2013-01-05 06:25:01 -0800";
layers = (
{
anchors = (
{
name = bottom;
position = "{403, 0}";
},
{
name = top;
position = "{425, 1500}";
}
);
layerId = "7DA9E391-A28A-4B33-B824-B8724EAC872C";
name = "Regular Condensed";
paths = (
{
closed = 1;
nodes = (
"163 1518 OFFCURVE",
"128 1300 OFFCURVE",
"128 1028 CURVE SMOOTH",
"128 511 LINE SMOOTH",
"128 202 OFFCURVE",
"145 -18 OFFCURVE",
"418 -18 CURVE SMOOTH",
"702 -18 OFFCURVE",
"700 205 OFFCURVE",
"700 517 CURVE SMOOTH",
"700 562 LINE",
"549 562 LINE",
"549 449 LINE SMOOTH",
"549 239 OFFCURVE",
"544 119 OFFCURVE",
"419 119 CURVE SMOOTH",
"287 119 OFFCURVE",
"277 222 OFFCURVE",
"277 455 CURVE SMOOTH",
"277 1057 LINE SMOOTH",
"277 1254 OFFCURVE",
"292 1381 OFFCURVE",
"426 1381 CURVE SMOOTH",
"550 1381 OFFCURVE",
"549 1274 OFFCURVE",
"549 1065 CURVE SMOOTH",
"549 973 LINE",
"700 973 LINE",
"700 1020 LINE SMOOTH",
"700 1314 OFFCURVE",
"698 1518 OFFCURVE",
"425 1518 CURVE SMOOTH"
);
}
);
width = 791;
}
);
leftKerningGroup = c;
rightKerningGroup = c;
unicode = 0063;
},
{
glyphname = d;
lastChange = "2013-01-01 14:05:11 -0800";
layers = (
{
anchors = (
{
name = center;
position = "{607, 1631}";
},
{
name = top;
position = "{384, 1760}";
}
);
layerId = "7DA9E391-A28A-4B33-B824-B8724EAC872C";
name = "Regular Condensed";
paths = (
{
closed = 1;
nodes = (
"564 1783 LINE",
"564 1393 LINE",
"538 1459 OFFCURVE",
"476 1518 OFFCURVE",
"405 1518 CURVE SMOOTH",
"172 1518 OFFCURVE",
"128 1298 OFFCURVE",
"128 1008 CURVE SMOOTH",
"128 481 LINE SMOOTH",
"128 200 OFFCURVE",
"163 -11 OFFCURVE",
"365 -11 CURVE SMOOTH",
"439 -11 OFFCURVE",
"523 18 OFFCURVE",
"564 114 CURVE",
"564 0 LINE",
"714 0 LINE",
"714 1783 LINE"
);
},
{
closed = 1;
nodes = (
"542 1385 OFFCURVE",
"565 1279 OFFCURVE",
"565 1037 CURVE SMOOTH",
"565 434 LINE SMOOTH",
"565 142 OFFCURVE",
"503 114 OFFCURVE",
"409 114 CURVE SMOOTH",
"290 114 OFFCURVE",
"278 243 OFFCURVE",
"278 436 CURVE SMOOTH",
"278 1030 LINE SMOOTH",
"278 1285 OFFCURVE",
"307 1384 OFFCURVE",
"416 1385 CURVE SMOOTH"
);
}
);
width = 870;
}
);
leftKerningGroup = d;
rightKerningGroup = d;
unicode = 0064;
},
{
glyphname = eth;
lastChange = "2013-01-01 02:52:26 -0800";
layers = (
{
layerId = "7DA9E391-A28A-4B33-B824-B8724EAC872C";
name = "Regular Condensed";
paths = (
{
closed = 1;
nodes = (
"295 1640 LINE",
"371 1644 OFFCURVE",
"473 1619 OFFCURVE",
"545 1534 CURVE",
"320 1399 LINE",
"373 1299 LINE",
"598 1434 LINE",
"610 1392 OFFCURVE",
"618 1000 OFFCURVE",
"618 1009 CURVE",
"575 1070 OFFCURVE",
"494 1101 OFFCURVE",
"435 1103 CURVE SMOOTH",
"183 1114 OFFCURVE",
"113 959 OFFCURVE",
"113 557 CURVE SMOOTH",
"113 442 LINE SMOOTH",
"113 145 OFFCURVE",
"179 -20 OFFCURVE",
"433 -20 CURVE SMOOTH",
"706 -20 OFFCURVE",
"765 212 OFFCURVE",
"765 506 CURVE SMOOTH",
"765 958 LINE",
"765 926 OFFCURVE",
"755 1456 OFFCURVE",
"734 1516 CURVE",
"933 1635 LINE",
"880 1735 LINE",
"680 1616 LINE",
"591 1732 OFFCURVE",
"452 1783 OFFCURVE",
"295 1780 CURVE"
);
},
{
closed = 1;
nodes = (
"521 978 OFFCURVE",
"597 930 OFFCURVE",
"616 926 CURVE",
"616 505 LINE SMOOTH",
"616 227 OFFCURVE",
"583 107 OFFCURVE",
"433 107 CURVE SMOOTH",
"299 107 OFFCURVE",
"262 170 OFFCURVE",
"262 446 CURVE SMOOTH",
"262 545 LINE SMOOTH",
"262 869 OFFCURVE",
"291 978 OFFCURVE",
"427 978 CURVE SMOOTH"
);
}
);
width = 926;
}
);
unicode = 00F0;
},
{
glyphname = e;
lastChange = "2013-01-01 03:45:18 -0800";
layers = (
{
anchors = (
{
name = bottom;
position = "{399, 0}";
},
{
name = ogonek;
position = "{631, 10}";
},
{
name = top;
position = "{422, 1500}";
}
);
layerId = "7DA9E391-A28A-4B33-B824-B8724EAC872C";
name = "Regular Condensed";
paths = (
{
closed = 1;
nodes = (
"156 1518 OFFCURVE",
"128 1296 OFFCURVE",
"128 1014 CURVE SMOOTH",
"128 511 LINE SMOOTH",
"128 201 OFFCURVE",
"146 -18 OFFCURVE",
"421 -18 CURVE SMOOTH",
"696 -18 OFFCURVE",
"694 204 OFFCURVE",
"694 507 CURVE SMOOTH",
"694 556 LINE",
"549 556 LINE",
"549 444 LINE SMOOTH",
"549 236 OFFCURVE",
"542 113 OFFCURVE",
"419 113 CURVE SMOOTH",
"289 113 OFFCURVE",
"277 220 OFFCURVE",
"277 450 CURVE SMOOTH",
"277 752 LINE",
"698 752 LINE",
"698 1002 LINE SMOOTH",
"698 1292 OFFCURVE",
"695 1518 OFFCURVE",
"425 1518 CURVE SMOOTH"
);
},
{
closed = 1;
nodes = (
"551 1387 OFFCURVE",
"549 1273 OFFCURVE",
"549 1068 CURVE SMOOTH",
"549 877 LINE",
"277 877 LINE",
"277 1060 LINE SMOOTH",
"277 1257 OFFCURVE",
"295 1387 OFFCURVE",
"426 1387 CURVE SMOOTH"
);
}
);
width = 808;
}
);
leftKerningGroup = e;
rightKerningGroup = e;
unicode = 0065;
},
{
glyphname = f;
lastChange = "2013-01-01 14:05:39 -0800";
layers = (
{
anchors = (
{
name = top;
position = "{393, 1760}";
}
);
layerId = "7DA9E391-A28A-4B33-B824-B8724EAC872C";
name = "Regular Condensed";
paths = (
{
closed = 1;
nodes = (
"277 1789 OFFCURVE",
"224 1688 OFFCURVE",
"224 1512 CURVE SMOOTH",
"224 1442 LINE",
"84 1442 LINE",
"84 1329 LINE",
"224 1329 LINE",
"224 0 LINE",
"374 0 LINE",
"374 1329 LINE",
"573 1329 LINE",
"573 1442 LINE",
"374 1442 LINE",
"374 1534 LINE SMOOTH",
"374 1606 OFFCURVE",
"381 1657 OFFCURVE",
"492 1657 CURVE SMOOTH",
"514 1657 OFFCURVE",
"541 1655 OFFCURVE",
"573 1650 CURVE",
"573 1771 LINE",
"576 1770 OFFCURVE",
"514 1789 OFFCURVE",
"438 1789 CURVE SMOOTH"
);
}
);
width = 610;
}
);
leftKerningGroup = f;
rightKerningGroup = f;
unicode = 0066;
},
{
glyphname = g;
lastChange = "2013-01-04 04:14:11 -0800";
layers = (
{
anchors = (
{
name = top;
position = "{450, 1500}";
}
);
layerId = "7DA9E391-A28A-4B33-B824-B8724EAC872C";
name = "Regular Condensed";
paths = (
{
closed = 1;
nodes = (
"201 1522 OFFCURVE",
"126 1299 OFFCURVE",
"126 1013 CURVE SMOOTH",
"126 632 LINE SMOOTH",
"126 345 OFFCURVE",
"170 127 OFFCURVE",
"379 127 CURVE SMOOTH",
"453 127 OFFCURVE",
"520 148 OFFCURVE",
"563 245 CURVE",
"563 80 LINE SMOOTH",
"563 -33 OFFCURVE",
"509 -101 OFFCURVE",
"425 -105 CURVE SMOOTH",
"312 -109 OFFCURVE",
"237 -68 OFFCURVE",
"189 -32 CURVE",
"132 -147 LINE",
"197 -197 OFFCURVE",
"311 -238 OFFCURVE",
"421 -232 CURVE SMOOTH",
"671 -220 OFFCURVE",
"712 -11 OFFCURVE",
"712 97 CURVE SMOOTH",
"712 1500 LINE",
"563 1500 LINE",
"563 1412 LINE",
"534 1489 OFFCURVE",
"471 1517 OFFCURVE",
"404 1518 CURVE SMOOTH"
);
},
{
closed = 1;
nodes = (
"544 1387 OFFCURVE",
"563 1280 OFFCURVE",
"563 1050 CURVE SMOOTH",
"563 614 LINE SMOOTH",
"563 314 OFFCURVE",
"523 255 OFFCURVE",
"434 255 CURVE SMOOTH",
"307 255 OFFCURVE",
"275 364 OFFCURVE",
"275 611 CURVE SMOOTH",
"275 1052 LINE SMOOTH",
"275 1251 OFFCURVE",
"289 1387 OFFCURVE",
"422 1387 CURVE SMOOTH"
);
}
);
width = 860;
}
);
leftKerningGroup = g;
rightKerningGroup = g;
unicode = 0067;
},
{
glyphname = h;
lastChange = "2013-01-04 05:14:02 -0800";
layers = (
{
anchors = (
{
name = center;
position = "{240, 1634}";
},
{
name = top;
position = "{457, 1760}";
}
);
layerId = "7DA9E391-A28A-4B33-B824-B8724EAC872C";
name = "Regular Condensed";
paths = (
{
closed = 1;
nodes = (
"160 1783 LINE",
"160 0 LINE",
"309 0 LINE",
"309 1191 LINE SMOOTH",
"309 1340 OFFCURVE",
"402 1381 OFFCURVE",
"485 1381 CURVE SMOOTH",
"565 1381 OFFCURVE",
"623 1346 OFFCURVE",
"623 1201 CURVE SMOOTH",
"623 0 LINE",
"773 0 LINE",
"773 1211 LINE SMOOTH",
"773 1425 OFFCURVE",
"681 1519 OFFCURVE",
"553 1519 CURVE SMOOTH",
"436 1519 OFFCURVE",
"335 1438 OFFCURVE",
"309 1353 CURVE",
"309 1783 LINE"
);
}
);
width = 923;
}
);
leftKerningGroup = h;
rightKerningGroup = h;
unicode = 0068;
},
{
glyphname = hbar;
lastChange = "2013-01-01 02:52:30 -0800";
layers = (
{
components = (
{
name = h;
transform = "{1, 0, 0, 1, 0, 0}";
}
);
layerId = "7DA9E391-A28A-4B33-B824-B8724EAC872C";
name = "Regular Condensed";
paths = (
{
closed = 1;
nodes = (
"0 1682 LINE",
"0 1561 LINE",
"465 1561 LINE",
"465 1682 LINE"
);
}
);
width = 924;
}
);
unicode = 0127;
},
{
glyphname = i;
lastChange = "2013-01-01 02:52:26 -0800";
layers = (
{
layerId = "7DA9E391-A28A-4B33-B824-B8724EAC872C";
name = "Regular Condensed";
paths = (
{
closed = 1;
nodes = (
"162 1500 LINE",
"162 0 LINE",
"312 0 LINE",
"312 1500 LINE"
);
},
{
closed = 1;
nodes = (
"162 1800 LINE",
"162 1615 LINE",
"312 1615 LINE",
"312 1800 LINE"
);
}
);
width = 474;
}
);
leftKerningGroup = i;
rightKerningGroup = i;
unicode = 0069;
},
{
glyphname = dotlessi;
lastChange = "2013-01-01 02:52:26 -0800";
layers = (
{
anchors = (
{
name = ogonek;
position = "{395, 10}";
},
{
name = top;
position = "{227, 1500}";
}
);
layerId = "7DA9E391-A28A-4B33-B824-B8724EAC872C";
name = "Regular Condensed";
paths = (
{
closed = 1;
nodes = (
"162 1500 LINE",
"162 0 LINE",
"312 0 LINE",
"312 1500 LINE"
);
}
);
width = 474;
}
);
unicode = 0131;
},
{
glyphname = j;
lastChange = "2013-01-01 02:52:26 -0800";
layers = (
{
layerId = "7DA9E391-A28A-4B33-B824-B8724EAC872C";
name = "Regular Condensed";
paths = (
{
closed = 1;
nodes = (
"194 1500 LINE",
"194 -44 LINE SMOOTH",
"194 -81 OFFCURVE",
"186 -106 OFFCURVE",
"157 -111 CURVE SMOOTH",
"127 -115 OFFCURVE",
"85 -110 OFFCURVE",
"86 -110 CURVE",
"86 -218 LINE",
"84 -217 OFFCURVE",
"149 -230 OFFCURVE",
"220 -221 CURVE SMOOTH",
"252 -216 OFFCURVE",
"343 -190 OFFCURVE",
"343 -34 CURVE SMOOTH",
"343 1500 LINE"
);
},
{
closed = 1;
nodes = (
"195 1787 LINE",
"195 1612 LINE",
"344 1612 LINE",
"344 1787 LINE"
);
}
);
width = 504;
}
);
leftKerningGroup = j;
rightKerningGroup = j;
unicode = 006A;
},
{
glyphname = uni0237;
lastChange = "2013-01-01 02:52:26 -0800";
layers = (
{
anchors = (
{
name = top;
position = "{290, 1500}";
}
);
layerId = "7DA9E391-A28A-4B33-B824-B8724EAC872C";
name = "Regular Condensed";
paths = (
{
closed = 1;
nodes = (
"203 1500 LINE",
"203 24 LINE SMOOTH",
"203 -13 OFFCURVE",
"195 -38 OFFCURVE",
"166 -43 CURVE SMOOTH",
"136 -46 OFFCURVE",
"94 -42 OFFCURVE",
"95 -42 CURVE",
"95 -150 LINE",
"92 -148 OFFCURVE",
"158 -162 OFFCURVE",
"229 -153 CURVE SMOOTH",
"261 -147 OFFCURVE",
"352 -122 OFFCURVE",
"352 34 CURVE SMOOTH",
"352 1500 LINE"
);
}
);
width = 513;
}
);
unicode = 0237;
},
{
glyphname = k;
lastChange = "2013-01-01 02:52:26 -0800";
layers = (
{
anchors = (
{
name = bottom;
position = "{400, 0}";
}
);
layerId = "7DA9E391-A28A-4B33-B824-B8724EAC872C";
name = "Regular Condensed";
paths = (
{
closed = 1;
nodes = (
"641 1500 LINE",
"306 751 LINE",
"652 0 LINE",
"808 0 LINE",
"449 756 LINE",
"790 1500 LINE"
);
},
{
closed = 1;
nodes = (
"161 1783 LINE",
"161 0 LINE",
"310 0 LINE",
"310 1783 LINE"
);
}
);
width = 799;
}
);
leftKerningGroup = k;
rightKerningGroup = k;
unicode = 006B;
},
{
glyphname = kgreenlandic;
lastChange = "2013-01-01 02:52:26 -0800";
layers = (
{
layerId = "7DA9E391-A28A-4B33-B824-B8724EAC872C";
name = "Regular Condensed";
paths = (
{
closed = 1;
nodes = (
"641 1500 LINE",
"306 751 LINE",
"652 0 LINE",
"808 0 LINE",
"449 756 LINE",
"790 1500 LINE"
);
},
{
closed = 1;
nodes = (
"161 1500 LINE",
"161 0 LINE",
"310 0 LINE",
"310 1500 LINE"
);
}
);
width = 799;
}
);
unicode = 0138;
},
{
glyphname = l;
lastChange = "2013-01-01 14:01:46 -0800";
layers = (
{
anchors = (
{
name = bottom;
position = "{235, 0}";
},
{
name = center;
position = "{447, 1500}";
},
{
name = top;
position = "{235, 1760}";
}
);
layerId = "7DA9E391-A28A-4B33-B824-B8724EAC872C";
name = "Regular Condensed";
paths = (
{
closed = 1;
nodes = (
"160 1783 LINE",
"160 0 LINE",
"310 0 LINE",
"310 1783 LINE"
);
}
);
width = 470;
}
);
leftKerningGroup = l;
rightKerningGroup = l;
unicode = 006C;
},
{
glyphname = lslash;
lastChange = "2013-01-01 02:52:30 -0800";
layers = (
{
components = (
{
name = l;
transform = "{1, 0, 0, 1, 94, 0}";
}
);
layerId = "7DA9E391-A28A-4B33-B824-B8724EAC872C";
name = "Regular Condensed";
paths = (
{
closed = 1;
nodes = (
"99 921 LINE",
"99 778 LINE",
"610 1010 LINE",
"610 1153 LINE"
);
}
);
width = 731;
}
);
unicode = 0142;
},
{
glyphname = m;
lastChange = "2013-01-04 05:14:29 -0800";
layers = (
{
anchors = (
{
name = top;
position = "{730, 1500}";
}
);
layerId = "7DA9E391-A28A-4B33-B824-B8724EAC872C";
name = "Regular Condensed";
paths = (
{
closed = 1;
nodes = (
"424 1519 OFFCURVE",
"334 1436 OFFCURVE",
"309 1351 CURVE",
"309 1500 LINE",
"160 1500 LINE",
"160 0 LINE",
"309 0 LINE",
"309 1209 LINE SMOOTH",
"309 1324 OFFCURVE",
"370 1381 OFFCURVE",
"475 1381 CURVE SMOOTH",
"554 1381 OFFCURVE",
"611 1348 OFFCURVE",
"611 1226 CURVE SMOOTH",
"611 0 LINE",
"760 0 LINE",
"760 1217 LINE SMOOTH",
"760 1420 OFFCURVE",
"671 1519 OFFCURVE",
"538 1519 CURVE SMOOTH"
);
},
{
closed = 1;
nodes = (
"877 1519 OFFCURVE",
"775 1448 OFFCURVE",
"731 1351 CURVE SMOOTH",
"759 1218 LINE",
"759 1363 OFFCURVE",
"842 1381 OFFCURVE",
"925 1381 CURVE SMOOTH",
"1006 1381 OFFCURVE",
"1062 1345 OFFCURVE",
"1062 1226 CURVE SMOOTH",
"1062 0 LINE",
"1212 0 LINE",
"1212 1217 LINE SMOOTH",
"1212 1429 OFFCURVE",
"1117 1519 OFFCURVE",
"993 1519 CURVE SMOOTH"
);
}
);
width = 1362;
}
);
leftKerningGroup = m;
rightKerningGroup = m;
unicode = 006D;
},
{
glyphname = n;
lastChange = "2013-01-04 05:14:11 -0800";
layers = (
{
anchors = (
{
name = bottom;
position = "{461, 0}";
},
{
name = top;
position = "{461, 1500}";
}
);
layerId = "7DA9E391-A28A-4B33-B824-B8724EAC872C";
name = "Regular Condensed";
paths = (
{
closed = 1;
nodes = (
"434 1519 OFFCURVE",
"335 1438 OFFCURVE",
"309 1353 CURVE",
"309 1500 LINE",
"160 1500 LINE",
"160 0 LINE",
"309 0 LINE",
"309 1220 LINE SMOOTH",
"309 1354 OFFCURVE",
"395 1387 OFFCURVE",
"478 1387 CURVE SMOOTH",
"558 1387 OFFCURVE",
"623 1346 OFFCURVE",
"623 1223 CURVE SMOOTH",
"623 0 LINE",
"772 0 LINE",
"772 1211 LINE SMOOTH",
"772 1425 OFFCURVE",
"680 1519 OFFCURVE",
"551 1519 CURVE SMOOTH"
);
}
);
width = 922;
}
);
leftKerningGroup = n;
rightKerningGroup = n;
unicode = 006E;
},
{
glyphname = o;
lastChange = "2013-01-01 03:43:23 -0800";
layers = (
{
anchors = (
{
name = top;
position = "{423, 1500}";
}
);
layerId = "7DA9E391-A28A-4B33-B824-B8724EAC872C";
name = "Regular Condensed";
paths = (
{
closed = 1;
nodes = (
"157 1518 OFFCURVE",
"128 1300 OFFCURVE",
"128 1018 CURVE SMOOTH",
"128 515 LINE SMOOTH",
"128 204 OFFCURVE",
"149 -18 OFFCURVE",
"426 -18 CURVE SMOOTH",
"705 -18 OFFCURVE",
"717 209 OFFCURVE",
"717 515 CURVE SMOOTH",
"717 1018 LINE SMOOTH",
"717 1301 OFFCURVE",
"696 1518 OFFCURVE",
"426 1518 CURVE SMOOTH"
);
},
{
closed = 1;
nodes = (
"551 1387 OFFCURVE",
"568 1250 OFFCURVE",
"568 1053 CURVE SMOOTH",
"568 463 LINE SMOOTH",
"568 253 OFFCURVE",
"550 113 OFFCURVE",
"426 113 CURVE SMOOTH",
"293 113 OFFCURVE",
"277 253 OFFCURVE",
"277 463 CURVE SMOOTH",
"277 1053 LINE SMOOTH",
"277 1250 OFFCURVE",
"291 1387 OFFCURVE",
"426 1387 CURVE SMOOTH"
);
}
);
width = 845;
}
);
leftKerningGroup = o;
rightKerningGroup = o;
unicode = 006F;
},
{
glyphname = oslash;
lastChange = "2013-01-01 02:52:30 -0800";
layers = (
{
anchors = (
{
name = top;
position = "{443, 1500}";
}
);
components = (
{
name = o;
transform = "{1, 0, 0, 1, 0, 0}";
}
);
layerId = "7DA9E391-A28A-4B33-B824-B8724EAC872C";
name = "Regular Condensed";
paths = (
{
closed = 1;
nodes = (
"134 -145 LINE",
"234 -173 LINE",
"744 1644 LINE",
"643 1672 LINE"
);
}
);
width = 879;
}
);
unicode = 00F8;
},
{
glyphname = oe;
lastChange = "2013-01-01 02:52:26 -0800";
layers = (
{
anchors = (
{
name = top;
position = "{757, 0}";
}
);
layerId = "7DA9E391-A28A-4B33-B824-B8724EAC872C";
name = "Regular Condensed";
paths = (
{
closed = 1;
nodes = (
"769 1518 OFFCURVE",
"700 1467 OFFCURVE",
"655 1396 CURVE",
"613 1467 OFFCURVE",
"544 1518 OFFCURVE",
"437 1518 CURVE SMOOTH",
"168 1518 OFFCURVE",
"140 1300 OFFCURVE",
"140 1018 CURVE SMOOTH",
"140 515 LINE SMOOTH",
"140 204 OFFCURVE",
"160 -18 OFFCURVE",
"437 -18 CURVE SMOOTH",
"539 -18 OFFCURVE",
"605 34 OFFCURVE",
"648 106 CURVE",
"692 33 OFFCURVE",
"760 -18 OFFCURVE",
"871 -18 CURVE SMOOTH",
"1146 -18 OFFCURVE",
"1144 202 OFFCURVE",
"1144 505 CURVE SMOOTH",
"1144 556 LINE",
"999 556 LINE",
"999 556 OFFCURVE",
"999 433 OFFCURVE",
"999 439 CURVE SMOOTH",
"999 231 OFFCURVE",
"992 113 OFFCURVE",
"870 113 CURVE SMOOTH",
"739 113 OFFCURVE",
"728 220 OFFCURVE",
"728 450 CURVE SMOOTH",
"728 449 OFFCURVE",
"728 754 OFFCURVE",
"728 754 CURVE",
"1149 754 LINE",
"1149 748 OFFCURVE",
"1149 1002 OFFCURVE",
"1149 1002 CURVE SMOOTH",
"1149 1292 OFFCURVE",
"1145 1518 OFFCURVE",
"876 1518 CURVE SMOOTH"
);
},
{
closed = 1;
nodes = (
"562 1388 OFFCURVE",
"579 1250 OFFCURVE",
"579 1053 CURVE SMOOTH",
"579 463 LINE SMOOTH",
"579 253 OFFCURVE",
"562 113 OFFCURVE",
"437 113 CURVE SMOOTH",
"304 113 OFFCURVE",
"289 253 OFFCURVE",
"289 463 CURVE SMOOTH",
"289 1053 LINE SMOOTH",
"289 1250 OFFCURVE",
"303 1388 OFFCURVE",
"437 1388 CURVE SMOOTH"
);
},
{
closed = 1;
nodes = (
"1003 1387 OFFCURVE",
"1000 1273 OFFCURVE",
"1000 1068 CURVE SMOOTH",
"1000 874 LINE",
"729 874 LINE",
"729 871 OFFCURVE",
"729 1065 OFFCURVE",
"729 1063 CURVE SMOOTH",
"729 1259 OFFCURVE",
"747 1387 OFFCURVE",
"878 1387 CURVE SMOOTH"
);
}
);
width = 1755;
}
);
unicode = 0153;
},
{
glyphname = p;
lastChange = "2013-01-04 05:15:13 -0800";
layers = (
{
anchors = (
{
name = top;
position = "{447, 1500}";
}
);
layerId = "7DA9E391-A28A-4B33-B824-B8724EAC872C";
name = "Regular Condensed";
paths = (
{
closed = 1;
nodes = (
"430 1511 OFFCURVE",
"350 1482 OFFCURVE",
"309 1385 CURVE",
"309 1500 LINE",
"160 1500 LINE",
"160 -265 LINE",
"309 -265 LINE",
"309 108 LINE",
"335 40 OFFCURVE",
"398 -18 OFFCURVE",
"469 -18 CURVE SMOOTH",
"693 -18 OFFCURVE",
"745 194 OFFCURVE",
"745 475 CURVE SMOOTH",
"745 1013 LINE SMOOTH",
"745 1298 OFFCURVE",
"713 1511 OFFCURVE",
"508 1511 CURVE SMOOTH"
);
},
{
closed = 1;
nodes = (
"585 1386 OFFCURVE",
"596 1259 OFFCURVE",
"596 1061 CURVE SMOOTH",
"596 468 LINE SMOOTH",
"596 214 OFFCURVE",
"570 116 OFFCURVE",
"461 115 CURVE SMOOTH",
"335 115 OFFCURVE",
"309 222 OFFCURVE",
"309 463 CURVE SMOOTH",
"309 1059 LINE SMOOTH",
"309 1351 OFFCURVE",
"370 1386 OFFCURVE",
"467 1386 CURVE SMOOTH"
);
}
);
width = 873;
}
);
leftKerningGroup = p;
rightKerningGroup = p;
unicode = 0070;
},
{
glyphname = thorn;
lastChange = "2013-01-01 02:52:26 -0800";
layers = (
{
layerId = "7DA9E391-A28A-4B33-B824-B8724EAC872C";
name = "Regular Condensed";
paths = (
{
closed = 1;
nodes = (
"160 1783 LINE",
"160 -265 LINE",
"310 -265 LINE",
"310 108 LINE",
"336 40 OFFCURVE",
"399 -18 OFFCURVE",
"470 -18 CURVE SMOOTH",
"694 -18 OFFCURVE",
"747 194 OFFCURVE",
"747 475 CURVE SMOOTH",
"747 1013 LINE SMOOTH",
"747 1298 OFFCURVE",
"715 1511 OFFCURVE",
"509 1511 CURVE SMOOTH",
"431 1511 OFFCURVE",
"351 1482 OFFCURVE",
"310 1385 CURVE",
"310 1783 LINE"
);
},
{
closed = 1;
nodes = (
"586 1387 OFFCURVE",
"597 1260 OFFCURVE",
"597 1062 CURVE SMOOTH",
"597 468 LINE SMOOTH",
"597 214 OFFCURVE",
"571 116 OFFCURVE",
"461 115 CURVE SMOOTH",
"336 115 OFFCURVE",
"310 222 OFFCURVE",
"310 463 CURVE SMOOTH",
"310 1059 LINE SMOOTH",
"310 1351 OFFCURVE",
"370 1387 OFFCURVE",
"468 1387 CURVE SMOOTH"
);
}
);
width = 882;
}
);
unicode = 00FE;
},
{
glyphname = q;
lastChange = "2013-01-04 05:15:45 -0800";
layers = (
{
layerId = "7DA9E391-A28A-4B33-B824-B8724EAC872C";
name = "Regular Condensed";
paths = (
{
closed = 1;
nodes = (
"157 1511 OFFCURVE",
"128 1298 OFFCURVE",
"128 1013 CURVE SMOOTH",
"128 479 LINE SMOOTH",
"128 198 OFFCURVE",
"178 -18 OFFCURVE",
"404 -18 CURVE SMOOTH",
"475 -18 OFFCURVE",
"537 39 OFFCURVE",
"565 106 CURVE",
"565 -265 LINE",
"715 -265 LINE",
"715 1500 LINE",
"565 1500 LINE",
"565 1381 LINE",
"524 1480 OFFCURVE",
"442 1511 OFFCURVE",
"364 1511 CURVE SMOOTH"
);
},
{
closed = 1;
nodes = (
"540 1385 OFFCURVE",
"564 1276 OFFCURVE",
"564 1037 CURVE SMOOTH",
"564 441 LINE SMOOTH",
"564 147 OFFCURVE",
"502 114 OFFCURVE",
"406 114 CURVE SMOOTH",
"288 114 OFFCURVE",
"276 241 OFFCURVE",
"276 437 CURVE SMOOTH",
"276 1031 LINE SMOOTH",
"276 1286 OFFCURVE",
"303 1384 OFFCURVE",
"412 1385 CURVE SMOOTH"
);
}
);
width = 858;
}
);
unicode = 0071;
},
{
glyphname = r;
lastChange = "2013-01-01 02:52:26 -0800";
layers = (
{
anchors = (
{
name = bottom;
position = "{257, 0}";
},
{
name = top;
position = "{334, 1500}";
}
);
layerId = "7DA9E391-A28A-4B33-B824-B8724EAC872C";
name = "Regular Condensed";
paths = (
{
closed = 1;
nodes = (
"432 1518 OFFCURVE",
"344 1449 OFFCURVE",
"310 1333 CURVE",
"310 1500 LINE",
"161 1500 LINE",
"161 0 LINE",
"310 0 LINE",
"310 1246 LINE",
"391 1361 OFFCURVE",
"469 1391 OFFCURVE",
"568 1391 CURVE",
"568 1391 OFFCURVE",
"570 1518 OFFCURVE",
"565 1518 CURVE SMOOTH"
);
}
);
width = 617;
}
);
leftKerningGroup = r;
rightKerningGroup = r;
unicode = 0072;
},
{
glyphname = s;
lastChange = "2013-01-05 06:34:46 -0800";
layers = (
{
anchors = (
{
name = bottom;
position = "{379, 0}";
},
{
name = top;
position = "{398, 1500}";
}
);
layerId = "7DA9E391-A28A-4B33-B824-B8724EAC872C";
name = "Regular Condensed";
paths = (
{
closed = 1;
nodes = (
"213 1518 OFFCURVE",
"92 1409 OFFCURVE",
"92 1180 CURVE SMOOTH",
"92 1029 OFFCURVE",
"166 883 OFFCURVE",
"293 754 CURVE",
"372 674 LINE",
"481 563 OFFCURVE",
"528 446 OFFCURVE",
"528 334 CURVE SMOOTH",
"528 168 OFFCURVE",
"489 116 OFFCURVE",
"392 116 CURVE SMOOTH",
"297 116 OFFCURVE",
"254 230 OFFCURVE",
"254 433 CURVE SMOOTH",
"254 536 LINE",
"101 536 LINE",
"101 407 LINE SMOOTH",
"101 108 OFFCURVE",
"196 -20 OFFCURVE",
"405 -20 CURVE SMOOTH",
"597 -20 OFFCURVE",
"682 121 OFFCURVE",
"682 325 CURVE SMOOTH",
"682 485 OFFCURVE",
"612 635 OFFCURVE",
"483 764 CURVE SMOOTH",
"406 839 LINE SMOOTH",
"289 952 OFFCURVE",
"239 1074 OFFCURVE",
"243 1186 CURVE SMOOTH",
"248 1335 OFFCURVE",
"293 1381 OFFCURVE",
"386 1381 CURVE SMOOTH",
"476 1381 OFFCURVE",
"506 1267 OFFCURVE",
"506 1064 CURVE SMOOTH",
"506 957 LINE",
"661 957 LINE",
"661 1037 LINE SMOOTH",
"661 1386 OFFCURVE",
"577 1518 OFFCURVE",
"385 1518 CURVE SMOOTH"
);
}
);
width = 757;
}
);
leftKerningGroup = s;
rightKerningGroup = s;
unicode = 0073;
},
{
glyphname = germandbls;
lastChange = "2013-01-01 02:52:26 -0800";
layers = (
{
layerId = "7DA9E391-A28A-4B33-B824-B8724EAC872C";
name = "Regular Condensed";
paths = (
{
closed = 1;
nodes = (
"157 1781 OFFCURVE",
"153 1660 OFFCURVE",
"153 1417 CURVE SMOOTH",
"153 0 LINE",
"300 0 LINE",
"300 1500 LINE SMOOTH",
"300 1646 OFFCURVE",
"339 1687 OFFCURVE",
"453 1687 CURVE SMOOTH",
"589 1687 OFFCURVE",
"628 1646 OFFCURVE",
"628 1500 CURVE SMOOTH",
"628 1170 LINE SMOOTH",
"628 1042 OFFCURVE",
"574 1007 OFFCURVE",
"423 1007 CURVE",
"423 869 LINE",
"624 869 OFFCURVE",
"683 821 OFFCURVE",
"683 656 CURVE SMOOTH",
"683 395 LINE SMOOTH",
"683 155 OFFCURVE",
"656 127 OFFCURVE",
"414 127 CURVE",
"414 0 LINE",
"518 0 LINE SMOOTH",
"818 0 OFFCURVE",
"831 177 OFFCURVE",
"831 476 CURVE SMOOTH",
"831 553 LINE SMOOTH",
"831 819 OFFCURVE",
"778 903 OFFCURVE",
"602 945 CURVE",
"733 988 OFFCURVE",
"771 1047 OFFCURVE",
"771 1220 CURVE SMOOTH",
"771 1417 LINE SMOOTH",
"771 1700 OFFCURVE",
"708 1781 OFFCURVE",
"440 1781 CURVE SMOOTH"
);
}
);
width = 933;
}
);
unicode = 00DF;
},
{
glyphname = t;
lastChange = "2013-01-01 14:05:57 -0800";
layers = (
{
anchors = (
{
name = bottom;
position = "{400, 0}";
},
{
name = center;
position = "{486.156, 1334.88}";
},
{
name = top;
position = "{258, 1760}";
}
);
layerId = "7DA9E391-A28A-4B33-B824-B8724EAC872C";
name = "Regular Condensed";
paths = (
{
closed = 1;
nodes = (
"195 1760 LINE",
"195 1506 LINE",
"45 1506 LINE",
"45 1390 LINE",
"195 1390 LINE",
"195 217 LINE SMOOTH",
"195 48 OFFCURVE",
"224 -9 OFFCURVE",
"417 -9 CURVE SMOOTH",
"521 -9 LINE",
"521 118 LINE",
"355 118 OFFCURVE",
"345 129 OFFCURVE",
"345 209 CURVE SMOOTH",
"345 1390 LINE",
"522 1390 LINE",
"522 1506 LINE",
"345 1506 LINE",
"345 1760 LINE"
);
}
);
width = 582;
}
);
leftKerningGroup = t;
rightKerningGroup = t;
unicode = 0074;
},
{
glyphname = u;
lastChange = "2013-01-01 02:52:26 -0800";
layers = (
{
anchors = (
{
name = ogonek;
position = "{832, 10}";
},
{
name = top;
position = "{483, 1500}";
}
);
layerId = "7DA9E391-A28A-4B33-B824-B8724EAC872C";
name = "Regular Condensed";
paths = (
{
closed = 1;
nodes = (
"614 1500 LINE",
"615 303 LINE SMOOTH",
"615 190 OFFCURVE",
"552 119 OFFCURVE",
"447 119 CURVE SMOOTH",
"357 119 OFFCURVE",
"300 174 OFFCURVE",
"300 292 CURVE SMOOTH",
"300 1500 LINE",
"151 1500 LINE",
"151 285 LINE SMOOTH",
"151 47 OFFCURVE",
"293 -20 OFFCURVE",
"388 -20 CURVE SMOOTH",
"504 -20 OFFCURVE",
"591 65 OFFCURVE",
"615 150 CURVE",
"615 0 LINE",
"764 0 LINE",
"764 1500 LINE"
);
}
);
width = 924;
}
);
leftKerningGroup = u;
rightKerningGroup = u;
unicode = 0075;
},
{
glyphname = v;
lastChange = "2013-01-01 04:07:03 -0800";
layers = (
{
layerId = "7DA9E391-A28A-4B33-B824-B8724EAC872C";
name = "Regular Condensed";
paths = (
{
closed = 1;
nodes = (
"497 1500 LINE",
"387 625 LINE",
"347 259 LINE",
"337 259 LINE",
"297 624 LINE",
"179 1500 LINE",
"45 1500 LINE",
"264 0 LINE",
"413 0 LINE",
"631 1500 LINE"
);
}
);
width = 677;
}
);
unicode = 0076;
},
{
glyphname = w;
lastChange = "2013-01-01 04:07:59 -0800";
layers = (
{
anchors = (
{
name = top;
position = "{547, 1500}";
}
);
layerId = "7DA9E391-A28A-4B33-B824-B8724EAC872C";
name = "Regular Condensed";
paths = (
{
closed = 1;
nodes = (
"476 1500 LINE",
"350 614 LINE",
"320 302 LINE",
"308 302 LINE",
"284 613 LINE",
"194 1500 LINE",
"57 1500 LINE",
"233 0 LINE",
"375 0 LINE",
"577 1500 LINE"
);
},
{
closed = 1;
nodes = (
"885 1500 LINE",
"810 648 LINE",
"790 302 LINE",
"780 302 LINE",
"740 646 LINE",
"603 1500 LINE",
"523 1500 LINE",
"695 0 LINE",
"843 0 LINE",
"1017 1500 LINE"
);
}
);
width = 1075;
}
);
leftKerningGroup = w;
rightKerningGroup = w;
unicode = 0077;
},
{
glyphname = x;
lastChange = "2013-01-01 02:52:26 -0800";
layers = (
{
layerId = "7DA9E391-A28A-4B33-B824-B8724EAC872C";
name = "Regular Condensed";
paths = (
{
closed = 1;
nodes = (
"491 1500 LINE",
"286 777 LINE",
"276 777 LINE",
"34 0 LINE",
"166 0 LINE",
"374 740 LINE",
"388 740 LINE",
"633 1500 LINE"
);
},
{
closed = 1;
nodes = (
"52 1500 LINE",
"498 0 LINE",
"637 0 LINE",
"182 1500 LINE"
);
}
);
width = 670;
}
);
unicode = 0078;
},
{
glyphname = y;
lastChange = "2013-01-01 04:22:21 -0800";
layers = (
{
anchors = (
{
name = top;
position = "{377, 1500}";
}
);
layerId = "7DA9E391-A28A-4B33-B824-B8724EAC872C";
name = "Regular Condensed";
paths = (
{
closed = 1;
nodes = (
"541 1500 LINE",
"434 707 LINE",
"391 299 LINE",
"378 299 LINE",
"330 707 LINE",
"211 1500 LINE",
"61 1500 LINE",
"311 38 LINE SMOOTH",
"321 -26 OFFCURVE",
"330 -76 OFFCURVE",
"308 -99 CURVE SMOOTH",
"296 -107 OFFCURVE",
"241 -110 OFFCURVE",
"185 -110 CURVE SMOOTH",
"130 -110 LINE",
"130 -238 LINE",
"254 -238 LINE SMOOTH",
"408 -238 OFFCURVE",
"423 -178 OFFCURVE",
"451 3 CURVE SMOOTH",
"690 1500 LINE"
);
}
);
width = 733;
}
);
leftKerningGroup = y;
rightKerningGroup = y;
unicode = 0079;
},
{
glyphname = z;
lastChange = "2013-01-01 02:52:26 -0800";
layers = (
{
anchors = (
{
name = top;
position = "{365, 1500}";
}
);
layerId = "7DA9E391-A28A-4B33-B824-B8724EAC872C";
name = "Regular Condensed";
paths = (
{
closed = 1;
nodes = (
"107 1500 LINE",
"107 1371 LINE",
"411 1371 LINE",
"82 108 LINE",
"82 0 LINE",
"550 0 LINE",
"550 130 LINE",
"236 130 LINE",
"570 1407 LINE",
"570 1500 LINE"
);
}
);
width = 635;
}
);
leftKerningGroup = z;
rightKerningGroup = z;
unicode = 007A;
},
{
glyphname = uniFB01;
lastChange = "2013-01-01 14:41:23 -0800";
layers = (
{
layerId = "7DA9E391-A28A-4B33-B824-B8724EAC872C";
name = "Regular Condensed";
paths = (
{
closed = 1;
nodes = (
"922 1615 LINE",
"922 1800 LINE",
"772 1800 LINE",
"772 1615 LINE"
);
},
{
closed = 1;
nodes = (
"922 0 LINE",
"922 1500 LINE",
"374 1500 LINE",
"374 1540 LINE SMOOTH",
"374 1612 OFFCURVE",
"381 1663 OFFCURVE",
"492 1663 CURVE SMOOTH",
"514 1663 OFFCURVE",
"541 1661 OFFCURVE",
"573 1656 CURVE",
"573 1777 LINE",
"570 1778 OFFCURVE",
"510 1795 OFFCURVE",
"438 1795 CURVE SMOOTH",
"277 1795 OFFCURVE",
"224 1694 OFFCURVE",
"224 1518 CURVE SMOOTH",
"224 1501 LINE",
"84 1501 LINE",
"84 1388 LINE",
"224 1388 LINE",
"224 0 LINE",
"374 0 LINE",
"374 1388 LINE",
"772 1388 LINE",
"772 0 LINE"
);
}
);
width = 1084;
}
);
unicode = FB01;
},
{
glyphname = uniFB02;
lastChange = "2013-01-01 14:43:50 -0800";
layers = (
{
layerId = "7DA9E391-A28A-4B33-B824-B8724EAC872C";
name = "Regular Condensed";
paths = (
{
closed = 1;
nodes = (
"739 1790 OFFCURVE",
"605 1811 OFFCURVE",
"505 1811 CURVE SMOOTH",
"259 1811 OFFCURVE",
"224 1686 OFFCURVE",
"224 1512 CURVE SMOOTH",
"224 1442 LINE",
"84 1442 LINE",
"84 1329 LINE",
"224 1329 LINE",
"224 0 LINE",
"374 0 LINE",
"374 1329 LINE",
"573 1329 LINE",
"573 1442 LINE",
"374 1442 LINE",
"374 1541 LINE SMOOTH",
"374 1596 OFFCURVE",
"372 1691 OFFCURVE",
"549 1691 CURVE SMOOTH",
"604 1691 OFFCURVE",
"676 1682 OFFCURVE",
"770 1660 CURVE",
"770 0 LINE",
"920 0 LINE",
"920 1744 LINE"
);
}
);
width = 1080;
}
);
unicode = FB02;
},
{
glyphname = uniFB00;
lastChange = "2013-01-01 14:45:01 -0800";
layers = (
{
layerId = "7DA9E391-A28A-4B33-B824-B8724EAC872C";
name = "Regular Condensed";
paths = (
{
closed = 1;
nodes = (
"834 1442 LINE",
"374 1442 LINE",
"374 1534 LINE SMOOTH",
"374 1606 OFFCURVE",
"381 1657 OFFCURVE",
"492 1657 CURVE SMOOTH",
"514 1657 OFFCURVE",
"541 1655 OFFCURVE",
"573 1650 CURVE",
"573 1770.99 LINE",
"570.177 1771.73 OFFCURVE",
"510.45 1789 OFFCURVE",
"438 1789 CURVE SMOOTH",
"277 1789 OFFCURVE",
"224 1688 OFFCURVE",
"224 1512 CURVE SMOOTH",
"224 1442 LINE",
"84 1442 LINE",
"84 1329 LINE",
"224 1329 LINE",
"224 0 LINE",
"374 0 LINE",
"374 1329 LINE",
"834 1329 LINE",
"834 0 LINE",
"984 0 LINE",
"984 1329 LINE",
"1183 1329 LINE",
"1183 1442 LINE",
"984 1442 LINE",
"984 1534 LINE SMOOTH",
"984 1606 OFFCURVE",
"991 1657 OFFCURVE",
"1102 1657 CURVE SMOOTH",
"1124 1657 OFFCURVE",
"1151 1655 OFFCURVE",
"1183 1650 CURVE",
"1183 1770.99 LINE",
"1180.18 1771.73 OFFCURVE",
"1120.45 1789 OFFCURVE",
"1048 1789 CURVE SMOOTH",
"887 1789 OFFCURVE",
"834 1688 OFFCURVE",
"834 1512 CURVE SMOOTH"
);
}
);
width = 1220;
}
);
},
{
glyphname = uniFB03;
lastChange = "2013-01-01 14:46:39 -0800";
layers = (
{
layerId = "7DA9E391-A28A-4B33-B824-B8724EAC872C";
name = "Regular Condensed";
paths = (
{
closed = 1;
nodes = (
"1382 1800 LINE",
"1382 1615 LINE",
"1532 1615 LINE",
"1532 1800 LINE"
);
},
{
closed = 1;
nodes = (
"984 1500 LINE",
"984 1541 LINE SMOOTH",
"984 1613 OFFCURVE",
"991 1664 OFFCURVE",
"1102 1664 CURVE SMOOTH",
"1124 1664 OFFCURVE",
"1151 1662 OFFCURVE",
"1183 1657 CURVE",
"1183 1778 LINE",
"1180 1779 OFFCURVE",
"1120 1796 OFFCURVE",
"1048 1796 CURVE SMOOTH",
"887 1796 OFFCURVE",
"834 1695 OFFCURVE",
"834 1519 CURVE SMOOTH",
"834 1500 LINE",
"374 1500 LINE",
"374 1541 LINE SMOOTH",
"374 1613 OFFCURVE",
"381 1664 OFFCURVE",
"492 1664 CURVE SMOOTH",
"514 1664 OFFCURVE",
"541 1662 OFFCURVE",
"573 1657 CURVE",
"573 1778 LINE",
"570 1779 OFFCURVE",
"510 1796 OFFCURVE",
"438 1796 CURVE SMOOTH",
"277 1796 OFFCURVE",
"224 1695 OFFCURVE",
"224 1519 CURVE SMOOTH",
"224 1500 LINE",
"84 1500 LINE",
"84 1387 LINE",
"224 1387 LINE",
"224 0 LINE",
"374 0 LINE",
"374 1387 LINE",
"834 1387 LINE",
"834 0 LINE",
"984 0 LINE",
"984 1387 LINE",
"1382 1387 LINE",
"1382 0 LINE",
"1532 0 LINE",
"1532 1500 LINE"
);
}
);
width = 1694;
}
);
},
{
glyphname = uniFB04;
lastChange = "2013-01-01 14:47:45 -0800";
layers = (
{
layerId = "7DA9E391-A28A-4B33-B824-B8724EAC872C";
name = "Regular Condensed";
paths = (
{
closed = 1;
nodes = (
"779 1442 LINE",
"374 1442 LINE",
"374 1534 LINE SMOOTH",
"374 1606 OFFCURVE",
"381 1657 OFFCURVE",
"492 1657 CURVE SMOOTH",
"514 1657 OFFCURVE",
"541 1655 OFFCURVE",
"573 1650 CURVE",
"573 1770.99 LINE",
"570.177 1771.73 OFFCURVE",
"510.45 1789 OFFCURVE",
"438 1789 CURVE SMOOTH",
"277 1789 OFFCURVE",
"224 1688 OFFCURVE",
"224 1512 CURVE SMOOTH",
"224 1442 LINE",
"84 1442 LINE",
"84 1329 LINE",
"224 1329 LINE",
"224 0 LINE",
"374 0 LINE",
"374 1329 LINE",
"779 1329 LINE",
"779 0 LINE",
"929 0 LINE",
"929 1329 LINE",
"1128 1329 LINE",
"1128 1442 LINE",
"929 1442 LINE",
"929 1541 LINE SMOOTH",
"929 1596 OFFCURVE",
"927 1691 OFFCURVE",
"1104 1691 CURVE SMOOTH",
"1159 1691 OFFCURVE",
"1231 1682 OFFCURVE",
"1325 1660 CURVE",
"1325 0 LINE",
"1475 0 LINE",
"1475 1744 LINE",
"1294 1790 OFFCURVE",
"1160 1811 OFFCURVE",
"1060 1811 CURVE SMOOTH",
"814 1811 OFFCURVE",
"779 1686 OFFCURVE",
"779 1512 CURVE SMOOTH"
);
}
);
width = 1635;
}
);
},
{
glyphname = Delta;
lastChange = "2013-01-01 14:49:22 -0800";
layers = (
{
layerId = "7DA9E391-A28A-4B33-B824-B8724EAC872C";
name = "Regular Condensed";
paths = (
{
closed = 1;
nodes = (
"495 1760 LINE",
"343 1760 LINE",
"60 0 LINE",
"808 0 LINE"
);
},
{
closed = 1;
nodes = (
"219.417 123 LINE",
"422 1476 LINE",
"424 1476 LINE",
"644 123 LINE"
);
}
);
width = 868;
}
);
unicode = 0394;
},
{
glyphname = mu;
lastChange = "2013-01-01 14:07:24 -0800";
layers = (
{
layerId = "7DA9E391-A28A-4B33-B824-B8724EAC872C";
name = "Regular Condensed";
paths = (
{
closed = 1;
nodes = (
"614 1500 LINE",
"614 303 LINE SMOOTH",
"615 190 OFFCURVE",
"552 119 OFFCURVE",
"447 119 CURVE SMOOTH",
"357 119 OFFCURVE",
"300 174 OFFCURVE",
"300 292 CURVE SMOOTH",
"300 1500 LINE",
"150 1500 LINE",
"150 -186 LINE",
"300 -186 LINE",
"300 -1 LINE",
"330.163 -15 OFFCURVE",
"360.983 -20 OFFCURVE",
"388 -20 CURVE SMOOTH",
"504 -20 OFFCURVE",
"591 64.9999 OFFCURVE",
"615 150 CURVE",
"615 0 LINE",
"764 0 LINE",
"764 1500 LINE"
);
}
);
width = 923;
}
);
unicode = 03BC;
},
{
glyphname = ordfeminine;
lastChange = "2013-01-01 02:52:26 -0800";
layers = (
{
layerId = "7DA9E391-A28A-4B33-B824-B8724EAC872C";
name = "Regular Condensed";
paths = (
{
closed = 1;
nodes = (
"256 1608 OFFCURVE",
"248 1426 OFFCURVE",
"248 1233 CURVE SMOOTH",
"248 1234 OFFCURVE",
"248 1199 OFFCURVE",
"247 1200 CURVE",
"368 1200 LINE",
"368 1230 LINE SMOOTH",
"368 1426 OFFCURVE",
"378 1503 OFFCURVE",
"480 1503 CURVE SMOOTH",
"579 1503 OFFCURVE",
"584 1434 OFFCURVE",
"584 1249 CURVE SMOOTH",
"584 1157 LINE",
"388 1071 OFFCURVE",
"234 1016 OFFCURVE",
"234 845 CURVE SMOOTH",
"234 846 OFFCURVE",
"234 692 OFFCURVE",
"234 692 CURVE SMOOTH",
"234 490 OFFCURVE",
"297 379 OFFCURVE",
"425 379 CURVE SMOOTH",
"524 379 OFFCURVE",
"573 448 OFFCURVE",
"584 481 CURVE",
"584 389 LINE",
"704 389 LINE",
"704 1173 LINE SMOOTH",
"704 1453 OFFCURVE",
"706 1608 OFFCURVE",
"479 1608 CURVE SMOOTH"
);
},
{
closed = 1;
nodes = (
"584 558 LINE",
"565 526 OFFCURVE",
"510 479 OFFCURVE",
"447 479 CURVE SMOOTH",
"370 479 OFFCURVE",
"352 540 OFFCURVE",
"352 702 CURVE SMOOTH",
"352 799 LINE SMOOTH",
"352 954 OFFCURVE",
"385 974 OFFCURVE",
"584 1063 CURVE"
);
}
);
width = 927;
}
);
unicode = 00AA;
},
{
glyphname = ordmasculine;
lastChange = "2013-01-01 02:52:26 -0800";
layers = (
{
layerId = "7DA9E391-A28A-4B33-B824-B8724EAC872C";
name = "Regular Condensed";
paths = (
{
closed = 1;
nodes = (
"262 1607 OFFCURVE",
"239 1432 OFFCURVE",
"239 1205 CURVE SMOOTH",
"239 801 LINE SMOOTH",
"239 552 OFFCURVE",
"254 374 OFFCURVE",
"477 374 CURVE SMOOTH",
"701 374 OFFCURVE",
"710 556 OFFCURVE",
"710 801 CURVE SMOOTH",
"710 1205 LINE SMOOTH",
"710 1433 OFFCURVE",
"691 1607 OFFCURVE",
"477 1607 CURVE SMOOTH"
);
},
{
closed = 1;
nodes = (
"577 1502 OFFCURVE",
"590 1392 OFFCURVE",
"590 1234 CURVE SMOOTH",
"590 760 LINE SMOOTH",
"590 592 OFFCURVE",
"578 478 OFFCURVE",
"477 478 CURVE SMOOTH",
"368 478 OFFCURVE",
"358 591 OFFCURVE",
"358 760 CURVE SMOOTH",
"358 1234 LINE SMOOTH",
"358 1392 OFFCURVE",
"369 1502 OFFCURVE",
"477 1502 CURVE SMOOTH"
);
}
);
width = 908;
}
);
unicode = 00BA;
},
{
glyphname = zero;
lastChange = "2013-01-05 06:47:05 -0800";
layers = (
{
layerId = "7DA9E391-A28A-4B33-B824-B8724EAC872C";
name = "Regular Condensed";
paths = (
{
closed = 1;
nodes = (
"154 1781 OFFCURVE",
"60 1642 OFFCURVE",
"60 1316 CURVE SMOOTH",
"60 475 LINE SMOOTH",
"60 128 OFFCURVE",
"154 -21 OFFCURVE",
"372 -21 CURVE SMOOTH",
"594 -21 OFFCURVE",
"689 128 OFFCURVE",
"689 475 CURVE SMOOTH",
"689 1316 LINE SMOOTH",
"689 1642 OFFCURVE",
"594 1781 OFFCURVE",
"372 1781 CURVE SMOOTH"
);
},
{
closed = 1;
nodes = (
"489 1657 OFFCURVE",
"540 1558 OFFCURVE",
"540 1327 CURVE SMOOTH",
"540 470 LINE SMOOTH",
"540 212 OFFCURVE",
"489 102 OFFCURVE",
"369 102 CURVE SMOOTH",
"256 102 OFFCURVE",
"208 212 OFFCURVE",
"208 470 CURVE SMOOTH",
"208 1328 LINE SMOOTH",
"208 1558 OFFCURVE",
"256 1657 OFFCURVE",
"369 1657 CURVE SMOOTH"
);
}
);
width = 746;
}
);
unicode = 0030;
},
{
glyphname = one;
lastChange = "2013-01-05 06:48:53 -0800";
layers = (
{
layerId = "7DA9E391-A28A-4B33-B824-B8724EAC872C";
name = "Regular Condensed";
paths = (
{
closed = 1;
nodes = (
"314 1761 LINE",
"258 1629 OFFCURVE",
"142 1556 OFFCURVE",
"36 1541 CURVE",
"36 1448 LINE",
"110 1448 OFFCURVE",
"206 1477 OFFCURVE",
"254 1534 CURVE",
"254 0 LINE",
"403 0 LINE",
"403 1761 LINE"
);
}
);
width = 569;
}
);
unicode = 0031;
},
{
glyphname = two;
lastChange = "2013-01-05 06:49:16 -0800";
layers = (
{
layerId = "7DA9E391-A28A-4B33-B824-B8724EAC872C";
name = "Regular Condensed";
paths = (
{
closed = 1;
nodes = (
"205 1780 OFFCURVE",
"118 1637 OFFCURVE",
"118 1303 CURVE SMOOTH",
"118 1065 LINE",
"269 1065 LINE",
"269 1299 LINE SMOOTH",
"269 1548 OFFCURVE",
"307 1655 OFFCURVE",
"396 1655 CURVE SMOOTH",
"484 1655 OFFCURVE",
"522 1550 OFFCURVE",
"522 1305 CURVE SMOOTH",
"522 860 OFFCURVE",
"121 355 OFFCURVE",
"121 92 CURVE SMOOTH",
"121 0 LINE",
"636 0 LINE",
"636 121 LINE",
"271 121 LINE",
"345 529 OFFCURVE",
"660 800 OFFCURVE",
"660 1310 CURVE SMOOTH",
"660 1639 OFFCURVE",
"585 1780 OFFCURVE",
"409 1780 CURVE SMOOTH"
);
}
);
width = 746;
}
);
unicode = 0032;
},
{
glyphname = three;
lastChange = "2013-01-05 06:42:29 -0800";
layers = (
{
layerId = "7DA9E391-A28A-4B33-B824-B8724EAC872C";
name = "Regular Condensed";
paths = (
{
closed = 1;
nodes = (
"121 1780 OFFCURVE",
"44 1622 OFFCURVE",
"44 1321 CURVE SMOOTH",
"44 1287 LINE",
"195 1287 LINE",
"195 1318 LINE SMOOTH",
"195 1597 OFFCURVE",
"254 1655 OFFCURVE",
"342 1655 CURVE SMOOTH",
"434 1655 OFFCURVE",
"511 1610 OFFCURVE",
"511 1322 CURVE SMOOTH",
"511 1014 OFFCURVE",
"445 982 OFFCURVE",
"298 982 CURVE SMOOTH",
"261 982 LINE",
"261 854 LINE",
"300 854 LINE SMOOTH",
"449 854 OFFCURVE",
"514 771 OFFCURVE",
"514 472 CURVE SMOOTH",
"514 197 OFFCURVE",
"477 104 OFFCURVE",
"345 104 CURVE SMOOTH",
"211 104 OFFCURVE",
"190 184 OFFCURVE",
"190 474 CURVE SMOOTH",
"190 517 LINE",
"38 517 LINE",
"38 474 LINE SMOOTH",
"38 141 OFFCURVE",
"120 -20 OFFCURVE",
"344 -20 CURVE SMOOTH",
"566 -20 OFFCURVE",
"664 137 OFFCURVE",
"664 468 CURVE SMOOTH",
"664 662 OFFCURVE",
"611 858 OFFCURVE",
"486 914 CURVE",
"613 962 OFFCURVE",
"661 1118 OFFCURVE",
"661 1321 CURVE SMOOTH",
"661 1623 OFFCURVE",
"570 1780 OFFCURVE",
"345 1780 CURVE SMOOTH"
);
}
);
width = 746;
}
);
unicode = 0033;
},
{
glyphname = four;
lastChange = "2013-01-05 06:42:50 -0800";
layers = (
{
layerId = "7DA9E391-A28A-4B33-B824-B8724EAC872C";
name = "Regular Condensed";
paths = (
{
closed = 1;
nodes = (
"445 1761 LINE",
"51 449 LINE",
"51 352 LINE",
"449 352 LINE",
"449 -1 LINE",
"589 -1 LINE",
"589 352 LINE",
"743 352 LINE",
"743 468 LINE",
"589 468 LINE",
"589 1761 LINE"
);
},
{
closed = 1;
nodes = (
"449 468 LINE",
"186 468 LINE",
"449 1428 LINE"
);
}
);
width = 746;
}
);
unicode = 0034;
},
{
glyphname = five;
lastChange = "2013-01-05 06:43:21 -0800";
layers = (
{
layerId = "7DA9E391-A28A-4B33-B824-B8724EAC872C";
name = "Regular Condensed";
paths = (
{
closed = 1;
nodes = (
"135 1760 LINE",
"135 910 LINE",
"259 888 LINE",
"259 1028 OFFCURVE",
"313 1091 OFFCURVE",
"380 1091 CURVE SMOOTH",
"463 1091 OFFCURVE",
"492 1021 OFFCURVE",
"492 869 CURVE SMOOTH",
"492 274 LINE SMOOTH",
"492 158 OFFCURVE",
"454 102 OFFCURVE",
"378 102 CURVE SMOOTH",
"293 102 OFFCURVE",
"263 171 OFFCURVE",
"263 263 CURVE SMOOTH",
"263 459 LINE",
"111 459 LINE",
"111 291 LINE SMOOTH",
"111 141 OFFCURVE",
"156 -20 OFFCURVE",
"377 -20 CURVE SMOOTH",
"574 -20 OFFCURVE",
"633 80 OFFCURVE",
"633 477 CURVE",
"633 768 LINE",
"633 1149 OFFCURVE",
"543 1221 OFFCURVE",
"400 1221 CURVE SMOOTH",
"347 1221 OFFCURVE",
"289 1183 OFFCURVE",
"270 1146 CURVE",
"270 1624 LINE",
"595 1624 LINE",
"595 1760 LINE"
);
}
);
width = 746;
}
);
unicode = 0035;
},
{
glyphname = six;
lastChange = "2013-01-05 06:44:32 -0800";
layers = (
{
layerId = "7DA9E391-A28A-4B33-B824-B8724EAC872C";
name = "Regular Condensed";
paths = (
{
closed = 1;
nodes = (
"134 1780 OFFCURVE",
"85 1620 OFFCURVE",
"85 1264 CURVE SMOOTH",
"85 506 LINE SMOOTH",
"85 210 OFFCURVE",
"118 -20 OFFCURVE",
"391 -20 CURVE SMOOTH",
"633 -20 OFFCURVE",
"694 145 OFFCURVE",
"694 442 CURVE SMOOTH",
"694 559 LINE SMOOTH",
"694 960 OFFCURVE",
"625 1113 OFFCURVE",
"390 1102 CURVE SMOOTH",
"332 1099 OFFCURVE",
"276 1071 OFFCURVE",
"233 1013 CURVE",
"233 1255 LINE SMOOTH",
"233 1574 OFFCURVE",
"250 1655 OFFCURVE",
"382 1655 CURVE SMOOTH",
"498 1655 OFFCURVE",
"507 1574 OFFCURVE",
"508 1283 CURVE SMOOTH",
"508 1271 OFFCURVE",
"508 1264 OFFCURVE",
"508 1252 CURVE",
"660 1252 LINE",
"660 1268 OFFCURVE",
"660 1269 OFFCURVE",
"660 1284 CURVE SMOOTH",
"656 1619 OFFCURVE",
"626 1780 OFFCURVE",
"389 1780 CURVE SMOOTH"
);
},
{
closed = 1;
nodes = (
"520 978 OFFCURVE",
"544 870 OFFCURVE",
"544 547 CURVE SMOOTH",
"544 446 LINE SMOOTH",
"544 170 OFFCURVE",
"513 107 OFFCURVE",
"391 107 CURVE SMOOTH",
"241 107 OFFCURVE",
"233 226 OFFCURVE",
"233 504 CURVE SMOOTH",
"233 926 LINE",
"252 931 OFFCURVE",
"308 978 OFFCURVE",
"402 978 CURVE SMOOTH"
);
}
);
width = 746;
}
);
unicode = 0036;
},
{
glyphname = seven;
lastChange = "2013-01-05 06:44:56 -0800";
layers = (
{
layerId = "7DA9E391-A28A-4B33-B824-B8724EAC872C";
name = "Regular Condensed";
paths = (
{
closed = 1;
nodes = (
"56 1761 LINE",
"56 1644 LINE",
"559 1644 LINE",
"561 1649 OFFCURVE",
"483 1472 OFFCURVE",
"395 1165 CURVE SMOOTH",
"319 886 OFFCURVE",
"235 477 OFFCURVE",
"197 1 CURVE",
"194 1 OFFCURVE",
"352 1 OFFCURVE",
"352 1 CURVE",
"381 454 OFFCURVE",
"467 874 OFFCURVE",
"543 1175 CURVE SMOOTH",
"622 1485 OFFCURVE",
"691 1674 OFFCURVE",
"689 1653 CURVE",
"689 1761 LINE"
);
}
);
width = 746;
}
);
unicode = 0037;
},
{
glyphname = eight;
lastChange = "2013-01-05 06:49:00 -0800";
layers = (
{
layerId = "7DA9E391-A28A-4B33-B824-B8724EAC872C";
name = "Regular Condensed";
paths = (
{
closed = 1;
nodes = (
"178 1780 OFFCURVE",
"89 1650 OFFCURVE",
"89 1347 CURVE SMOOTH",
"89 1121 OFFCURVE",
"130 995 OFFCURVE",
"226 927 CURVE",
"117 853 OFFCURVE",
"71 705 OFFCURVE",
"71 434 CURVE SMOOTH",
"71 417 OFFCURVE",
"72 420 OFFCURVE",
"72 403 CURVE SMOOTH",
"81 107 OFFCURVE",
"174 -20 OFFCURVE",
"382 -20 CURVE SMOOTH",
"585 -20 OFFCURVE",
"675 110 OFFCURVE",
"682 413 CURVE SMOOTH",
"682 426 OFFCURVE",
"682 420 OFFCURVE",
"682 434 CURVE SMOOTH",
"682 706 OFFCURVE",
"637 855 OFFCURVE",
"532 931 CURVE",
"634 1001 OFFCURVE",
"678 1126 OFFCURVE",
"678 1347 CURVE SMOOTH",
"678 1650 OFFCURVE",
"590 1780 OFFCURVE",
"385 1780 CURVE SMOOTH"
);
},
{
closed = 1;
nodes = (
"489 869 OFFCURVE",
"534 738 OFFCURVE",
"534 432 CURVE SMOOTH",
"534 426 OFFCURVE",
"534 445 OFFCURVE",
"534 439 CURVE SMOOTH",
"533 204 OFFCURVE",
"488 103 OFFCURVE",
"384 103 CURVE SMOOTH",
"271 103 OFFCURVE",
"222 201 OFFCURVE",
"220 431 CURVE SMOOTH",
"220 439 OFFCURVE",
"220 420 OFFCURVE",
"220 428 CURVE SMOOTH",
"220 737 OFFCURVE",
"269 869 OFFCURVE",
"384 869 CURVE SMOOTH"
);
},
{
closed = 1;
nodes = (
"485 1653 OFFCURVE",
"529 1563 OFFCURVE",
"529 1353 CURVE SMOOTH",
"529 1093 OFFCURVE",
"485 982 OFFCURVE",
"382 982 CURVE SMOOTH",
"281 982 OFFCURVE",
"238 1092 OFFCURVE",
"238 1348 CURVE SMOOTH",
"238 1562 OFFCURVE",
"281 1653 OFFCURVE",
"382 1653 CURVE SMOOTH"
);
}
);
width = 746;
}
);
unicode = 0038;
},
{
glyphname = nine;
lastChange = "2013-01-05 06:46:25 -0800";
layers = (
{
layerId = "7DA9E391-A28A-4B33-B824-B8724EAC872C";
name = "Regular Condensed";
paths = (
{
closed = 1;
nodes = (
"104 1780 OFFCURVE",
"87 1549 OFFCURVE",
"87 1252 CURVE SMOOTH",
"87 1226 LINE SMOOTH",
"87 857 OFFCURVE",
"129 662 OFFCURVE",
"372 662 CURVE SMOOTH",
"431 662 OFFCURVE",
"487 678 OFFCURVE",
"522 712 CURVE",
"522 523 LINE SMOOTH",
"522 226 OFFCURVE",
"536 103 OFFCURVE",
"409 103 CURVE SMOOTH",
"289 103 OFFCURVE",
"272 157 OFFCURVE",
"270 483 CURVE SMOOTH",
"270 493 OFFCURVE",
"270 498 OFFCURVE",
"270 508 CURVE",
"127 508 LINE",
"127 491 OFFCURVE",
"127 489 OFFCURVE",
"128 473 CURVE SMOOTH",
"133 140 OFFCURVE",
"178 -20 OFFCURVE",
"396 -20 CURVE SMOOTH",
"652 -20 OFFCURVE",
"672 186 OFFCURVE",
"672 542 CURVE SMOOTH",
"672 1254 LINE SMOOTH",
"672 1548 OFFCURVE",
"653 1780 OFFCURVE",
"380 1780 CURVE SMOOTH"
);
},
{
closed = 1;
nodes = (
"509 1653 OFFCURVE",
"522 1518 OFFCURVE",
"522 1255 CURVE SMOOTH",
"522 803 LINE",
"502 794 OFFCURVE",
"461 776 OFFCURVE",
"386 776 CURVE SMOOTH",
"250 776 OFFCURVE",
"237 885 OFFCURVE",
"237 1208 CURVE SMOOTH",
"237 1257 LINE SMOOTH",
"237 1518 OFFCURVE",
"246 1653 OFFCURVE",
"381 1653 CURVE SMOOTH"
);
}
);
width = 746;
}
);
unicode = 0039;
},
{
glyphname = fraction;
lastChange = "2013-01-01 02:52:26 -0800";
layers = (
{
layerId = "7DA9E391-A28A-4B33-B824-B8724EAC872C";
name = "Regular Condensed";
paths = (
{
closed = 1;
nodes = (
"536 1768 LINE",
"94 0 LINE",
"231 0 LINE",
"673 1768 LINE"
);
}
);
width = 829;
}
);
unicode = 2044;
},
{
glyphname = onehalf;
lastChange = "2013-01-01 02:52:26 -0800";
layers = (
{
layerId = "7DA9E391-A28A-4B33-B824-B8724EAC872C";
name = "Regular Condensed";
paths = (
{
closed = 1;
nodes = (
"948 1768 LINE",
"489 0 LINE",
"607 0 LINE",
"1068 1768 LINE"
);
},
{
closed = 1;
nodes = (
"312 1774 LINE",
"266 1671 OFFCURVE",
"182 1617 OFFCURVE",
"100 1604 CURVE",
"100 1529 LINE",
"157 1529 OFFCURVE",
"232 1552 OFFCURVE",
"267 1597 CURVE",
"267 416 LINE",
"383 416 LINE",
"383 1774 LINE"
);
},
{
closed = 1;
nodes = (
"1134 1372 OFFCURVE",
"1127 1196 OFFCURVE",
"1127 904 CURVE SMOOTH",
"1127 821 LINE",
"1244 821 LINE",
"1244 1001 LINE SMOOTH",
"1244 1238 OFFCURVE",
"1290 1273 OFFCURVE",
"1341 1273 CURVE SMOOTH",
"1391 1273 OFFCURVE",
"1431 1236 OFFCURVE",
"1431 1013 CURVE SMOOTH",
"1431 920 OFFCURVE",
"1408 789 OFFCURVE",
"1377 724 CURVE SMOOTH",
"1391 740 OFFCURVE",
"1131 157 OFFCURVE",
"1131 74 CURVE SMOOTH",
"1131 1 LINE",
"1523 1 LINE",
"1523 82 LINE",
"1245 82 LINE",
"1279 439 OFFCURVE",
"1543 635 OFFCURVE",
"1543 997 CURVE SMOOTH",
"1543 1168 OFFCURVE",
"1525 1372 OFFCURVE",
"1358 1372 CURVE SMOOTH"
);
}
);
width = 1620;
}
);
unicode = 00BD;
},
{
glyphname = onequarter;
lastChange = "2013-01-01 02:52:26 -0800";
layers = (
{
layerId = "7DA9E391-A28A-4B33-B824-B8724EAC872C";
name = "Regular Condensed";
paths = (
{
closed = 1;
nodes = (
"948 1768 LINE",
"489 0 LINE",
"607 0 LINE",
"1068 1768 LINE"
);
},
{
closed = 1;
nodes = (
"312 1774 LINE",
"266 1671 OFFCURVE",
"182 1617 OFFCURVE",
"100 1604 CURVE",
"100 1529 LINE",
"157 1529 OFFCURVE",
"232 1552 OFFCURVE",
"267 1597 CURVE",
"267 416 LINE",
"383 416 LINE",
"383 1774 LINE"
);
},
{
closed = 1;
nodes = (
"1188 326 LINE",
"1007 326 LINE",
"1188 989 LINE"
);
},
{
closed = 1;
nodes = (
"1192 1224 LINE",
"916 314 LINE",
"916 244 LINE",
"1188 244 LINE",
"1188 0 LINE",
"1284 0 LINE",
"1284 244 LINE",
"1393 244 LINE",
"1393 326 LINE",
"1284 326 LINE",
"1284 1224 LINE"
);
}
);
width = 1535;
}
);
unicode = 00BC;
},
{
glyphname = threequarters;
lastChange = "2013-01-01 02:52:26 -0800";
layers = (
{
layerId = "7DA9E391-A28A-4B33-B824-B8724EAC872C";
name = "Regular Condensed";
paths = (
{
closed = 1;
nodes = (
"1013 1768 LINE",
"554 0 LINE",
"673 0 LINE",
"1133 1768 LINE"
);
},
{
closed = 1;
nodes = (
"208 1800 OFFCURVE",
"156 1690 OFFCURVE",
"156 1481 CURVE SMOOTH",
"156 1457 LINE",
"261 1457 LINE",
"261 1456 OFFCURVE",
"261 1481 OFFCURVE",
"261 1480 CURVE SMOOTH",
"261 1671 OFFCURVE",
"301 1711 OFFCURVE",
"362 1711 CURVE SMOOTH",
"426 1711 OFFCURVE",
"478 1680 OFFCURVE",
"478 1482 CURVE SMOOTH",
"478 1271 OFFCURVE",
"435 1244 OFFCURVE",
"334 1244 CURVE SMOOTH",
"334 1244 OFFCURVE",
"302 1244 OFFCURVE",
"303 1244 CURVE",
"303 1157 LINE",
"302 1157 OFFCURVE",
"335 1157 OFFCURVE",
"334 1157 CURVE SMOOTH",
"437 1157 OFFCURVE",
"480 1100 OFFCURVE",
"480 892 CURVE SMOOTH",
"480 704 OFFCURVE",
"455 638 OFFCURVE",
"364 638 CURVE SMOOTH",
"272 638 OFFCURVE",
"257 694 OFFCURVE",
"257 893 CURVE SMOOTH",
"257 924 LINE",
"152 924 LINE",
"152 893 LINE SMOOTH",
"152 662 OFFCURVE",
"207 551 OFFCURVE",
"363 551 CURVE SMOOTH",
"518 551 OFFCURVE",
"585 660 OFFCURVE",
"585 890 CURVE SMOOTH",
"585 1025 OFFCURVE",
"547 1160 OFFCURVE",
"461 1199 CURVE",
"549 1232 OFFCURVE",
"583 1341 OFFCURVE",
"583 1481 CURVE SMOOTH",
"583 1691 OFFCURVE",
"520 1800 OFFCURVE",
"364 1800 CURVE SMOOTH"
);
},
{
closed = 1;
nodes = (
"1208 326 LINE",
"1027 326 LINE",
"1208 989 LINE"
);
},
{
closed = 1;
nodes = (
"1212 1224 LINE",
"936 314 LINE",
"936 244 LINE",
"1208 244 LINE",
"1208 0 LINE",
"1304 0 LINE",
"1304 244 LINE",
"1413 244 LINE",
"1413 326 LINE",
"1304 326 LINE",
"1304 1224 LINE"
);
}
);
width = 1555;
}
);
unicode = 00BE;
},
{
glyphname = uni00B9;
lastChange = "2013-01-01 02:52:26 -0800";
layers = (
{
layerId = "7DA9E391-A28A-4B33-B824-B8724EAC872C";
name = "Regular Condensed";
paths = (
{
closed = 1;
nodes = (
"309 1759 LINE",
"263 1657 OFFCURVE",
"182 1603 OFFCURVE",
"103 1591 CURVE",
"103 1517 LINE",
"158 1517 OFFCURVE",
"232 1540 OFFCURVE",
"266 1585 CURVE",
"266 414 LINE",
"377 414 LINE",
"377 1759 LINE"
);
}
);
width = 626;
}
);
unicode = 00B9;
},
{
glyphname = uni00B2;
lastChange = "2013-01-01 02:52:26 -0800";
layers = (
{
layerId = "7DA9E391-A28A-4B33-B824-B8724EAC872C";
name = "Regular Condensed";
paths = (
{
closed = 1;
nodes = (
"266 1778 OFFCURVE",
"260 1603 OFFCURVE",
"260 1314 CURVE SMOOTH",
"259 1232 LINE",
"375 1232 LINE",
"375 1410 LINE SMOOTH",
"375 1647 OFFCURVE",
"421 1681 OFFCURVE",
"471 1681 CURVE SMOOTH",
"520 1681 OFFCURVE",
"560 1645 OFFCURVE",
"560 1422 CURVE SMOOTH",
"560 1330 OFFCURVE",
"537 1200 OFFCURVE",
"507 1135 CURVE SMOOTH",
"522 1153 OFFCURVE",
"264 572 OFFCURVE",
"264 492 CURVE SMOOTH",
"264 420 LINE",
"651 420 LINE",
"651 498 LINE",
"375 498 LINE",
"408 853 OFFCURVE",
"670 1047 OFFCURVE",
"670 1406 CURVE SMOOTH",
"670 1575 OFFCURVE",
"653 1778 OFFCURVE",
"488 1778 CURVE SMOOTH"
);
}
);
width = 861;
}
);
unicode = 00B2;
},
{
glyphname = uni00B3;
lastChange = "2013-01-01 02:52:26 -0800";
layers = (
{
layerId = "7DA9E391-A28A-4B33-B824-B8724EAC872C";
name = "Regular Condensed";
paths = (
{
closed = 1;
nodes = (
"287 1775 OFFCURVE",
"237 1666 OFFCURVE",
"237 1460 CURVE SMOOTH",
"237 1437 LINE",
"337 1437 LINE",
"337 1436 OFFCURVE",
"337 1460 OFFCURVE",
"337 1459 CURVE SMOOTH",
"337 1650 OFFCURVE",
"377 1689 OFFCURVE",
"436 1689 CURVE SMOOTH",
"499 1689 OFFCURVE",
"550 1659 OFFCURVE",
"550 1462 CURVE SMOOTH",
"550 1251 OFFCURVE",
"507 1226 OFFCURVE",
"408 1227 CURVE SMOOTH",
"409 1227 OFFCURVE",
"378 1227 OFFCURVE",
"379 1227 CURVE",
"379 1140 LINE",
"410 1140 LINE SMOOTH",
"510 1140 OFFCURVE",
"553 1085 OFFCURVE",
"553 878 CURVE SMOOTH",
"553 691 OFFCURVE",
"527 626 OFFCURVE",
"438 626 CURVE SMOOTH",
"347 626 OFFCURVE",
"333 682 OFFCURVE",
"333 879 CURVE SMOOTH",
"333 909 LINE",
"233 909 LINE",
"233 880 LINE SMOOTH",
"233 652 OFFCURVE",
"287 542 OFFCURVE",
"438 542 CURVE SMOOTH",
"586 542 OFFCURVE",
"651 649 OFFCURVE",
"651 876 CURVE SMOOTH",
"651 1008 OFFCURVE",
"614 1143 OFFCURVE",
"530 1181 CURVE",
"616 1214 OFFCURVE",
"649 1322 OFFCURVE",
"649 1460 CURVE SMOOTH",
"649 1667 OFFCURVE",
"589 1775 OFFCURVE",
"438 1775 CURVE SMOOTH"
);
}
);
width = 880;
}
);
unicode = 00B3;
},
{
glyphname = uni2074;
lastChange = "2013-01-01 02:52:26 -0800";
layers = (
{
layerId = "7DA9E391-A28A-4B33-B824-B8724EAC872C";
name = "Regular Condensed";
paths = (
{
closed = 1;
nodes = (
"495 1760 LINE",
"224 862 LINE",
"224 795 LINE",
"489 795 LINE",
"489 554 LINE",
"580 554 LINE",
"580 795 LINE",
"688 795 LINE",
"688 873 LINE",
"580 873 LINE",
"580 1760 LINE"
);
},
{
closed = 1;
nodes = (
"489 873 LINE",
"310 873 LINE",
"489 1533 LINE"
);
}
);
width = 857;
}
);
unicode = 2074;
},
{
glyphname = asterisk;
lastChange = "2013-01-01 02:52:26 -0800";
layers = (
{
layerId = "7DA9E391-A28A-4B33-B824-B8724EAC872C";
name = "Regular Condensed";
paths = (
{
closed = 1;
nodes = (
"414 1777 LINE",
"438 1508 LINE",
"209 1671 LINE",
"141 1555 LINE",
"391 1433 LINE",
"149 1303 LINE",
"216 1185 LINE",
"438 1357 LINE",
"414 1081 LINE",
"547 1081 LINE",
"527 1353 LINE",
"751 1176 LINE",
"819 1293 LINE",
"569 1433 LINE",
"819 1565 LINE",
"751 1681 LINE",
"527 1509 LINE",
"547 1777 LINE"
);
}
);
width = 960;
}
);
unicode = 002A;
},
{
glyphname = backslash;
lastChange = "2013-01-01 02:52:26 -0800";
layers = (
{
layerId = "7DA9E391-A28A-4B33-B824-B8724EAC872C";
name = "Regular Condensed";
paths = (
{
closed = 1;
nodes = (
"133 1761 LINE",
"544 0 LINE",
"671 0 LINE",
"261 1761 LINE"
);
}
);
width = 868;
}
);
unicode = 005C;
},
{
glyphname = bullet;
lastChange = "2013-01-01 02:52:26 -0800";
layers = (
{
layerId = "7DA9E391-A28A-4B33-B824-B8724EAC872C";
name = "Regular Condensed";
paths = (
{
closed = 1;
nodes = (
"296 969 OFFCURVE",
"227 892 OFFCURVE",
"227 741 CURVE SMOOTH",
"227 590 OFFCURVE",
"296 513 OFFCURVE",
"430 513 CURVE SMOOTH",
"565 513 OFFCURVE",
"634 590 OFFCURVE",
"634 741 CURVE SMOOTH",
"634 892 OFFCURVE",
"565 969 OFFCURVE",
"430 969 CURVE SMOOTH"
);
}
);
width = 861;
}
);
unicode = 2022;
},
{
glyphname = colon;
lastChange = "2013-01-01 12:11:30 -0800";
layers = (
{
layerId = "7DA9E391-A28A-4B33-B824-B8724EAC872C";
name = "Regular Condensed";
paths = (
{
closed = 1;
nodes = (
"179 543 LINE",
"179 312 LINE",
"362 312 LINE",
"362 543 LINE"
);
},
{
closed = 1;
nodes = (
"179 1279 LINE",
"179 1048 LINE",
"362 1048 LINE",
"362 1279 LINE"
);
}
);
width = 555;
}
);
unicode = 003A;
},
{
glyphname = comma;
lastChange = "2013-01-01 04:11:00 -0800";
layers = (
{
layerId = "7DA9E391-A28A-4B33-B824-B8724EAC872C";
name = "Regular Condensed";
paths = (
{
closed = 1;
nodes = (
"151 173 LINE",
"151 0 LINE",
"266 0 LINE",
"170 -350 LINE",
"247 -350 LINE",
"351 9 LINE",
"351 173 LINE"
);
}
);
width = 437;
}
);
unicode = 002C;
},
{
glyphname = exclam;
lastChange = "2013-01-01 02:52:26 -0800";
layers = (
{
layerId = "7DA9E391-A28A-4B33-B824-B8724EAC872C";
name = "Regular Condensed";
paths = (
{
closed = 1;
nodes = (
"176 1760 LINE",
"239 368 LINE",
"299 368 LINE",
"364 1760 LINE"
);
},
{
closed = 1;
nodes = (
"175 202 LINE",
"175 0 LINE",
"361 0 LINE",
"361 202 LINE"
);
}
);
width = 540;
}
);
unicode = 0021;
},
{
glyphname = numbersign;
lastChange = "2013-01-01 02:52:26 -0800";
layers = (
{
layerId = "7DA9E391-A28A-4B33-B824-B8724EAC872C";
name = "Regular Condensed";
paths = (
{
closed = 1;
nodes = (
"909 1761 LINE",
"784 1138 LINE",
"568 1138 LINE",
"693 1761 LINE",
"563 1761 LINE",
"440 1138 LINE",
"224 1138 LINE",
"224 1041 LINE",
"421 1041 LINE",
"367 767 LINE",
"181 767 LINE",
"181 670 LINE",
"347 670 LINE",
"215 0 LINE",
"344 0 LINE",
"475 670 LINE",
"691 670 LINE",
"561 0 LINE",
"690 0 LINE",
"823 670 LINE",
"1036 670 LINE",
"1036 767 LINE",
"842 767 LINE",
"896 1041 LINE",
"1079 1041 LINE",
"1079 1138 LINE",
"916 1138 LINE",
"1039 1761 LINE"
);
},
{
closed = 1;
nodes = (
"713 765 LINE",
"493 765 LINE",
"547 1035 LINE",
"766 1035 LINE"
);
}
);
width = 1288;
}
);
unicode = 0023;
},
{
glyphname = period;
lastChange = "2013-01-01 12:10:00 -0800";
layers = (
{
layerId = "7DA9E391-A28A-4B33-B824-B8724EAC872C";
name = "Regular Condensed";
paths = (
{
closed = 1;
nodes = (
"174 164 LINE",
"174 0 LINE",
"328 0 LINE",
"328 164 LINE"
);
}
);
width = 532;
}
);
unicode = 002E;
},
{
glyphname = periodcentered;
lastChange = "2013-01-01 02:52:26 -0800";
layers = (
{
layerId = "7DA9E391-A28A-4B33-B824-B8724EAC872C";
name = "Regular Condensed";
paths = (
{
closed = 1;
nodes = (
"163 961 LINE",
"163 786 LINE",
"333 786 LINE",
"333 961 LINE"
);
}
);
width = 480;
}
);
unicode = 00B7;
},
{
glyphname = question;
lastChange = "2013-01-01 02:52:26 -0800";
layers = (
{
layerId = "7DA9E391-A28A-4B33-B824-B8724EAC872C";
name = "Regular Condensed";
paths = (
{
closed = 1;
nodes = (
"121 1782 OFFCURVE",
"158 1510 OFFCURVE",
"158 1365 CURVE SMOOTH",
"158 1160 LINE",
"308 1160 LINE",
"308 1375 LINE SMOOTH",
"308 1596 OFFCURVE",
"309 1655 OFFCURVE",
"396 1655 CURVE SMOOTH",
"476 1655 OFFCURVE",
"474 1588 OFFCURVE",
"474 1379 CURVE SMOOTH",
"474 1035 OFFCURVE",
"476 901 OFFCURVE",
"228 810 CURVE",
"228 494 LINE",
"353 494 LINE",
"353 750 LINE",
"562 808 OFFCURVE",
"623 968 OFFCURVE",
"623 1314 CURVE SMOOTH",
"623 1590 OFFCURVE",
"631 1782 OFFCURVE",
"392 1782 CURVE SMOOTH"
);
},
{
closed = 1;
nodes = (
"227 299 LINE",
"227 1 LINE",
"353 1 LINE",
"353 299 LINE"
);
}
);
width = 708;
}
);
unicode = 003F;
},
{
glyphname = quotedbl;
lastChange = "2013-01-01 02:52:26 -0800";
layers = (
{
layerId = "7DA9E391-A28A-4B33-B824-B8724EAC872C";
name = "Regular Condensed";
paths = (
{
closed = 1;
nodes = (
"535 1761 LINE",
"593 1125 LINE",
"627 1125 LINE",
"692 1761 LINE"
);
},
{
closed = 1;
nodes = (
"267 1761 LINE",
"325 1125 LINE",
"359 1125 LINE",
"423 1761 LINE"
);
}
);
width = 944;
}
);
unicode = 0022;
},
{
glyphname = quotesingle;
lastChange = "2013-01-01 02:52:26 -0800";
layers = (
{
layerId = "7DA9E391-A28A-4B33-B824-B8724EAC872C";
name = "Regular Condensed";
paths = (
{
closed = 1;
nodes = (
"124 1761 LINE",
"184 1125 LINE",
"217 1125 LINE",
"282 1761 LINE"
);
}
);
width = 404;
}
);
unicode = 0027;
},
{
glyphname = semicolon;
lastChange = "2013-01-01 12:11:09 -0800";
layers = (
{
layerId = "7DA9E391-A28A-4B33-B824-B8724EAC872C";
name = "Regular Condensed";
paths = (
{
closed = 1;
nodes = (
"179 1279 LINE",
"179 1048 LINE",
"362 1048 LINE",
"362 1279 LINE"
);
},
{
closed = 1;
nodes = (
"181 523 LINE",
"181 350 LINE",
"296 350 LINE",
"200 0 LINE",
"277 0 LINE",
"381 359 LINE",
"381 523 LINE"
);
}
);
width = 561;
}
);
unicode = 003B;
},
{
glyphname = slash;
lastChange = "2013-01-01 02:52:26 -0800";
layers = (
{
layerId = "7DA9E391-A28A-4B33-B824-B8724EAC872C";
name = "Regular Condensed";
paths = (
{
closed = 1;
nodes = (
"538 1768 LINE",
"88 0 LINE",
"222 0 LINE",
"673 1768 LINE"
);
}
);
width = 743;
}
);
unicode = 002F;
},
{
glyphname = underscore;
lastChange = "2013-01-01 02:52:26 -0800";
layers = (
{
layerId = "7DA9E391-A28A-4B33-B824-B8724EAC872C";
name = "Regular Condensed";
paths = (
{
closed = 1;
nodes = (
"48 -64 LINE",
"48 -185 LINE",
"699 -185 LINE",
"699 -64 LINE"
);
}
);
width = 748;
}
);
unicode = 005F;
},
{
glyphname = braceleft;
lastChange = "2013-01-01 02:52:26 -0800";
layers = (
{
layerId = "7DA9E391-A28A-4B33-B824-B8724EAC872C";
name = "Regular Condensed";
paths = (
{
closed = 1;
nodes = (
"562 1781 LINE SMOOTH",
"383 1781 OFFCURVE",
"334 1704 OFFCURVE",
"334 1443 CURVE SMOOTH",
"334 1168 LINE SMOOTH",
"334 954 OFFCURVE",
"317 931 OFFCURVE",
"195 931 CURVE",
"195 729 LINE",
"317 729 OFFCURVE",
"334 706 OFFCURVE",
"334 492 CURVE SMOOTH",
"334 217 LINE SMOOTH",
"334 -44 OFFCURVE",
"383 -121 OFFCURVE",
"562 -121 CURVE SMOOTH",
"622 -121 LINE",
"622 16 LINE",
"498 16 OFFCURVE",
"483 38 OFFCURVE",
"483 230 CURVE SMOOTH",
"483 476 LINE SMOOTH",
"483 748 OFFCURVE",
"465 784 OFFCURVE",
"311 830 CURVE",
"465 876 OFFCURVE",
"483 912 OFFCURVE",
"483 1184 CURVE SMOOTH",
"483 1430 LINE SMOOTH",
"483 1622 OFFCURVE",
"498 1644 OFFCURVE",
"622 1644 CURVE",
"622 1781 LINE"
);
}
);
width = 798;
}
);
unicode = 007B;
},
{
glyphname = braceright;
lastChange = "2013-01-01 02:52:26 -0800";
layers = (
{
layerId = "7DA9E391-A28A-4B33-B824-B8724EAC872C";
name = "Regular Condensed";
paths = (
{
closed = 1;
nodes = (
"195 1781 LINE",
"195 1644 LINE",
"318 1644 OFFCURVE",
"334 1622 OFFCURVE",
"334 1430 CURVE",
"334 1184 LINE SMOOTH",
"334 912 OFFCURVE",
"352 876 OFFCURVE",
"506 830 CURVE",
"352 784 OFFCURVE",
"334 748 OFFCURVE",
"334 476 CURVE",
"334 230 LINE SMOOTH",
"334 38 OFFCURVE",
"318 16 OFFCURVE",
"195 16 CURVE",
"195 -121 LINE",
"255 -121 LINE SMOOTH",
"434 -121 OFFCURVE",
"483 -44 OFFCURVE",
"483 217 CURVE",
"483 492 LINE SMOOTH",
"483 706 OFFCURVE",
"500 729 OFFCURVE",
"622 729 CURVE",
"622 931 LINE",
"500 931 OFFCURVE",
"483 954 OFFCURVE",
"483 1168 CURVE",
"483 1443 LINE SMOOTH",
"483 1704 OFFCURVE",
"434 1781 OFFCURVE",
"255 1781 CURVE"
);
}
);
width = 798;
}
);
unicode = 007D;
},
{
glyphname = bracketleft;
lastChange = "2013-01-01 02:52:26 -0800";
layers = (
{
layerId = "7DA9E391-A28A-4B33-B824-B8724EAC872C";
name = "Regular Condensed";
paths = (
{
closed = 1;
nodes = (
"253 1761 LINE",
"253 0 LINE",
"616 0 LINE",
"616 115 LINE",
"402 115 LINE",
"402 1646 LINE",
"616 1646 LINE",
"616 1761 LINE"
);
}
);
width = 764;
}
);
unicode = 005B;
},
{
glyphname = bracketright;
lastChange = "2013-01-01 02:52:26 -0800";
layers = (
{
layerId = "7DA9E391-A28A-4B33-B824-B8724EAC872C";
name = "Regular Condensed";
paths = (
{
closed = 1;
nodes = (
"196 1761 LINE",
"196 1646 LINE",
"409 1646 LINE",
"409 115 LINE",
"196 115 LINE",
"196 0 LINE",
"558 0 LINE",
"558 1761 LINE"
);
}
);
width = 764;
}
);
unicode = 005D;
},
{
glyphname = parenleft;
lastChange = "2013-01-01 02:52:26 -0800";
layers = (
{
layerId = "7DA9E391-A28A-4B33-B824-B8724EAC872C";
name = "Regular Condensed";
paths = (
{
closed = 1;
nodes = (
"184 1800 OFFCURVE",
"133 1751 OFFCURVE",
"133 1388 CURVE SMOOTH",
"133 313 LINE SMOOTH",
"133 -50 OFFCURVE",
"184 -99 OFFCURVE",
"421 -99 CURVE",
"421 14 LINE",
"301 14 OFFCURVE",
"282 6 OFFCURVE",
"282 309 CURVE SMOOTH",
"282 1392 LINE SMOOTH",
"282 1695 OFFCURVE",
"301 1687 OFFCURVE",
"421 1687 CURVE",
"421 1800 LINE"
);
}
);
width = 519;
}
);
unicode = 0028;
},
{
glyphname = parenright;
lastChange = "2013-01-01 02:52:26 -0800";
layers = (
{
layerId = "7DA9E391-A28A-4B33-B824-B8724EAC872C";
name = "Regular Condensed";
paths = (
{
closed = 1;
nodes = (
"98 1687 LINE",
"218 1687 OFFCURVE",
"237 1695 OFFCURVE",
"237 1392 CURVE SMOOTH",
"237 309 LINE SMOOTH",
"237 6 OFFCURVE",
"218 14 OFFCURVE",
"98 14 CURVE",
"98 -99 LINE",
"335 -99 OFFCURVE",
"386 -50 OFFCURVE",
"386 313 CURVE SMOOTH",
"386 1388 LINE SMOOTH",
"386 1751 OFFCURVE",
"335 1800 OFFCURVE",
"98 1800 CURVE"
);
}
);
width = 519;
}
);
unicode = 0029;
},
{
glyphname = emdash;
lastChange = "2013-01-01 14:08:13 -0800";
layers = (
{
layerId = "7DA9E391-A28A-4B33-B824-B8724EAC872C";
name = "Regular Condensed";
paths = (
{
closed = 1;
nodes = (
"100 741 LINE",
"100 626 LINE",
"1052 626 LINE",
"1052 741 LINE"
);
}
);
width = 1153;
}
);
unicode = 2014;
},
{
glyphname = endash;
lastChange = "2013-01-01 14:08:29 -0800";
layers = (
{
layerId = "7DA9E391-A28A-4B33-B824-B8724EAC872C";
name = "Regular Condensed";
paths = (
{
closed = 1;
nodes = (
"120 741 LINE",
"120 626 LINE",
"636 626 LINE",
"636 741 LINE"
);
}
);
width = 756;
}
);
unicode = 2013;
},
{
glyphname = hyphen;
lastChange = "2013-01-01 02:52:26 -0800";
layers = (
{
layerId = "7DA9E391-A28A-4B33-B824-B8724EAC872C";
name = "Regular Condensed";
paths = (
{
closed = 1;
nodes = (
"88 958 LINE",
"88 858 LINE",
"516 858 LINE",
"516 958 LINE"
);
}
);
width = 696;
}
);
unicode = 002D;
},
{
glyphname = uni00AD;
lastChange = "2013-01-01 14:08:45 -0800";
layers = (
{
layerId = "7DA9E391-A28A-4B33-B824-B8724EAC872C";
name = "Regular Condensed";
paths = (
{
closed = 1;
nodes = (
"90 741 LINE",
"90 626 LINE",
"606 626 LINE",
"606 741 LINE"
);
}
);
width = 696;
}
);
unicode = 00AD;
},
{
glyphname = guillemotleft;
lastChange = "2013-01-01 02:52:26 -0800";
layers = (
{
layerId = "7DA9E391-A28A-4B33-B824-B8724EAC872C";
name = "Regular Condensed";
paths = (
{
closed = 1;
nodes = (
"599 794 LINE",
"599 699 LINE",
"1065 414 LINE",
"1065 574 LINE",
"753 749 LINE",
"1065 915 LINE",
"1065 1065 LINE"
);
},
{
closed = 1;
nodes = (
"76 794 LINE",
"76 699 LINE",
"542 414 LINE",
"542 574 LINE",
"230 749 LINE",
"542 915 LINE",
"542 1065 LINE"
);
}
);
width = 1304;
}
);
unicode = 00AB;
},
{
glyphname = guillemotright;
lastChange = "2013-01-01 02:52:26 -0800";
layers = (
{
layerId = "7DA9E391-A28A-4B33-B824-B8724EAC872C";
name = "Regular Condensed";
paths = (
{
closed = 1;
nodes = (
"716 915 LINE",
"1028 749 LINE",
"716 574 LINE",
"716 414 LINE",
"1182 699 LINE",
"1182 794 LINE",
"716 1065 LINE"
);
},
{
closed = 1;
nodes = (
"193 915 LINE",
"505 749 LINE",
"193 574 LINE",
"193 414 LINE",
"659 699 LINE",
"659 794 LINE",
"193 1065 LINE"
);
}
);
width = 1304;
}
);
unicode = 00BB;
},
{
glyphname = guilsinglleft;
lastChange = "2013-01-01 02:52:26 -0800";
layers = (
{
layerId = "7DA9E391-A28A-4B33-B824-B8724EAC872C";
name = "Regular Condensed";
paths = (
{
closed = 1;
nodes = (
"82 794 LINE",
"82 699 LINE",
"548 414 LINE",
"548 574 LINE",
"236 749 LINE",
"548 915 LINE",
"548 1065 LINE"
);
}
);
width = 606;
}
);
unicode = 2039;
},
{
glyphname = guilsinglright;
lastChange = "2013-01-01 02:52:26 -0800";
layers = (
{
layerId = "7DA9E391-A28A-4B33-B824-B8724EAC872C";
name = "Regular Condensed";
paths = (
{
closed = 1;
nodes = (
"166 915 LINE",
"478 749 LINE",
"166 574 LINE",
"166 414 LINE",
"632 699 LINE",
"632 794 LINE",
"166 1065 LINE"
);
}
);
width = 727;
}
);
unicode = 203A;
},
{
glyphname = quotedblbase;
lastChange = "2013-01-01 02:52:26 -0800";
layers = (
{
layerId = "7DA9E391-A28A-4B33-B824-B8724EAC872C";
name = "Regular Condensed";
paths = (
{
closed = 1;
nodes = (
"628 206 LINE",
"628 0 LINE",
"774 0 LINE",
"680 -428 LINE",
"783 -428 LINE",
"903 9 LINE",
"903 206 LINE"
);
},
{
closed = 1;
nodes = (
"181 206 LINE",
"181 0 LINE",
"327 0 LINE",
"233 -428 LINE",
"336 -428 LINE",
"456 9 LINE",
"456 206 LINE"
);
}
);
width = 1016;
}
);
unicode = 201E;
},
{
glyphname = quotedblleft;
lastChange = "2013-01-01 02:52:26 -0800";
layers = (
{
layerId = "7DA9E391-A28A-4B33-B824-B8724EAC872C";
name = "Regular Condensed";
paths = (
{
closed = 1;
nodes = (
"742 1783 LINE",
"623 1346 LINE",
"623 1149 LINE",
"898 1149 LINE",
"898 1355 LINE",
"752 1355 LINE",
"845 1783 LINE"
);
},
{
closed = 1;
nodes = (
"295 1783 LINE",
"176 1346 LINE",
"176 1149 LINE",
"451 1149 LINE",
"451 1355 LINE",
"305 1355 LINE",
"399 1783 LINE"
);
}
);
width = 1030;
}
);
unicode = 201C;
},
{
glyphname = quotedblright;
lastChange = "2013-01-01 02:52:26 -0800";
layers = (
{
layerId = "7DA9E391-A28A-4B33-B824-B8724EAC872C";
name = "Regular Condensed";
paths = (
{
closed = 1;
nodes = (
"638 1783 LINE",
"638 1577 LINE",
"783 1577 LINE",
"690 1149 LINE",
"793 1149 LINE",
"913 1586 LINE",
"913 1783 LINE"
);
},
{
closed = 1;
nodes = (
"191 1783 LINE",
"191 1577 LINE",
"337 1577 LINE",
"243 1149 LINE",
"346 1149 LINE",
"466 1586 LINE",
"466 1783 LINE"
);
}
);
width = 1077;
}
);
unicode = 201D;
},
{
glyphname = quoteleft;
lastChange = "2013-01-01 02:52:26 -0800";
layers = (
{
layerId = "7DA9E391-A28A-4B33-B824-B8724EAC872C";
name = "Regular Condensed";
paths = (
{
closed = 1;
nodes = (
"281 1783 LINE",
"167 1357 LINE",
"167 1164 LINE",
"438 1164 LINE",
"438 1366 LINE",
"296 1366 LINE",
"387 1783 LINE"
);
}
);
width = 597;
}
);
unicode = 2018;
},
{
glyphname = quoteright;
lastChange = "2013-01-01 14:01:06 -0800";
layers = (
{
anchors = (
{
name = _center;
position = "{104.812, 1475.59}";
}
);
layerId = "7DA9E391-A28A-4B33-B824-B8724EAC872C";
name = "Regular Condensed";
paths = (
{
closed = 1;
nodes = (
"189 1783 LINE",
"189 1581 LINE",
"331 1581 LINE",
"240 1164 LINE",
"346 1164 LINE",
"460 1590 LINE",
"460 1783 LINE"
);
}
);
width = 597;
}
);
unicode = 2019;
},
{
glyphname = quotesinglbase;
lastChange = "2013-01-01 02:52:26 -0800";
layers = (
{
layerId = "7DA9E391-A28A-4B33-B824-B8724EAC872C";
name = "Regular Condensed";
paths = (
{
closed = 1;
nodes = (
"113 207 LINE",
"113 0 LINE",
"259 0 LINE",
"166 -437 LINE",
"269 -437 LINE",
"388 9 LINE",
"388 207 LINE"
);
}
);
width = 484;
}
);
unicode = 201A;
},
{
glyphname = .notdef;
lastChange = "2013-01-01 02:52:26 -0800";
layers = (
{
layerId = "7DA9E391-A28A-4B33-B824-B8724EAC872C";
name = "Regular Condensed";
paths = (
{
closed = 1;
nodes = (
"102 1092 LINE",
"102 0 LINE",
"922 0 LINE",
"922 1092 LINE"
);
},
{
closed = 1;
nodes = (
"820 102 LINE",
"204 102 LINE",
"204 990 LINE",
"820 990 LINE"
);
}
);
width = 1024;
}
);
},
{
glyphname = florin;
lastChange = "2013-01-01 02:52:26 -0800";
layers = (
{
layerId = "7DA9E391-A28A-4B33-B824-B8724EAC872C";
name = "Regular Condensed";
paths = (
{
closed = 1;
nodes = (
"378 1787 OFFCURVE",
"316 1703 OFFCURVE",
"316 1539 CURVE SMOOTH",
"316 1252 LINE",
"107 1252 LINE",
"107 1146 LINE",
"316 1146 LINE",
"316 305 LINE SMOOTH",
"316 160 OFFCURVE",
"297 128 OFFCURVE",
"170 128 CURVE SMOOTH",
"154 128 OFFCURVE",
"135 129 OFFCURVE",
"115 130 CURVE",
"115 8 LINE",
"170 -6 OFFCURVE",
"215 -12 OFFCURVE",
"252 -12 CURVE SMOOTH",
"390 -12 OFFCURVE",
"453 68 OFFCURVE",
"453 221 CURVE SMOOTH",
"453 1146 LINE",
"667 1146 LINE",
"667 1252 LINE",
"453 1252 LINE",
"453 1521 LINE SMOOTH",
"453 1614 OFFCURVE",
"475 1654 OFFCURVE",
"538 1654 CURVE SMOOTH",
"566 1654 OFFCURVE",
"604 1645 OFFCURVE",
"652 1630 CURVE",
"652 1752 LINE",
"590 1775 OFFCURVE",
"537 1787 OFFCURVE",
"496 1787 CURVE SMOOTH"
);
}
);
width = 767;
}
);
unicode = 0192;
},
{
glyphname = cent;
lastChange = "2013-01-01 02:52:30 -0800";
layers = (
{
components = (
{
name = c;
transform = "{1, 0, 0, 1, 0, 0}";
}
);
layerId = "7DA9E391-A28A-4B33-B824-B8724EAC872C";
name = "Regular Condensed";
paths = (
{
closed = 1;
nodes = (
"335 1768 LINE",
"335 1513 LINE",
"448 1511 LINE",
"448 1768 LINE"
);
},
{
closed = 1;
nodes = (
"335 6 LINE",
"335 -249 LINE",
"448 -249 LINE",
"448 6 LINE"
);
}
);
width = 788;
}
);
unicode = 00A2;
},
{
glyphname = currency;
lastChange = "2013-01-01 16:30:42 -0800";
layers = (
{
layerId = "7DA9E391-A28A-4B33-B824-B8724EAC872C";
name = "Regular Condensed";
paths = (
{
closed = 1;
nodes = (
"797 1634 LINE",
"732 1670 OFFCURVE",
"659 1688 OFFCURVE",
"579 1688 CURVE SMOOTH",
"498 1688 OFFCURVE",
"426 1670 OFFCURVE",
"361 1633 CURVE",
"274 1721 LINE",
"125 1571 LINE",
"215 1481 LINE",
"180 1416 OFFCURVE",
"163 1345 OFFCURVE",
"163 1267 CURVE SMOOTH",
"163 1190 OFFCURVE",
"181 1118 OFFCURVE",
"216 1053 CURVE",
"125 962 LINE",
"274 812 LINE",
"363 901 LINE",
"424 866 OFFCURVE",
"496 848 OFFCURVE",
"579 848 CURVE SMOOTH",
"661 848 OFFCURVE",
"733 865 OFFCURVE",
"795 900 CURVE",
"884 812 LINE",
"1034 961 LINE",
"944 1051 LINE",
"980 1116 OFFCURVE",
"998 1188 OFFCURVE",
"998 1267 CURVE SMOOTH",
"998 1346 OFFCURVE",
"980 1417 OFFCURVE",
"944 1482 CURVE",
"1034 1572 LINE",
"884 1721 LINE"
);
},
{
closed = 1;
nodes = (
"762 1582 OFFCURVE",
"876 1449 OFFCURVE",
"876 1269 CURVE SMOOTH",
"876 1094 OFFCURVE",
"760 951 OFFCURVE",
"579 951 CURVE SMOOTH",
"398 951 OFFCURVE",
"283 1092 OFFCURVE",
"283 1267 CURVE SMOOTH",
"283 1441 OFFCURVE",
"399 1582 OFFCURVE",
"579 1582 CURVE SMOOTH"
);
}
);
width = 1159;
}
);
unicode = 00A4;
},
{
glyphname = dollar;
lastChange = "2013-01-01 14:50:09 -0800";
layers = (
{
components = (
{
name = s;
transform = "{1, 0, 0, 1, 0, -2}";
}
);
layerId = "7DA9E391-A28A-4B33-B824-B8724EAC872C";
name = "Regular Condensed";
paths = (
{
closed = 1;
nodes = (
"327 1760 LINE",
"327 1468 LINE",
"434 1468 LINE",
"434 1760 LINE"
);
},
{
closed = 1;
nodes = (
"348 17 LINE",
"348 -271 LINE",
"455 -271 LINE",
"455 17 LINE"
);
}
);
width = 860;
}
);
unicode = 0024;
},
{
glyphname = sterling;
lastChange = "2013-01-01 16:29:56 -0800";
layers = (
{
layerId = "7DA9E391-A28A-4B33-B824-B8724EAC872C";
name = "Regular Condensed";
paths = (
{
closed = 1;
nodes = (
"606 1782 OFFCURVE",
"473 1782 CURVE SMOOTH",
"265 1782 OFFCURVE",
"162 1643 OFFCURVE",
"162 1386 CURVE SMOOTH",
"162 1262 OFFCURVE",
"186 1112 OFFCURVE",
"233 936 CURVE",
"78 936 LINE",
"78 833 LINE",
"261 833 LINE",
"273 771 OFFCURVE",
"280 698 OFFCURVE",
"280 633 CURVE SMOOTH",
"280 308 OFFCURVE",
"226 158 OFFCURVE",
"62 86 CURVE",
"62 0 LINE",
"766 0 LINE",
"766 107 LINE",
"277 107 LINE",
"389 225 OFFCURVE",
"415 420 OFFCURVE",
"415 583 CURVE SMOOTH",
"415 691 OFFCURVE",
"404 786 OFFCURVE",
"398 833 CURVE",
"684 833 LINE",
"684 936 LINE",
"378 936 LINE",
"323 1148 OFFCURVE",
"300 1301 OFFCURVE",
"300 1409 CURVE SMOOTH",
"300 1604 OFFCURVE",
"374 1656 OFFCURVE",
"464 1656 CURVE SMOOTH",
"565 1656 OFFCURVE",
"642 1591 OFFCURVE",
"642 1393 CURVE SMOOTH",
"642 1246 LINE",
"775 1246 LINE",
"775 1381 LINE SMOOTH",
"775 1710 OFFCURVE"
);
}
);
width = 809;
}
);
unicode = 00A3;
},
{
glyphname = yen;
lastChange = "2013-01-01 02:52:30 -0800";
layers = (
{
components = (
{
name = Y;
transform = "{1, 0, 0, 1, 0, 0}";
}
);
layerId = "7DA9E391-A28A-4B33-B824-B8724EAC872C";
name = "Regular Condensed";
paths = (
{
closed = 1;
nodes = (
"77 824 LINE",
"77 741 LINE",
"412 741 LINE",
"412 544 LINE",
"77 544 LINE",
"77 462 LINE",
"753 462 LINE",
"753 544 LINE",
"465 544 LINE",
"465 741 LINE",
"753 741 LINE",
"753 824 LINE"
);
}
);
width = 821;
}
);
unicode = 00A5;
},
{
glyphname = approxequal;
lastChange = "2013-01-01 02:52:26 -0800";
layers = (
{
layerId = "7DA9E391-A28A-4B33-B824-B8724EAC872C";
name = "Regular Condensed";
paths = (
{
closed = 1;
nodes = (
"825 1092 OFFCURVE",
"792 1050 OFFCURVE",
"746 1044 CURVE SMOOTH",
"682 1044 OFFCURVE",
"450 1123 OFFCURVE",
"346 1123 CURVE SMOOTH",
"258 1123 OFFCURVE",
"184 1061 OFFCURVE",
"132 937 CURVE",
"260 862 LINE",
"286 922 OFFCURVE",
"320 955 OFFCURVE",
"355 955 CURVE SMOOTH",
"461 955 OFFCURVE",
"659 875 OFFCURVE",
"773 875 CURVE SMOOTH",
"871 875 OFFCURVE",
"942 933 OFFCURVE",
"989 1120 CURVE",
"846 1162 LINE"
);
},
{
closed = 1;
nodes = (
"825 689 OFFCURVE",
"792 647 OFFCURVE",
"746 642 CURVE SMOOTH",
"682 642 OFFCURVE",
"450 721 OFFCURVE",
"346 721 CURVE SMOOTH",
"258 721 OFFCURVE",
"184 658 OFFCURVE",
"132 535 CURVE",
"260 460 LINE",
"286 520 OFFCURVE",
"320 553 OFFCURVE",
"355 553 CURVE SMOOTH",
"461 553 OFFCURVE",
"659 473 OFFCURVE",
"773 473 CURVE SMOOTH",
"871 473 OFFCURVE",
"942 531 OFFCURVE",
"989 718 CURVE",
"846 760 LINE"
);
}
);
width = 1117;
}
);
unicode = 2248;
},
{
glyphname = asciitilde;
lastChange = "2013-01-01 02:52:26 -0800";
layers = (
{
layerId = "7DA9E391-A28A-4B33-B824-B8724EAC872C";
name = "Regular Condensed";
paths = (
{
closed = 1;
nodes = (
"814 1070 OFFCURVE",
"781 1028 OFFCURVE",
"735 1022 CURVE SMOOTH",
"671 1022 OFFCURVE",
"439 1101 OFFCURVE",
"335 1101 CURVE SMOOTH",
"247 1101 OFFCURVE",
"173 1039 OFFCURVE",
"121 915 CURVE",
"249 840 LINE",
"275 901 OFFCURVE",
"311 933 OFFCURVE",
"344 933 CURVE SMOOTH",
"450 933 OFFCURVE",
"648 853 OFFCURVE",
"762 853 CURVE SMOOTH",
"860 853 OFFCURVE",
"931 911 OFFCURVE",
"978 1098 CURVE",
"835 1140 LINE"
);
}
);
width = 1117;
}
);
unicode = 007E;
},
{
glyphname = divide;
lastChange = "2013-01-01 16:43:01 -0800";
layers = (
{
layerId = "7DA9E391-A28A-4B33-B824-B8724EAC872C";
name = "Regular Condensed";
paths = (
{
closed = 1;
nodes = (
"94 823 LINE",
"94 708 LINE",
"710 708 LINE",
"710 823 LINE"
);
},
{
closed = 1;
nodes = (
"303 535 LINE",
"303 327 LINE",
"501 327 LINE",
"501 535 LINE"
);
},
{
closed = 1;
nodes = (
"303 1174 LINE",
"303 976 LINE",
"501 976 LINE",
"501 1174 LINE"
);
}
);
width = 804;
}
);
unicode = 00F7;
},
{
glyphname = equal;
lastChange = "2013-01-01 02:52:26 -0800";
layers = (
{
layerId = "7DA9E391-A28A-4B33-B824-B8724EAC872C";
name = "Regular Condensed";
paths = (
{
closed = 1;
nodes = (
"104 1025 LINE",
"104 892 LINE",
"618 892 LINE",
"618 1025 LINE"
);
},
{
closed = 1;
nodes = (
"104 733 LINE",
"104 601 LINE",
"618 601 LINE",
"618 733 LINE"
);
}
);
width = 722;
}
);
unicode = 003D;
},
{
glyphname = greater;
lastChange = "2013-01-01 02:52:26 -0800";
layers = (
{
layerId = "7DA9E391-A28A-4B33-B824-B8724EAC872C";
name = "Regular Condensed";
paths = (
{
closed = 1;
nodes = (
"84 1059 LINE",
"552 749 LINE",
"84 456 LINE",
"84 288 LINE",
"663 684 LINE",
"663 818 LINE",
"84 1219 LINE"
);
}
);
width = 730;
}
);
unicode = 003E;
},
{
glyphname = greaterequal;
lastChange = "2013-01-01 02:52:26 -0800";
layers = (
{
layerId = "7DA9E391-A28A-4B33-B824-B8724EAC872C";
name = "Regular Condensed";
paths = (
{
closed = 1;
nodes = (
"100 1042 LINE",
"567 749 LINE",
"100 439 LINE",
"100 279 LINE",
"679 679 LINE",
"679 813 LINE",
"100 1209 LINE"
);
},
{
closed = 1;
nodes = (
"92 111 LINE",
"92 0 LINE",
"641 0 LINE",
"641 111 LINE"
);
}
);
width = 781;
}
);
unicode = 2265;
},
{
glyphname = infinity;
lastChange = "2013-01-01 16:33:03 -0800";
layers = (
{
layerId = "7DA9E391-A28A-4B33-B824-B8724EAC872C";
name = "Regular Condensed";
paths = (
{
closed = 1;
nodes = (
"838 1041 OFFCURVE",
"729 967 OFFCURVE",
"639 855 CURVE",
"546 959 OFFCURVE",
"439 1028 OFFCURVE",
"370 1028 CURVE SMOOTH",
"201 1028 OFFCURVE",
"88 914 OFFCURVE",
"88 744 CURVE SMOOTH",
"88 569 OFFCURVE",
"201 452 OFFCURVE",
"370 452 CURVE SMOOTH",
"445 452 OFFCURVE",
"552 517 OFFCURVE",
"639 615 CURVE",
"722 509 OFFCURVE",
"831 439 OFFCURVE",
"912 439 CURVE SMOOTH",
"1086 439 OFFCURVE",
"1202 561 OFFCURVE",
"1202 744 CURVE SMOOTH",
"1202 922 OFFCURVE",
"1086 1041 OFFCURVE",
"912 1041 CURVE SMOOTH"
);
},
{
closed = 1;
nodes = (
"442 901 OFFCURVE",
"527 837 OFFCURVE",
"588 740 CURVE",
"526 643 OFFCURVE",
"440 578 OFFCURVE",
"374 578 CURVE SMOOTH",
"280 578 OFFCURVE",
"218 643 OFFCURVE",
"218 740 CURVE SMOOTH",
"218 837 OFFCURVE",
"280 901 OFFCURVE",
"374 901 CURVE SMOOTH"
);
},
{
closed = 1;
nodes = (
"1008 902 OFFCURVE",
"1074 837 OFFCURVE",
"1074 740 CURVE SMOOTH",
"1074 643 OFFCURVE",
"1008 578 OFFCURVE",
"910 578 CURVE SMOOTH",
"835 578 OFFCURVE",
"744 643 OFFCURVE",
"683 740 CURVE",
"750 837 OFFCURVE",
"841 902 OFFCURVE",
"910 902 CURVE SMOOTH"
);
}
);
width = 1300;
}
);
unicode = 221E;
},
{
glyphname = integral;
lastChange = "2013-01-01 02:52:26 -0800";
layers = (
{
layerId = "7DA9E391-A28A-4B33-B824-B8724EAC872C";
name = "Regular Condensed";
paths = (
{
closed = 1;
nodes = (
"378 1787 OFFCURVE",
"316 1703 OFFCURVE",
"316 1539 CURVE SMOOTH",
"316 305 LINE SMOOTH",
"316 160 OFFCURVE",
"297 128 OFFCURVE",
"170 128 CURVE SMOOTH",
"154 128 OFFCURVE",
"135 129 OFFCURVE",
"115 130 CURVE",
"115 8 LINE",
"170 -6 OFFCURVE",
"215 -12 OFFCURVE",
"252 -12 CURVE SMOOTH",
"390 -12 OFFCURVE",
"453 68 OFFCURVE",
"453 221 CURVE SMOOTH",
"453 1521 LINE SMOOTH",
"453 1614 OFFCURVE",
"475 1654 OFFCURVE",
"538 1654 CURVE SMOOTH",
"566 1654 OFFCURVE",
"604 1645 OFFCURVE",
"652 1630 CURVE",
"652 1752 LINE",
"590 1775 OFFCURVE",
"537 1787 OFFCURVE",
"496 1787 CURVE SMOOTH"
);
}
);
width = 767;
}
);
unicode = 222B;
},
{
glyphname = less;
lastChange = "2013-01-01 02:52:26 -0800";
layers = (
{
layerId = "7DA9E391-A28A-4B33-B824-B8724EAC872C";
name = "Regular Condensed";
paths = (
{
closed = 1;
nodes = (
"63 823 LINE",
"63 688 LINE",
"642 288 LINE",
"642 448 LINE",
"174 758 LINE",
"642 1051 LINE",
"642 1219 LINE"
);
}
);
width = 730;
}
);
unicode = 003C;
},
{
glyphname = lessequal;
lastChange = "2013-01-01 02:52:26 -0800";
layers = (
{
layerId = "7DA9E391-A28A-4B33-B824-B8724EAC872C";
name = "Regular Condensed";
paths = (
{
closed = 1;
nodes = (
"59 813 LINE",
"59 679 LINE",
"638 279 LINE",
"638 439 LINE",
"171 749 LINE",
"638 1042 LINE",
"638 1209 LINE"
);
},
{
closed = 1;
nodes = (
"93 111 LINE",
"93 0 LINE",
"642 0 LINE",
"642 111 LINE"
);
}
);
width = 781;
}
);
unicode = 2264;
},
{
glyphname = logicalnot;
lastChange = "2013-01-01 16:42:08 -0800";
layers = (
{
layerId = "7DA9E391-A28A-4B33-B824-B8724EAC872C";
name = "Regular Condensed";
paths = (
{
closed = 1;
nodes = (
"97 858 LINE",
"97 743 LINE",
"701 743 LINE",
"701 439 LINE",
"826 439 LINE",
"826 858 LINE"
);
}
);
width = 947;
}
);
unicode = 00AC;
},
{
glyphname = minus;
lastChange = "2013-01-01 16:41:46 -0800";
layers = (
{
layerId = "7DA9E391-A28A-4B33-B824-B8724EAC872C";
name = "Regular Condensed";
paths = (
{
closed = 1;
nodes = (
"20 741 LINE",
"20 626 LINE",
"616 626 LINE",
"616 741 LINE"
);
}
);
width = 637;
}
);
unicode = 2212;
},
{
glyphname = multiply;
lastChange = "2013-01-01 02:52:26 -0800";
layers = (
{
layerId = "7DA9E391-A28A-4B33-B824-B8724EAC872C";
name = "Regular Condensed";
paths = (
{
closed = 1;
nodes = (
"355 789 LINE",
"208 936 LINE",
"44 772 LINE",
"191 625 LINE",
"44 478 LINE",
"208 314 LINE",
"355 461 LINE",
"502 314 LINE",
"666 478 LINE",
"519 625 LINE",
"666 772 LINE",
"502 936 LINE"
);
}
);
width = 710;
}
);
unicode = 00D7;
},
{
glyphname = partialdiff;
lastChange = "2013-01-01 02:52:26 -0800";
layers = (
{
layerId = "7DA9E391-A28A-4B33-B824-B8724EAC872C";
name = "Regular Condensed";
paths = (
{
closed = 1;
nodes = (
"513 1681 OFFCURVE",
"383 1656 OFFCURVE",
"229 1607 CURVE",
"283 1376 LINE",
"334 1396 OFFCURVE",
"432 1415 OFFCURVE",
"507 1415 CURVE SMOOTH",
"626 1415 OFFCURVE",
"665 1306 OFFCURVE",
"665 1164 CURVE SMOOTH",
"665 1132 OFFCURVE",
"661 1093 OFFCURVE",
"654 1047 CURVE",
"577 1073 OFFCURVE",
"508 1086 OFFCURVE",
"445 1086 CURVE SMOOTH",
"123 1086 OFFCURVE",
"37 735 OFFCURVE",
"37 413 CURVE SMOOTH",
"37 127 OFFCURVE",
"158 -21 OFFCURVE",
"446 -21 CURVE SMOOTH",
"669 -21 OFFCURVE",
"811 54 OFFCURVE",
"890 196 CURVE SMOOTH",
"977 354 OFFCURVE",
"1030 1074 OFFCURVE",
"1030 1159 CURVE SMOOTH",
"1030 1479 OFFCURVE",
"928 1681 OFFCURVE",
"619 1681 CURVE SMOOTH"
);
},
{
closed = 1;
nodes = (
"560 794 OFFCURVE",
"589 782 OFFCURVE",
"622 759 CURVE",
"591 419 LINE SMOOTH",
"585 349 OFFCURVE",
"556 293 OFFCURVE",
"490 293 CURVE SMOOTH",
"432 293 OFFCURVE",
"417 332 OFFCURVE",
"417 391 CURVE SMOOTH",
"417 411 OFFCURVE",
"419 439 OFFCURVE",
"423 475 CURVE SMOOTH",
"440 645 LINE SMOOTH",
"450 744 OFFCURVE",
"481 794 OFFCURVE",
"534 794 CURVE SMOOTH"
);
}
);
width = 1072;
}
);
unicode = 2202;
},
{
glyphname = percent;
lastChange = "2013-01-01 02:52:26 -0800";
layers = (
{
layerId = "7DA9E391-A28A-4B33-B824-B8724EAC872C";
name = "Regular Condensed";
paths = (
{
closed = 1;
nodes = (
"1372 1760 LINE",
"642 0 LINE",
"790 0 LINE",
"1512 1760 LINE"
);
},
{
closed = 1;
nodes = (
"570 1646 OFFCURVE",
"601 1601 OFFCURVE",
"601 1436 CURVE SMOOTH",
"601 936 LINE SMOOTH",
"601 765 OFFCURVE",
"571 718 OFFCURVE",
"464 718 CURVE SMOOTH",
"358 718 OFFCURVE",
"327 765 OFFCURVE",
"327 936 CURVE SMOOTH",
"327 1436 LINE SMOOTH",
"327 1601 OFFCURVE",
"359 1646 OFFCURVE",
"464 1646 CURVE SMOOTH"
);
},
{
closed = 1;
nodes = (
"242 1782 OFFCURVE",
"180 1691 OFFCURVE",
"180 1364 CURVE SMOOTH",
"180 1012 LINE SMOOTH",
"180 672 OFFCURVE",
"241 581 OFFCURVE",
"464 581 CURVE SMOOTH",
"688 581 OFFCURVE",
"749 672 OFFCURVE",
"749 1012 CURVE SMOOTH",
"749 1364 LINE SMOOTH",
"749 1691 OFFCURVE",
"687 1782 OFFCURVE",
"464 1782 CURVE SMOOTH"
);
},
{
closed = 1;
nodes = (
"1461 1181 OFFCURVE",
"1399 1090 OFFCURVE",
"1399 763 CURVE SMOOTH",
"1399 411 LINE SMOOTH",
"1399 71 OFFCURVE",
"1460 -20 OFFCURVE",
"1684 -20 CURVE SMOOTH",
"1907 -20 OFFCURVE",
"1968 71 OFFCURVE",
"1968 411 CURVE SMOOTH",
"1968 763 LINE SMOOTH",
"1968 1090 OFFCURVE",
"1906 1181 OFFCURVE",
"1684 1181 CURVE SMOOTH"
);
},
{
closed = 1;
nodes = (
"1789 1045 OFFCURVE",
"1821 1000 OFFCURVE",
"1821 835 CURVE SMOOTH",
"1821 335 LINE SMOOTH",
"1821 164 OFFCURVE",
"1790 117 OFFCURVE",
"1684 117 CURVE SMOOTH",
"1578 117 OFFCURVE",
"1547 164 OFFCURVE",
"1547 335 CURVE SMOOTH",
"1547 835 LINE SMOOTH",
"1547 1000 OFFCURVE",
"1578 1045 OFFCURVE",
"1684 1045 CURVE SMOOTH"
);
}
);
width = 2148;
}
);
unicode = 0025;
},
{
glyphname = perthousand;
lastChange = "2013-01-01 02:52:26 -0800";
layers = (
{
layerId = "7DA9E391-A28A-4B33-B824-B8724EAC872C";
name = "Regular Condensed";
paths = (
{
closed = 1;
nodes = (
"1372 1760 LINE",
"642 0 LINE",
"790 0 LINE",
"1512 1760 LINE"
);
},
{
closed = 1;
nodes = (
"570 1646 OFFCURVE",
"601 1601 OFFCURVE",
"601 1436 CURVE SMOOTH",
"601 936 LINE",
"601 765 OFFCURVE",
"571 718 OFFCURVE",
"464 718 CURVE SMOOTH",
"358 718 OFFCURVE",
"327 765 OFFCURVE",
"327 936 CURVE SMOOTH",
"327 1436 LINE",
"327 1601 OFFCURVE",
"359 1646 OFFCURVE",
"464 1646 CURVE SMOOTH"
);
},
{
closed = 1;
nodes = (
"242 1782 OFFCURVE",
"180 1691 OFFCURVE",
"180 1364 CURVE SMOOTH",
"180 1012 LINE",
"180 672 OFFCURVE",
"241 581 OFFCURVE",
"464 581 CURVE SMOOTH",
"688 581 OFFCURVE",
"749 672 OFFCURVE",
"749 1012 CURVE SMOOTH",
"749 1364 LINE",
"749 1691 OFFCURVE",
"687 1782 OFFCURVE",
"464 1782 CURVE SMOOTH"
);
},
{
closed = 1;
nodes = (
"1486 1181 OFFCURVE",
"1424 1090 OFFCURVE",
"1424 763 CURVE SMOOTH",
"1424 411 LINE",
"1424 71 OFFCURVE",
"1484 -20 OFFCURVE",
"1708 -20 CURVE SMOOTH",
"1932 -20 OFFCURVE",
"1992 71 OFFCURVE",
"1992 411 CURVE SMOOTH",
"1992 763 LINE",
"1992 1090 OFFCURVE",
"1930 1181 OFFCURVE",
"1708 1181 CURVE SMOOTH"
);
},
{
closed = 1;
nodes = (
"1813 1045 OFFCURVE",
"1845 1000 OFFCURVE",
"1845 835 CURVE SMOOTH",
"1845 335 LINE",
"1845 164 OFFCURVE",
"1814 117 OFFCURVE",
"1708 117 CURVE SMOOTH",
"1602 117 OFFCURVE",
"1571 164 OFFCURVE",
"1571 335 CURVE SMOOTH",
"1571 835 LINE",
"1571 1000 OFFCURVE",
"1602 1045 OFFCURVE",
"1708 1045 CURVE SMOOTH"
);
},
{
closed = 1;
nodes = (
"2294 1181 OFFCURVE",
"2232 1090 OFFCURVE",
"2232 763 CURVE SMOOTH",
"2232 411 LINE",
"2232 71 OFFCURVE",
"2292 -20 OFFCURVE",
"2516 -20 CURVE SMOOTH",
"2740 -20 OFFCURVE",
"2800 71 OFFCURVE",
"2800 411 CURVE SMOOTH",
"2800 763 LINE",
"2800 1090 OFFCURVE",
"2738 1181 OFFCURVE",
"2516 1181 CURVE SMOOTH"
);
},
{
closed = 1;
nodes = (
"2622 1045 OFFCURVE",
"2653 1000 OFFCURVE",
"2653 835 CURVE SMOOTH",
"2653 335 LINE",
"2653 164 OFFCURVE",
"2622 117 OFFCURVE",
"2516 117 CURVE SMOOTH",
"2410 117 OFFCURVE",
"2379 164 OFFCURVE",
"2379 335 CURVE SMOOTH",
"2379 835 LINE",
"2379 1000 OFFCURVE",
"2411 1045 OFFCURVE",
"2516 1045 CURVE SMOOTH"
);
}
);
width = 3206;
}
);
unicode = 2030;
},
{
glyphname = plus;
lastChange = "2013-01-01 02:52:26 -0800";
layers = (
{
layerId = "7DA9E391-A28A-4B33-B824-B8724EAC872C";
name = "Regular Condensed";
paths = (
{
closed = 1;
nodes = (
"342 1208 LINE",
"342 948 LINE",
"112 948 LINE",
"112 842 LINE",
"342 842 LINE",
"342 576 LINE",
"460 576 LINE",
"460 842 LINE",
"694 842 LINE",
"694 948 LINE",
"460 948 LINE",
"460 1208 LINE"
);
}
);
width = 808;
}
);
unicode = 002B;
},
{
glyphname = plusminus;
lastChange = "2013-01-01 02:52:26 -0800";
layers = (
{
layerId = "7DA9E391-A28A-4B33-B824-B8724EAC872C";
name = "Regular Condensed";
paths = (
{
closed = 1;
nodes = (
"368 1185 LINE",
"368 926 LINE",
"138 926 LINE",
"138 820 LINE",
"368 820 LINE",
"368 554 LINE",
"486 554 LINE",
"486 820 LINE",
"720 820 LINE",
"720 926 LINE",
"486 926 LINE",
"486 1185 LINE"
);
},
{
closed = 1;
nodes = (
"173 377 LINE",
"173 259 LINE",
"689 259 LINE",
"689 377 LINE"
);
}
);
width = 854;
}
);
unicode = 00B1;
},
{
glyphname = product;
lastChange = "2013-01-01 02:52:26 -0800";
layers = (
{
layerId = "7DA9E391-A28A-4B33-B824-B8724EAC872C";
name = "Regular Condensed";
paths = (
{
closed = 1;
nodes = (
"155 1760 LINE",
"155 0 LINE",
"305 0 LINE",
"305 1649 LINE",
"628 1649 LINE",
"628 0 LINE",
"778 0 LINE",
"778 1760 LINE"
);
}
);
width = 933;
}
);
unicode = 220F;
},
{
glyphname = radical;
lastChange = "2013-01-01 02:52:26 -0800";
layers = (
{
layerId = "7DA9E391-A28A-4B33-B824-B8724EAC872C";
name = "Regular Condensed";
paths = (
{
closed = 1;
nodes = (
"609 1500 LINE",
"472 338 LINE",
"358 741 LINE",
"89 741 LINE",
"308 0 LINE",
"682 0 LINE",
"878 1269 LINE",
"1442 1269 LINE",
"1442 1500 LINE"
);
}
);
width = 1537;
}
);
unicode = 221A;
},
{
glyphname = summation;
lastChange = "2013-01-01 02:52:26 -0800";
layers = (
{
layerId = "7DA9E391-A28A-4B33-B824-B8724EAC872C";
name = "Regular Condensed";
paths = (
{
closed = 1;
nodes = (
"102 1761 LINE",
"102 1505 LINE",
"317 881 LINE",
"102 271 LINE",
"102 0 LINE",
"719 0 LINE",
"719 275 LINE",
"466 275 LINE",
"674 880 LINE",
"466 1501 LINE",
"719 1501 LINE",
"719 1761 LINE"
);
}
);
width = 814;
}
);
unicode = 2211;
},
{
glyphname = ampersand;
lastChange = "2013-01-01 02:52:26 -0800";
layers = (
{
layerId = "7DA9E391-A28A-4B33-B824-B8724EAC872C";
name = "Regular Condensed";
paths = (
{
closed = 1;
nodes = (
"273 1782 OFFCURVE",
"176 1670 OFFCURVE",
"176 1443 CURVE SMOOTH",
"176 1195 OFFCURVE",
"689 266 OFFCURVE",
"799 0 CURVE",
"923 0 LINE",
"757 378 OFFCURVE",
"322 1192 OFFCURVE",
"322 1441 CURVE SMOOTH",
"322 1515 OFFCURVE",
"306 1663 OFFCURVE",
"463 1663 CURVE SMOOTH",
"578 1663 OFFCURVE",
"594 1590 OFFCURVE",
"594 1452 CURVE SMOOTH",
"594 996 OFFCURVE",
"60 889 OFFCURVE",
"60 353 CURVE SMOOTH",
"60 96 OFFCURVE",
"192 -20 OFFCURVE",
"364 -20 CURVE SMOOTH",
"731 -20 OFFCURVE",
"677 376 OFFCURVE",
"928 690 CURVE",
"859 797 LINE",
"591 479 OFFCURVE",
"594 105 OFFCURVE",
"382 105 CURVE SMOOTH",
"242 105 OFFCURVE",
"202 220 OFFCURVE",
"213 374 CURVE SMOOTH",
"243 823 OFFCURVE",
"734 1025 OFFCURVE",
"734 1434 CURVE SMOOTH",
"734 1654 OFFCURVE",
"691 1782 OFFCURVE",
"462 1782 CURVE SMOOTH"
);
}
);
width = 915;
}
);
unicode = 0026;
},
{
glyphname = asciicircum;
lastChange = "2013-01-01 02:52:26 -0800";
layers = (
{
layerId = "7DA9E391-A28A-4B33-B824-B8724EAC872C";
name = "Regular Condensed";
paths = (
{
closed = 1;
nodes = (
"411 1500 LINE",
"170 577 LINE",
"321 577 LINE",
"515 1388 LINE",
"709 577 LINE",
"858 577 LINE",
"617 1500 LINE"
);
}
);
width = 1030;
}
);
unicode = 005E;
},
{
glyphname = at;
lastChange = "2013-01-01 12:12:58 -0800";
layers = (
{
layerId = "7DA9E391-A28A-4B33-B824-B8724EAC872C";
name = "Regular Condensed";
paths = (
{
closed = 1;
nodes = (
"240 1781 OFFCURVE",
"91 1385 OFFCURVE",
"91 836 CURVE SMOOTH",
"91 255 OFFCURVE",
"274 -53 OFFCURVE",
"648 -53 CURVE SMOOTH",
"717 -53 OFFCURVE",
"774 -43 OFFCURVE",
"866 -24 CURVE",
"849 88 LINE",
"774 66 OFFCURVE",
"706 60 OFFCURVE",
"651 60 CURVE SMOOTH",
"362 60 OFFCURVE",
"217 258 OFFCURVE",
"217 833 CURVE SMOOTH",
"217 1315 OFFCURVE",
"325 1662 OFFCURVE",
"705 1662 CURVE SMOOTH",
"1091 1662 OFFCURVE",
"1122 1286 OFFCURVE",
"1122 942 CURVE SMOOTH",
"1122 634 OFFCURVE",
"1099 494 OFFCURVE",
"1029 494 CURVE SMOOTH",
"974 494 OFFCURVE",
"957 563 OFFCURVE",
"957 689 CURVE SMOOTH",
"957 1258 LINE",
"885 1258 LINE",
"855 1136 LINE",
"826 1203 OFFCURVE",
"746 1283 OFFCURVE",
"624 1283 CURVE SMOOTH",
"459 1283 OFFCURVE",
"375 1090 OFFCURVE",
"375 810 CURVE SMOOTH",
"375 468 OFFCURVE",
"524 361 OFFCURVE",
"667 361 CURVE SMOOTH",
"764 361 OFFCURVE",
"851 455 OFFCURVE",
"874 585 CURVE",
"889 498 OFFCURVE",
"948 378 OFFCURVE",
"1028 378 CURVE SMOOTH",
"1182 378 OFFCURVE",
"1241 616 OFFCURVE",
"1241 910 CURVE SMOOTH",
"1241 1422 OFFCURVE",
"1103 1781 OFFCURVE",
"718 1781 CURVE SMOOTH"
);
},
{
closed = 1;
nodes = (
"847 759 LINE SMOOTH",
"847 591 OFFCURVE",
"768 473 OFFCURVE",
"667 473 CURVE SMOOTH",
"554 473 OFFCURVE",
"482 553 OFFCURVE",
"482 816 CURVE SMOOTH",
"482 1088 OFFCURVE",
"560 1195 OFFCURVE",
"653 1195 CURVE SMOOTH",
"718 1195 OFFCURVE",
"789 1144 OFFCURVE",
"847 1062 CURVE"
);
}
);
width = 1325;
}
);
unicode = 0040;
},
{
glyphname = bar;
lastChange = "2013-01-01 02:52:26 -0800";
layers = (
{
layerId = "7DA9E391-A28A-4B33-B824-B8724EAC872C";
name = "Regular Condensed";
paths = (
{
closed = 1;
nodes = (
"199 1683 LINE",
"199 -84 LINE",
"352 -84 LINE",
"352 1683 LINE"
);
}
);
width = 537;
}
);
unicode = 007C;
},
{
glyphname = brokenbar;
lastChange = "2013-01-01 16:24:37 -0800";
layers = (
{
layerId = "7DA9E391-A28A-4B33-B824-B8724EAC872C";
name = "Regular Condensed";
paths = (
{
closed = 1;
nodes = (
"122 1761 LINE",
"122 931 LINE",
"275 931 LINE",
"275 1761 LINE"
);
},
{
closed = 1;
nodes = (
"122 724 LINE",
"122 -84 LINE",
"275 -84 LINE",
"275 724 LINE"
);
}
);
width = 530;
}
);
unicode = 00A6;
},
{
glyphname = copyright;
lastChange = "2013-01-01 16:36:58 -0800";
layers = (
{
layerId = "7DA9E391-A28A-4B33-B824-B8724EAC872C";
name = "Regular Condensed";
paths = (
{
closed = 1;
nodes = (
"360 1519 OFFCURVE",
"76 1235 OFFCURVE",
"76 862 CURVE SMOOTH",
"76 489 OFFCURVE",
"360 205 OFFCURVE",
"733 205 CURVE SMOOTH",
"1106 205 OFFCURVE",
"1390 489 OFFCURVE",
"1390 862 CURVE SMOOTH",
"1390 1235 OFFCURVE",
"1106 1519 OFFCURVE",
"733 1519 CURVE SMOOTH"
);
},
{
closed = 1;
nodes = (
"575 1305 OFFCURVE",
"509 1217 OFFCURVE",
"509 1049 CURVE SMOOTH",
"509 648 LINE SMOOTH",
"509 492 OFFCURVE",
"597 424 OFFCURVE",
"736 424 CURVE SMOOTH",
"898 424 OFFCURVE",
"951 493 OFFCURVE",
"951 639 CURVE SMOOTH",
"951 762 LINE",
"850 762 LINE",
"850 653 LINE SMOOTH",
"850 550 OFFCURVE",
"825 508 OFFCURVE",
"734 508 CURVE SMOOTH",
"646 508 OFFCURVE",
"616 563 OFFCURVE",
"616 653 CURVE SMOOTH",
"616 1070 LINE SMOOTH",
"616 1158 OFFCURVE",
"637 1214 OFFCURVE",
"734 1214 CURVE SMOOTH",
"825 1214 OFFCURVE",
"850 1168 OFFCURVE",
"850 1057 CURVE SMOOTH",
"850 976 LINE",
"947 976 LINE",
"947 1109 LINE SMOOTH",
"947 1233 OFFCURVE",
"874 1305 OFFCURVE",
"740 1305 CURVE SMOOTH"
);
},
{
closed = 1;
nodes = (
"1059 1453 OFFCURVE",
"1309 1191 OFFCURVE",
"1309 862 CURVE SMOOTH",
"1309 533 OFFCURVE",
"1059 271 OFFCURVE",
"733 271 CURVE SMOOTH",
"407 271 OFFCURVE",
"157 533 OFFCURVE",
"157 862 CURVE SMOOTH",
"157 1191 OFFCURVE",
"407 1453 OFFCURVE",
"733 1453 CURVE SMOOTH"
);
}
);
width = 1466;
}
);
unicode = 00A9;
},
{
glyphname = dagger;
lastChange = "2013-01-01 02:52:26 -0800";
layers = (
{
layerId = "7DA9E391-A28A-4B33-B824-B8724EAC872C";
name = "Regular Condensed";
paths = (
{
closed = 1;
nodes = (
"382 1592 LINE",
"382 1182 LINE",
"91 1182 LINE",
"91 1066 LINE",
"382 1066 LINE",
"382 0 LINE",
"530 0 LINE",
"530 1066 LINE",
"818 1066 LINE",
"818 1182 LINE",
"530 1182 LINE",
"530 1592 LINE"
);
}
);
width = 909;
}
);
unicode = 2020;
},
{
glyphname = daggerdbl;
lastChange = "2013-01-01 16:26:04 -0800";
layers = (
{
layerId = "7DA9E391-A28A-4B33-B824-B8724EAC872C";
name = "Regular Condensed";
paths = (
{
closed = 1;
nodes = (
"818 1066 LINE",
"818 1182 LINE",
"530 1182 LINE",
"530 1592 LINE",
"382 1592 LINE",
"382 1182 LINE",
"91 1182 LINE",
"91 1066 LINE",
"382 1066 LINE",
"382 612 LINE",
"91 612 LINE",
"91 496 LINE",
"382 496 LINE",
"382 0 LINE",
"530 0 LINE",
"530 496 LINE",
"818 496 LINE",
"818 612 LINE",
"530 612 LINE",
"530 1066 LINE"
);
}
);
width = 927;
}
);
unicode = 2021;
},
{
glyphname = degree;
lastChange = "2013-01-01 02:52:26 -0800";
layers = (
{
layerId = "7DA9E391-A28A-4B33-B824-B8724EAC872C";
name = "Regular Condensed";
paths = (
{
closed = 1;
nodes = (
"243 1607 OFFCURVE",
"104 1480 OFFCURVE",
"104 1269 CURVE SMOOTH",
"104 1057 OFFCURVE",
"243 931 OFFCURVE",
"457 931 CURVE SMOOTH",
"671 931 OFFCURVE",
"811 1058 OFFCURVE",
"811 1269 CURVE SMOOTH",
"811 1480 OFFCURVE",
"671 1607 OFFCURVE",
"457 1607 CURVE SMOOTH"
);
},
{
closed = 1;
nodes = (
"547 1426 OFFCURVE",
"600 1356 OFFCURVE",
"600 1269 CURVE SMOOTH",
"600 1182 OFFCURVE",
"547 1112 OFFCURVE",
"458 1112 CURVE SMOOTH",
"369 1112 OFFCURVE",
"316 1182 OFFCURVE",
"316 1269 CURVE SMOOTH",
"316 1356 OFFCURVE",
"369 1426 OFFCURVE",
"458 1426 CURVE SMOOTH"
);
}
);
width = 915;
}
);
unicode = 00B0;
},
{
glyphname = paragraph;
lastChange = "2013-01-01 02:52:26 -0800";
layers = (
{
layerId = "7DA9E391-A28A-4B33-B824-B8724EAC872C";
name = "Regular Condensed";
paths = (
{
closed = 1;
nodes = (
"666 1761 LINE SMOOTH",
"263 1761 OFFCURVE",
"159 1692 OFFCURVE",
"159 1474 CURVE SMOOTH",
"159 1307 OFFCURVE",
"268 1203 OFFCURVE",
"473 1180 CURVE",
"473 0 LINE",
"636 0 LINE",
"636 1620 LINE",
"779 1620 LINE",
"779 0 LINE",
"942 0 LINE",
"942 1761 LINE"
);
}
);
width = 1119;
}
);
unicode = 00B6;
},
{
glyphname = registered;
lastChange = "2013-01-01 16:40:40 -0800";
layers = (
{
layerId = "7DA9E391-A28A-4B33-B824-B8724EAC872C";
name = "Regular Condensed";
paths = (
{
closed = 1;
nodes = (
"527 1298 LINE",
"527 446 LINE",
"647 446 LINE",
"647 864 LINE",
"767 864 OFFCURVE",
"849 888 OFFCURVE",
"849 748 CURVE SMOOTH",
"849 446 LINE",
"967 446 LINE",
"967 787 LINE SMOOTH",
"967 858 OFFCURVE",
"911 900 OFFCURVE",
"858 910 CURVE",
"930 933 OFFCURVE",
"981 983 OFFCURVE",
"981 1075 CURVE SMOOTH",
"981 1242 OFFCURVE",
"885 1298 OFFCURVE",
"740 1298 CURVE SMOOTH"
);
},
{
closed = 1;
nodes = (
"818 1210 OFFCURVE",
"863 1187 OFFCURVE",
"863 1076 CURVE SMOOTH",
"863 994 OFFCURVE",
"811 951 OFFCURVE",
"726 951 CURVE SMOOTH",
"648 951 LINE",
"648 1210 LINE"
);
},
{
closed = 1;
nodes = (
"360 1519 OFFCURVE",
"76 1235 OFFCURVE",
"76 862 CURVE SMOOTH",
"76 489 OFFCURVE",
"360 205 OFFCURVE",
"733 205 CURVE SMOOTH",
"1106 205 OFFCURVE",
"1390 489 OFFCURVE",
"1390 862 CURVE SMOOTH",
"1390 1235 OFFCURVE",
"1106 1519 OFFCURVE",
"733 1519 CURVE SMOOTH"
);
},
{
closed = 1;
nodes = (
"1059 1453 OFFCURVE",
"1309 1191 OFFCURVE",
"1309 862 CURVE SMOOTH",
"1309 533 OFFCURVE",
"1059 271 OFFCURVE",
"733 271 CURVE SMOOTH",
"407 271 OFFCURVE",
"157 533 OFFCURVE",
"157 862 CURVE SMOOTH",
"157 1191 OFFCURVE",
"407 1453 OFFCURVE",
"733 1453 CURVE SMOOTH"
);
}
);
width = 1502;
}
);
unicode = 00AE;
},
{
glyphname = section;
lastChange = "2013-01-01 02:52:26 -0800";
layers = (
{
layerId = "7DA9E391-A28A-4B33-B824-B8724EAC872C";
name = "Regular Condensed";
paths = (
{
closed = 1;
nodes = (
"292 1781 OFFCURVE",
"125 1662 OFFCURVE",
"125 1433 CURVE SMOOTH",
"125 1328 OFFCURVE",
"166 1218 OFFCURVE",
"248 1143 CURVE",
"166 1067 OFFCURVE",
"125 960 OFFCURVE",
"125 862 CURVE SMOOTH",
"125 697 OFFCURVE",
"238 612 OFFCURVE",
"336 542 CURVE SMOOTH",
"454 457 OFFCURVE",
"566 388 OFFCURVE",
"566 303 CURVE SMOOTH",
"566 240 OFFCURVE",
"543 220 OFFCURVE",
"497 220 CURVE SMOOTH",
"445 220 OFFCURVE",
"406 244 OFFCURVE",
"406 391 CURVE",
"107 391 LINE",
"107 90 OFFCURVE",
"243 -20 OFFCURVE",
"488 -20 CURVE SMOOTH",
"714 -20 OFFCURVE",
"855 91 OFFCURVE",
"855 293 CURVE SMOOTH",
"855 430 OFFCURVE",
"794 511 OFFCURVE",
"700 598 CURVE",
"782 674 OFFCURVE",
"852 781 OFFCURVE",
"852 879 CURVE SMOOTH",
"852 1044 OFFCURVE",
"742 1156 OFFCURVE",
"640 1221 CURVE SMOOTH",
"594 1252 OFFCURVE",
"412 1368 OFFCURVE",
"412 1451 CURVE SMOOTH",
"412 1509 OFFCURVE",
"435 1542 OFFCURVE",
"497 1542 CURVE SMOOTH",
"560 1542 OFFCURVE",
"580 1502 OFFCURVE",
"580 1372 CURVE",
"853 1372 LINE",
"853 1667 OFFCURVE",
"725 1781 OFFCURVE",
"487 1781 CURVE SMOOTH"
);
},
{
closed = 1;
nodes = (
"546 967 OFFCURVE",
"586 906 OFFCURVE",
"586 856 CURVE SMOOTH",
"586 822 OFFCURVE",
"565 775 OFFCURVE",
"541 735 CURVE",
"467 764 OFFCURVE",
"381 822 OFFCURVE",
"381 902 CURVE SMOOTH",
"381 935 OFFCURVE",
"396 974 OFFCURVE",
"426 1017 CURVE"
);
}
);
width = 950;
}
);
unicode = 00A7;
},
{
glyphname = Euro;
lastChange = "2013-01-01 12:14:41 -0800";
layers = (
{
components = (
{
name = C;
transform = "{1, 0, 0, 1, 0, 0}";
}
);
layerId = "7DA9E391-A28A-4B33-B824-B8724EAC872C";
name = "Regular Condensed";
paths = (
{
closed = 1;
nodes = (
"23 1076 LINE",
"23 986 LINE",
"154 986 LINE",
"154 849 LINE",
"23 849 LINE",
"23 751 LINE",
"508 751 LINE",
"508 849 LINE",
"224 849 LINE",
"224 986 LINE",
"508 986 LINE",
"508 1076 LINE"
);
}
);
width = 1076;
}
);
unicode = 20AC;
},
{
glyphname = uni2215;
lastChange = "2013-01-01 02:52:26 -0800";
layers = (
{
layerId = "7DA9E391-A28A-4B33-B824-B8724EAC872C";
name = "Regular Condensed";
paths = (
{
closed = 1;
nodes = (
"536 1768 LINE",
"94 0 LINE",
"231 0 LINE",
"673 1768 LINE"
);
}
);
width = 829;
}
);
unicode = 2215;
},
{
glyphname = trademark;
lastChange = "2013-01-01 02:52:26 -0800";
layers = (
{
layerId = "7DA9E391-A28A-4B33-B824-B8724EAC872C";
name = "Regular Condensed";
paths = (
{
closed = 1;
nodes = (
"1143 1761 LINE",
"956 562 LINE",
"763 1761 LINE",
"631 1761 LINE",
"631 447 LINE",
"727 447 LINE",
"727 1005 LINE",
"710 1525 LINE",
"899 447 LINE",
"1013 447 LINE",
"1195 1525 LINE",
"1179 1005 LINE",
"1179 447 LINE",
"1274 447 LINE",
"1274 1761 LINE"
);
},
{
closed = 1;
nodes = (
"123 1761 LINE",
"123 1674 LINE",
"260 1674 LINE",
"260 447 LINE",
"369 447 LINE",
"369 1674 LINE",
"492 1674 LINE",
"492 1761 LINE"
);
}
);
width = 1407;
}
);
unicode = 2122;
},
{
glyphname = lozenge;
lastChange = "2013-01-01 02:52:26 -0800";
layers = (
{
layerId = "7DA9E391-A28A-4B33-B824-B8724EAC872C";
name = "Regular Condensed";
paths = (
{
closed = 1;
nodes = (
"277 1436 LINE",
"34 713 LINE",
"277 0 LINE",
"648 0 LINE",
"887 713 LINE",
"648 1436 LINE"
);
},
{
closed = 1;
nodes = (
"609 713 LINE",
"475 179 LINE",
"443 179 LINE",
"309 713 LINE",
"443 1247 LINE",
"475 1247 LINE"
);
}
);
width = 921;
}
);
unicode = 25CA;
},
{
glyphname = commaaccentcomb;
lastChange = "2013-01-01 16:34:19 -0800";
layers = (
{
anchors = (
{
name = _bottom;
position = "{256, 389}";
},
{
name = _top;
position = "{308, -321}";
}
);
layerId = "7DA9E391-A28A-4B33-B824-B8724EAC872C";
name = "Regular Condensed";
paths = (
{
closed = 1;
nodes = (
"168 242 LINE",
"168 50 LINE",
"268 50 LINE",
"225 -223 LINE",
"287 -223 LINE",
"365 59 LINE",
"365 242 LINE"
);
}
);
width = 528;
}
);
unicode = 0326;
},
{
glyphname = dblgravecmb;
lastChange = "2013-01-01 02:52:26 -0800";
layers = (
{
anchors = (
{
name = _top;
position = "{412, 1500}";
}
);
layerId = "7DA9E391-A28A-4B33-B824-B8724EAC872C";
name = "Regular Condensed";
paths = (
{
closed = 1;
nodes = (
"9 1912 LINE",
"265 1637 LINE",
"332 1684 LINE",
"144 2009 LINE"
);
},
{
closed = 1;
nodes = (
"312 1912 LINE",
"527 1637 LINE",
"594 1684 LINE",
"443 2009 LINE"
);
}
);
width = 825;
}
);
unicode = 030F;
},
{
glyphname = uni0307;
lastChange = "2013-01-01 14:09:42 -0800";
layers = (
{
anchors = (
{
name = _top;
position = "{286, -150}";
}
);
layerId = "7DA9E391-A28A-4B33-B824-B8724EAC872C";
name = "Regular Condensed";
paths = (
{
closed = 1;
nodes = (
"147 260 LINE",
"147 -8 LINE",
"425 -8 LINE",
"425 260 LINE"
);
}
);
width = 572;
}
);
unicode = 0307;
},
{
glyphname = uni0311;
lastChange = "2013-01-01 02:52:26 -0800";
layers = (
{
anchors = (
{
name = _top;
position = "{508, 1500}";
}
);
layerId = "7DA9E391-A28A-4B33-B824-B8724EAC872C";
name = "Regular Condensed";
paths = (
{
closed = 1;
nodes = (
"369 1803 OFFCURVE",
"310 1722 OFFCURVE",
"313 1609 CURVE SMOOTH",
"313 1596 LINE",
"377 1599 LINE",
"375 1694 OFFCURVE",
"443 1714 OFFCURVE",
"499 1715 CURVE SMOOTH",
"560 1717 OFFCURVE",
"629 1697 OFFCURVE",
"631 1606 CURVE",
"695 1609 LINE",
"695 1624 LINE",
"692 1739 OFFCURVE",
"623 1811 OFFCURVE",
"499 1806 CURVE SMOOTH"
);
}
);
width = 1016;
}
);
unicode = 0311;
},
{
glyphname = uni02C9;
lastChange = "2013-01-01 14:09:22 -0800";
layers = (
{
layerId = "7DA9E391-A28A-4B33-B824-B8724EAC872C";
name = "Regular Condensed";
paths = (
{
closed = 1;
nodes = (
"90 741 LINE",
"90 626 LINE",
"606 626 LINE",
"606 741 LINE"
);
}
);
width = 696;
}
);
unicode = 02C9;
},
{
glyphname = acute;
lastChange = "2013-01-01 02:52:26 -0800";
layers = (
{
anchors = (
{
name = _top;
position = "{274, 1786}";
}
);
layerId = "7DA9E391-A28A-4B33-B824-B8724EAC872C";
name = "Regular Condensed";
paths = (
{
closed = 1;
nodes = (
"100 1989 LINE",
"100 1920 LINE",
"498 2003 LINE",
"498 2147 LINE"
);
}
);
width = 650;
}
);
unicode = 00B4;
},
{
glyphname = breve;
lastChange = "2013-01-01 02:52:26 -0800";
layers = (
{
anchors = (
{
name = _top;
position = "{508, 1500}";
}
);
layerId = "7DA9E391-A28A-4B33-B824-B8724EAC872C";
name = "Regular Condensed";
paths = (
{
closed = 1;
nodes = (
"632 1823 LINE",
"632 1728 OFFCURVE",
"565 1710 OFFCURVE",
"507 1710 CURVE SMOOTH",
"446 1710 OFFCURVE",
"379 1732 OFFCURVE",
"379 1823 CURVE",
"315 1823 LINE",
"315 1808 LINE SMOOTH",
"315 1692 OFFCURVE",
"381 1619 OFFCURVE",
"505 1619 CURVE SMOOTH",
"635 1619 OFFCURVE",
"696 1697 OFFCURVE",
"696 1810 CURVE SMOOTH",
"696 1823 LINE"
);
}
);
width = 1016;
}
);
unicode = 02D8;
},
{
glyphname = caron;
lastChange = "2013-01-01 02:52:26 -0800";
layers = (
{
anchors = (
{
name = _top;
position = "{485, 1500}";
}
);
layerId = "7DA9E391-A28A-4B33-B824-B8724EAC872C";
name = "Regular Condensed";
paths = (
{
closed = 1;
nodes = (
"571 1830 LINE",
"485 1655 LINE",
"399 1830 LINE",
"281 1830 LINE",
"402 1577 LINE",
"568 1577 LINE",
"688 1830 LINE"
);
}
);
width = 970;
}
);
unicode = 02C7;
},
{
glyphname = cedilla;
lastChange = "2013-01-01 02:52:26 -0800";
layers = (
{
anchors = (
{
name = _bottom;
position = "{515, 0}";
}
);
layerId = "7DA9E391-A28A-4B33-B824-B8724EAC872C";
name = "Regular Condensed";
paths = (
{
closed = 1;
nodes = (
"494 0 LINE",
"454 -196 LINE",
"536 -214 OFFCURVE",
"614 -269 OFFCURVE",
"614 -359 CURVE SMOOTH",
"614 -434 OFFCURVE",
"572 -501 OFFCURVE",
"383 -501 CURVE",
"383 -587 LINE",
"414 -593 OFFCURVE",
"442 -596 OFFCURVE",
"470 -596 CURVE SMOOTH",
"626 -596 OFFCURVE",
"739 -492 OFFCURVE",
"739 -376 CURVE SMOOTH",
"739 -297 OFFCURVE",
"688 -211 OFFCURVE",
"560 -147 CURVE",
"551 0 LINE"
);
}
);
width = 1015;
}
);
unicode = 00B8;
},
{
glyphname = circumflex;
lastChange = "2013-01-01 02:52:26 -0800";
layers = (
{
anchors = (
{
name = _top;
position = "{485, 1500}";
}
);
layerId = "7DA9E391-A28A-4B33-B824-B8724EAC872C";
name = "Regular Condensed";
paths = (
{
closed = 1;
nodes = (
"402 1831 LINE",
"281 1577 LINE",
"399 1577 LINE",
"485 1752 LINE",
"571 1577 LINE",
"688 1577 LINE",
"568 1831 LINE"
);
}
);
width = 970;
}
);
unicode = 02C6;
},
{
glyphname = dieresis;
lastChange = "2013-01-01 04:21:26 -0800";
layers = (
{
anchors = (
{
name = _top;
position = "{488, -150}";
}
);
layerId = "7DA9E391-A28A-4B33-B824-B8724EAC872C";
name = "Regular Condensed";
paths = (
{
closed = 1;
nodes = (
"585 95 LINE",
"585 -38 LINE",
"767 -38 LINE",
"767 95 LINE"
);
},
{
closed = 1;
nodes = (
"155 95 LINE",
"155 -38 LINE",
"337 -38 LINE",
"337 95 LINE"
);
}
);
width = 976;
}
);
unicode = 00A8;
},
{
glyphname = dotaccent;
lastChange = "2013-01-01 02:52:26 -0800";
layers = (
{
anchors = (
{
name = _top;
position = "{286, -150}";
}
);
layerId = "7DA9E391-A28A-4B33-B824-B8724EAC872C";
name = "Regular Condensed";
paths = (
{
closed = 1;
nodes = (
"213 78 LINE",
"213 -55 LINE",
"372 -55 LINE",
"372 78 LINE"
);
}
);
width = 572;
}
);
unicode = 02D9;
},
{
glyphname = grave;
lastChange = "2013-01-01 02:52:26 -0800";
layers = (
{
anchors = (
{
name = _top;
position = "{298, -150}";
}
);
layerId = "7DA9E391-A28A-4B33-B824-B8724EAC872C";
name = "Regular Condensed";
paths = (
{
closed = 1;
nodes = (
"136 14 LINE",
"468 -80 LINE",
"468 -11 LINE",
"136 174 LINE"
);
}
);
width = 650;
}
);
unicode = 0060;
},
{
glyphname = hungarumlaut;
lastChange = "2013-01-01 02:52:26 -0800";
layers = (
{
anchors = (
{
name = _top;
position = "{661, -150}";
}
);
layerId = "7DA9E391-A28A-4B33-B824-B8724EAC872C";
name = "Regular Condensed";
paths = (
{
closed = 1;
nodes = (
"703 40 LINE",
"771 0 LINE",
"1034 342 LINE",
"867 431 LINE"
);
},
{
closed = 1;
nodes = (
"452 40 LINE",
"521 11 LINE",
"723 353 LINE",
"559 431 LINE"
);
}
);
width = 1300;
}
);
unicode = 02DD;
},
{
glyphname = macron;
lastChange = "2013-01-01 02:52:26 -0800";
layers = (
{
anchors = (
{
name = _center;
position = "{335, -11}";
},
{
name = _top;
position = "{348, -150}";
}
);
layerId = "7DA9E391-A28A-4B33-B824-B8724EAC872C";
name = "Regular Condensed";
paths = (
{
closed = 1;
nodes = (
"90 43 LINE",
"90 -70 LINE",
"585 -70 LINE",
"585 43 LINE"
);
}
);
width = 696;
}
);
unicode = 00AF;
},
{
glyphname = ogonek;
lastChange = "2013-01-01 02:52:26 -0800";
layers = (
{
anchors = (
{
name = _ogonek;
position = "{787, 0}";
}
);
layerId = "7DA9E391-A28A-4B33-B824-B8724EAC872C";
name = "Regular Condensed";
paths = (
{
closed = 1;
nodes = (
"667 0 LINE",
"543 -92 OFFCURVE",
"491 -199 OFFCURVE",
"491 -285 CURVE SMOOTH",
"491 -403 OFFCURVE",
"592 -431 OFFCURVE",
"681 -431 CURVE SMOOTH",
"745 -431 OFFCURVE",
"802 -416 OFFCURVE",
"812 -411 CURVE",
"812 -318 LINE",
"813 -319 OFFCURVE",
"752 -339 OFFCURVE",
"693 -339 CURVE SMOOTH",
"638 -339 OFFCURVE",
"585 -321 OFFCURVE",
"585 -252 CURVE SMOOTH",
"585 -184 OFFCURVE",
"628 -88 OFFCURVE",
"731 0 CURVE"
);
}
);
width = 1015;
}
);
unicode = 02DB;
},
{
glyphname = ring;
lastChange = "2013-01-01 02:52:26 -0800";
layers = (
{
anchors = (
{
name = _top;
position = "{462, -150}";
}
);
layerId = "7DA9E391-A28A-4B33-B824-B8724EAC872C";
name = "Regular Condensed";
paths = (
{
closed = 1;
nodes = (
"347 224 OFFCURVE",
"292 145 OFFCURVE",
"292 71 CURVE SMOOTH",
"292 -2 OFFCURVE",
"347 -81 OFFCURVE",
"461 -81 CURVE SMOOTH",
"576 -81 OFFCURVE",
"630 -2 OFFCURVE",
"630 71 CURVE SMOOTH",
"630 145 OFFCURVE",
"576 224 OFFCURVE",
"461 224 CURVE SMOOTH"
);
},
{
closed = 1;
nodes = (
"528 174 OFFCURVE",
"561 123 OFFCURVE",
"561 72 CURVE SMOOTH",
"561 21 OFFCURVE",
"528 -30 OFFCURVE",
"461 -30 CURVE SMOOTH",
"397 -30 OFFCURVE",
"364 21 OFFCURVE",
"364 72 CURVE SMOOTH",
"364 123 OFFCURVE",
"397 174 OFFCURVE",
"461 174 CURVE SMOOTH"
);
}
);
width = 923;
}
);
unicode = 02DA;
},
